<?xml version="1.0" encoding="utf-8"?>
<!-- Generator: Adobe Illustrator 23.0.6, SVG Export Plug-In . SVG Version: 6.00 Build 0)  -->
<svg version="1.1" id="_x31_" xmlns="http://www.w3.org/2000/svg" xmlns:xlink="http://www.w3.org/1999/xlink" x="0px" y="0px"
     viewBox="0 0 1280 280" style="enable-background:new 0 0 1280 280;" xml:space="preserve">
    <defs>
        <style type="text/css">
            @font-face {
            font-family: 'Apercu';
            src: url('../../fonts/apercu-regular-pro.ttf') format("truetype");
            }
            .st0{fill:#E14646;}
            .st1{fill-rule:evenodd;clip-rule:evenodd;fill:#E14646;}
            .st2{fill:#73A89A;}
            .st3{fill:#A7C7D7;}
            .st4{fill:none;stroke:#A7C7D7;stroke-width:1.088;stroke-linecap:round;stroke-miterlimit:10;}
            .st5{fill:none;stroke:#A7C7D7;stroke-linecap:round;stroke-miterlimit:10;}
            .st6{fill:none;}
            .st7{fill:#666666;}
            .st8{font-family:'Apercu,Arial,sans-serif';}
            .st9{font-size:20px;}
            .st10{fill-rule:evenodd;clip-rule:evenodd;fill:#A7C7D7;}
            .st11{fill-rule:evenodd;clip-rule:evenodd;fill:#73A89A;}
            .st12{fill-rule:evenodd;clip-rule:evenodd;fill:#999999;}
        </style>
    </defs>
<g>
<g transform="translate(0,-962.3622)">
<path class="st0" d="M113.26,977.05c-11.94,0-21.58,9.64-21.58,21.58s9.64,21.58,21.58,21.58s21.58-9.64,21.58-21.58
			S125.2,977.05,113.26,977.05z M113.26,978.49c11.17,0,20.14,8.97,20.14,20.14c0,11.17-8.97,20.14-20.14,20.14
			c-11.17,0-20.14-8.97-20.14-20.14C93.12,987.46,102.09,978.49,113.26,978.49z" />



<path class="st1" d="M102.83,979.84v15.11H92.58v1.44h11.69v-16.54H102.83z" />



<path class="st1" d="M108.76,977.68v18.7h25.26v-1.44H110.2v-17.26H108.76z" />



<path class="st1" d="M92.49,1000.88v1.44h10.34v15.01h1.44v-16.45H92.49z" />



<path class="st1" d="M108.76,1000.88v18.43h1.44v-16.99h23.92v-1.44H108.76z" />



<path class="st0" d="M113.26,965.08c-18.36,0-33.27,14.94-33.27,33.34c0,4.72,2.07,11.6,5.13,19.4
			c3.06,7.8,7.14,16.48,11.22,24.59c8.15,16.23,16.29,30.2,16.29,30.2c0.2,0.34,0.64,0.46,0.99,0.26c0.11-0.06,0.2-0.15,0.26-0.26
			c0,0,8.15-13.97,16.29-30.2c4.07-8.11,8.15-16.79,11.22-24.59s5.13-14.68,5.13-19.4C146.52,980.02,131.62,965.08,113.26,965.08z
			 M113.26,966.53c17.58,0,31.82,14.27,31.82,31.9c0,4.29-2,11.14-5.04,18.87c-3.04,7.73-7.1,16.38-11.16,24.47
			c-7.63,15.19-14.72,27.45-15.63,29.01c-0.91-1.56-8-13.83-15.63-29.01c-4.06-8.09-8.12-16.74-11.16-24.47
			c-3.04-7.73-5.04-14.58-5.04-18.87C81.43,980.8,95.68,966.53,113.26,966.53z" />



	</g>
<g>
<g>
<path class="st2" d="M166.15,82.14c-9.27,0-17.09,9.05-17.09,19.75v7.71c0,0.43,0.35,0.78,0.78,0.78h47.77
				c0.43,0,0.78-0.35,0.78-0.78v-7.72c0-10.7-7.83-19.75-17.09-19.75h-0.41v-2.18c1.16,0.23,2.26,0.34,3.28,0.34
				c4.42,0,7.39-1.8,7.55-1.9c0.23-0.14,0.37-0.39,0.37-0.65c0-0.27-0.13-0.52-0.35-0.67c-4.11-2.76-4.25-10.39-4.25-10.47
				c0-0.02-0.01-0.03-0.01-0.05c0.13-0.54,0.23-1.09,0.3-1.64c0-0.02,0.02-0.04,0.02-0.06c0-0.02,0-0.04,0-0.06
				c0.08-0.64,0.13-1.28,0.13-1.94c0-8.41-6.37-15.26-14.21-15.26c-7.83,0-14.21,6.84-14.21,15.25c0,1.31,0.17,2.58,0.46,3.79
				c-0.01,0.35-0.22,7.73-4.25,10.44c-0.22,0.15-0.35,0.4-0.35,0.67c0,0.27,0.15,0.51,0.37,0.65c0.16,0.1,3.13,1.9,7.55,1.9
				c1.01,0,2.1-0.1,3.25-0.33v2.17L166.15,82.14L166.15,82.14z M196.83,101.89v6.93h-8.89v-3.19c0-0.43-0.35-0.78-0.78-0.78
				c-0.43,0-0.79,0.35-0.79,0.78v3.19h-25.27v-3.19c0-0.43-0.35-0.78-0.79-0.78c-0.43,0-0.78,0.35-0.78,0.78v3.19h-8.89v-6.93
				c0-8.79,5.97-16.6,13.26-17.97l3.72,9.7h-1.02c-0.43,0-0.78,0.35-0.78,0.78v10.52c0,0.43,0.35,0.78,0.78,0.78h14.82
				c0.43,0,0.78-0.35,0.78-0.78V94.41c0-0.43-0.35-0.78-0.78-0.78h-1l3.67-9.58C191.13,85.67,196.83,93.31,196.83,101.89z
				 M171.88,93.41v-1.06h4.23v1.06H171.88z M180.62,95.19v8.95h-13.25v-8.95H180.62z M182.5,83.78l-3.77,9.84h-1.05v-2.05
				c0-0.43-0.35-0.78-0.78-0.78h-5.8c-0.43,0-0.78,0.35-0.78,0.78v2.05h-1.03l-3.79-9.89c0.22-0.01,0.44-0.02,0.66-0.02h1.08
				l0.37,0.23c1.89,1.17,4.01,1.76,6.12,1.76c2.14,0,4.27-0.6,6.18-1.79l0.32-0.2h1.08C181.71,83.71,182.11,83.74,182.5,83.78z
				 M161.26,65.04c1.93-0.28,10.17-1.74,16.41-6.52c0.53,0.85,3.76,5.69,8.46,6.84c-1.09,6.35-6.24,11.18-12.41,11.18
				C167.44,76.54,162.23,71.55,161.26,65.04z M173.72,78.11c1.99,0,3.88-0.44,5.6-1.24v5.55l-0.26,0.16
				c-3.28,2.06-7.35,2.07-10.64,0.03l-0.31-0.19v-5.55C169.85,77.67,171.74,78.11,173.72,78.11z M189.86,77.58
				c-1.6,0.68-4.91,1.69-8.97,0.79V76c2.28-1.44,4.15-3.53,5.39-6.04C186.72,72.36,187.69,75.52,189.86,77.58z M186.36,62.86
				c0,0.32-0.02,0.62-0.04,0.93c-4.3-1.18-7.34-6.15-7.37-6.2c-0.02-0.03-0.04-0.04-0.06-0.07c1.43-1.26,2.7-2.71,3.71-4.4
				C184.92,55.61,186.36,59.05,186.36,62.86z M173.72,49.17c2.9,0,5.57,1.07,7.7,2.86c-4.9,8.59-17.75,11.03-20.31,11.44
				c-0.01-0.2-0.03-0.41-0.03-0.61C161.09,55.31,166.76,49.17,173.72,49.17z M157.62,77.58c2.16-2.04,3.13-5.17,3.57-7.57
				c1.24,2.49,3.11,4.57,5.37,5.99v2.36C162.52,79.26,159.21,78.25,157.62,77.58z" />



<path class="st2" d="M174,103.3c1.92,0,3.48-1.56,3.48-3.48s-1.56-3.48-3.48-3.48c-1.92,0-3.48,1.56-3.48,3.48
				S172.08,103.3,174,103.3z M174,97.92c1.05,0,1.91,0.86,1.91,1.91s-0.86,1.91-1.91,1.91c-1.05,0-1.91-0.86-1.91-1.91
				S172.94,97.92,174,97.92z" />



		</g>
<g>
<path class="st2" d="M214.23,82.14c-9.27,0-17.1,9.05-17.1,19.75v7.71c0,0.43,0.35,0.78,0.78,0.78h47.77
				c0.43,0,0.78-0.35,0.78-0.78v-7.72c0-10.7-7.83-19.75-17.09-19.75h-0.41V76c3.67-2.32,6.29-6.36,6.89-11.08
				c0-0.02,0.02-0.04,0.02-0.06c0-0.02,0-0.04,0-0.06c0.08-0.64,0.13-1.28,0.13-1.94c0-8.41-6.37-15.25-14.21-15.25
				s-14.21,6.84-14.21,15.25c0,5.6,2.84,10.5,7.04,13.15v6.14L214.23,82.14L214.23,82.14z M244.9,101.89v6.93h-8.89v-3.19
				c0-0.43-0.35-0.78-0.79-0.78c-0.43,0-0.78,0.35-0.78,0.78v3.19h-25.27v-3.19c0-0.43-0.35-0.78-0.78-0.78
				c-0.43,0-0.78,0.35-0.78,0.78v3.19h-8.89v-6.93c0-8.79,5.97-16.6,13.26-17.97l3.72,9.7h-1.02c-0.43,0-0.78,0.35-0.78,0.78v10.52
				c0,0.43,0.35,0.79,0.78,0.79h14.82c0.43,0,0.78-0.35,0.78-0.79V94.41c0-0.43-0.35-0.78-0.78-0.78h-1.02l3.67-9.59
				C239.2,85.66,244.9,93.3,244.9,101.89z M219.96,93.18v-1.06h4.23v1.06H219.96z M228.7,95.19v8.95h-13.25v-8.95H228.7z
				 M230.56,83.78l-3.77,9.85h-1.03v-2.28c0-0.43-0.35-0.79-0.79-0.79h-5.8c-0.43,0-0.78,0.35-0.78,0.79v2.28h-1.03l-3.79-9.89
				c0.22-0.01,0.44-0.02,0.66-0.02h1.08l0.37,0.23c1.89,1.17,4.01,1.76,6.12,1.76c2.14,0,4.27-0.6,6.18-1.79l0.32-0.2h1.08
				C229.78,83.71,230.17,83.74,230.56,83.78z M234.44,62.86c0,0.32-0.02,0.62-0.04,0.93c-4.3-1.17-7.34-6.15-7.37-6.2
				c-0.02-0.03-0.04-0.04-0.06-0.07c1.43-1.26,2.7-2.71,3.71-4.4C232.99,55.61,234.44,59.05,234.44,62.86z M221.8,49.17
				c2.9,0,5.57,1.07,7.7,2.86c-4.9,8.59-17.75,11.03-20.31,11.44c-0.01-0.2-0.03-0.41-0.03-0.61
				C209.17,55.31,214.83,49.17,221.8,49.17z M209.34,65.04c1.93-0.28,10.17-1.74,16.41-6.52c0.53,0.85,3.76,5.69,8.46,6.84
				c-1.09,6.35-6.24,11.18-12.41,11.18C215.52,76.54,210.31,71.55,209.34,65.04z M221.8,78.11c1.99,0,3.88-0.44,5.6-1.24v5.55
				l-0.26,0.16c-3.28,2.06-7.35,2.07-10.64,0.03l-0.31-0.19v-5.55C217.92,77.67,219.81,78.11,221.8,78.11z" />



<path class="st2" d="M222.07,103.3c1.92,0,3.48-1.56,3.48-3.48c0-1.92-1.56-3.48-3.48-3.48s-3.48,1.56-3.48,3.48
				C218.6,101.74,220.16,103.3,222.07,103.3z M222.07,97.92c1.05,0,1.91,0.86,1.91,1.91s-0.86,1.91-1.91,1.91
				c-1.05,0-1.91-0.86-1.91-1.91S221.02,97.92,222.07,97.92z" />



		</g>
	</g>
<g>
<g>
<polygon class="st3" points="90.9,163.88 91.09,165.71 92.27,166.21 94.56,163.46 96.51,163.46 97.66,163.76 99.3,163.46
				98.76,162.04 98.38,161.62 96.89,161.39 94.3,161.39 93.53,160.86 93.3,160.86 93.84,161.78 93.72,162.81 92.2,163.34
				91.24,163.53 			" />



<polygon class="st3" points="90.17,165.98 91.36,167.54 89.29,170.06 88.64,171.67 87.69,172.54 87.54,176.29 87.04,176.59
				86.24,174.72 85.89,173.96 85.89,172.35 86.24,170.83 85.89,170.21 85.55,169.87 84.79,170.98 84.6,172.12 84.82,172.61
				85.29,172.81 85.01,173.69 84.6,174.12 82.75,173.76 82.23,173.48 79,174.12 77.79,175.05 77.36,175.05 76.75,174.66
				76.04,174.32 75.42,174.04 74.73,173.69 74.04,173 73.39,172.29 72.66,171.69 71.69,171.28 70.65,171.02 69.98,170.72
				69.68,170.2 69.31,169.72 68.93,169.1 69.66,168.95 69.7,167.35 69.83,166.81 69.64,166.47 69.03,165.98 69.08,165.43
				69.34,165.05 69.75,164.68 70.37,164.31 70.74,163.95 71.38,163.77 72.48,163.99 73.69,164.36 74.68,164.61 75.4,165.41
				75.87,166.21 76.54,166.4 77.25,166.84 77.57,167.63 78.18,167.87 79.04,167.76 80.03,167.35 80.53,166.68 80.72,166.3
				81.05,165.97 81.15,165.61 81.63,165.71 82.36,166.32 83.05,166.86 83.44,166.92 83.48,165.8 83.31,163.77 83.59,163.53
				85.38,163.67 86.2,164.23 87.13,164.89 87.86,165.54 89,165.91 			" />



<polygon class="st3" points="61.99,166.21 61.45,167.92 61.72,169.6 61.99,170.71 63.4,169.76 63.82,168.46 64.17,167.5
				64.47,166.21 64.78,165.21 65.2,163.91 65.54,162.88 66.53,161.36 67.03,156.93 66.38,158.53 65.73,160.36 65.27,161.47
				62.98,163.82 62.91,165.98 			" />



<polygon class="st3" points="53.67,164.35 54.08,164.01 54.76,164.35 55.51,165.04 56.82,166.44 57.14,166.62 57.88,166.62
				57.88,167.68 57.2,168.25 56.54,168.02 55.56,166.87 54.62,165.87 53.67,164.93 			" />



<polygon class="st3" points="86.41,162.26 87.1,161.72 88.19,162.66 89.3,163.06 90.74,162.15 90.59,159.8 91.05,159.14
				91.48,158.8 91.36,158.2 89.7,157.65 88.95,157.28 88.79,156.93 89.33,156.53 90.19,155.93 91.14,155.19 92.42,154.21
				93.46,153.53 94.8,153.67 95.83,153.3 96.55,152.55 97.09,152.21 97.35,151.64 97.09,149.98 96.46,149.17 95.83,148.57
				95.4,148.26 94.37,147.88 93.23,147.63 92.45,147.23 92.17,146.34 92.28,145.28 92.6,144.3 93.17,142.84 93.89,141.81
				94.6,141.13 95.4,140.78 96.38,140.55 97.35,140.55 98.21,141.01 99.3,141.73 100.07,142.21 100.85,142.24 101.42,141.44
				101.42,140.55 101.05,139.84 100.56,139.03 100.27,137.98 100.04,137.09 100.01,136.11 100.1,134.91 99.7,134.74 99.38,133.94
				99.3,132.5 99.1,131.22 98.64,129.53 98.95,128.24 99.47,127.01 100.01,126.35 100.01,125.34 99.44,124.69 98.75,124.37
				98.15,123.68 95.8,123.68 95.12,123.05 94.77,122.68 93.71,122.68 92.2,123.02 91.82,123.08 91.14,123.77 90.16,124.77
				89.13,125.77 88.1,126.4 87.01,127.09 86.24,127.52 86.04,128.01 86.5,128.67 87.04,128.32 87.76,128.01 88.67,128.12
				88.96,129.98 89.25,131.22 89.59,132.33 90.19,134.08 90.47,136.8 90.25,137.36 89.84,138.26 89.61,138.87 89.11,138.76
				88.61,138.37 88.14,138.76 87.36,138.89 87.28,138.35 87.56,137.66 87.97,136.88 88.27,136.3 89.05,136.39 89.37,136.13
				89.39,134.85 89.24,133.45 88.92,132.01 88.55,131.04 87.99,130.18 86.74,129.51 86.91,130.43 87.17,131.47 87.32,132.94
				87.08,133.58 86.63,133.43 86.04,133.58 85.85,134.62 85.51,135.48 85.51,137.03 85.21,137.96 84.88,138.09 84.54,137.85
				83.53,137.57 82.23,137.25 81.71,136.99 81.71,136.6 82.38,136.34 83.2,135.89 82.53,135.22 81.89,134.38 81.5,133.91
				81.5,133.37 82.08,133.13 82.75,133.11 82.62,132.31 82.4,130.87 82.4,130.18 83.33,130.09 83.37,128.1 82.23,129.2
				81.33,128.88 80.16,128.49 79.43,128.73 78.85,128.7 77.96,128.72 76.73,128.38 76.04,128.15 74.5,127.26 75.36,128.32
				76.04,128.72 77.42,129.07 78.53,129.3 78.82,129.96 79.11,130.7 78.79,131.3 78.56,132.1 76.84,132.91 76.41,133.28
				76.19,134.22 75.7,134.88 75.07,135.54 74.5,136.23 73.32,136.6 72.32,136.51 71.52,135.91 66.93,136 67.65,136.4 68.71,136.77
				69.43,137.35 70.14,138.03 70.43,138.32 70.37,138.78 68.51,138.81 69,139.38 69.66,139.75 70.34,140.07 70.72,140.5
				71.32,140.84 71.32,143.22 70.69,143.79 70.4,144.33 71.75,144.42 72.09,145.16 72.49,146.45 72.32,147.23 72.69,148.09
				72.66,148.4 72.03,148.72 70.86,149.15 70.8,149.63 70.92,150.18 71.52,150.92 72.69,151.81 73.29,152.64 73.72,154.87
				73.93,155.1 75.65,154.85 78.8,154.74 81.43,155.13 82.58,154.91 83.12,155.3 82.88,156.31 83.16,156.79 84.37,156.93
				84.32,157.48 82.92,157.56 83.2,158.23 83.83,158.86 84.6,159.87 85.21,160.86 85.81,161.64 86.2,162.35 			" />



<polyline class="st3" points="59.03,127.67 59.89,128.73 60.65,129.74 61.29,130.48 61.87,130.93 61.87,131.38 61.27,132.42
				61.16,134.75 59.61,135.05 59.29,133.8 59.14,132.25 59.55,131.73 60.34,131.53 60.67,131.04 60.62,130.52 60.45,129.96
				59.98,129.49 59.52,129.33 59.16,128.88 			" />



<path class="st3" d="M59.27,163.06l1.93,0.34l0.09-3.28l0.43,0.22l0.81-0.22l0.35-0.6l0.69-0.32l0.33-0.76l0.27-1.02l0.42-1.22
				l0.13-0.58l-0.17-1.47l-0.29-1.64l0.16-1.74l-0.16-0.86l-0.67-1.01l-0.72-1.01l-0.68-1.11l-0.26-0.42l0.07-0.7l1.28-0.17
				l-0.14-0.47l-0.32-0.66l-0.29-0.82l-0.43-0.83l-0.56-0.92l-0.39-0.76l-0.09,1.05l-0.04,0.93l0.1,0.98l-0.16,0.45l-0.09,0.92
				l-0.96,0.23l-0.63,0.33l-1.37,0.65l-0.39-0.07v-0.55l0.26-0.47l0.39-1.35l0.06-1.37l-0.7-0.55l-0.32-0.13l-0.56-0.68l-0.88-0.37
				l-0.91-0.19l0.04,0.6l-0.66,0.05v-0.72l-0.64-0.07l-1.3,0.48l-1.31,0.6l-0.82,0.53l-1.55,0.88c0,0-0.75,0.58-0.68,0.62
				c0.07,0.04-0.56,0.56-0.56,0.56l-1.58-0.2v-1.04l-0.76-0.12l-0.96,0.6L43,144.53l0.47,0.88l1.01,0.76l0.6,0.53l0.06,1.24
				l-0.33,0.3l0.07,0.73l0.68,0.56l0.6,0.35l0.45,0.43l-0.3,2.24l0.23,0.68l0.77,0.87l0.58,0.51l0.29,0.28l0.67,0.38l2.01,0.6
				l0.93,1.01l0.09,0.46l-0.28,0.35l-0.36,0.7l-0.09,0.43l0.3,0.24l0.42,0.22l0.72,0.36l0.28-0.1l-0.01-0.8l0.59,0.08l0.81,0.42
				l0.98,0.33l0.65,0.36l0.64,0.36l0.95,0.2l1.21,0.15l1.21,0.04l0.15,0.33l-0.53,0.57l-0.3,0.72L59.27,163.06z" />



<polygon class="st3" points="79.04,101.24 79.7,101.13 80.49,101.13 80.33,101.79 79.89,102.41 79.38,101.87 79.04,101.5 			" />



<polygon class="st3" points="67.05,80.14 66.34,81.07 66.34,81.65 67.05,82.32 67.87,82.93 68.6,82.71 68.97,82.28 69.59,82.09
				70.24,81.44 70.52,80.36 70.91,79.99 71.92,79.15 70.35,79.41 68.06,79.78 			" />



<polygon class="st3" points="90.51,96.5 90.1,97.29 89.77,97.92 89.45,98.63 89.13,101.76 89.49,103.5 89.82,103.94
				90.51,104.43 91.13,104.6 91.5,105.01 93.01,105.51 93.16,106.03 93.91,106.35 94.61,106.58 95.83,106.97 96.6,107.14 97,106.58
				97.36,105.94 97.68,105.2 97.99,104.5 98.15,103.64 97.76,103.2 97.81,102.33 97.33,101.82 96.52,101.46 95,100.39 94.36,99.68
				93.79,99.37 93.02,99.16 92.37,98.3 91.62,97.52 			" />



<polygon class="st3" points="21.83,165.07 27.22,165.41 35.22,168.58 37.01,167.74 38.15,167.57 39.04,166.96 39.73,166.19
				40.37,165.61 40.63,165.3 40.91,165.56 41.45,165.99 42.19,166.64 43.33,167.59 43.2,166.82 43,166.64 42.83,166.13 43,165.41
				43.67,165.28 44.95,165.71 45.79,165.39 47.17,165.37 47.9,165.63 48.57,165.99 49.67,166.4 49.82,165.37 49.45,164.59
				49.17,163.82 48.78,163.41 48.5,162.93 48.14,162.29 47.81,161.68 46.54,161.51 45.79,160.67 45.14,159.98 44.3,159.44
				42.14,159.65 42.1,160.65 42.49,160.95 43.22,161.34 43.78,161.64 44.56,161.92 44.86,162.57 45.27,162.95 45.66,163.41
				45.89,164.01 45.12,163.73 44.39,163.64 44,163.32 43.35,163 42.62,162.63 42.19,162.33 41.5,161.96 40.91,161.81 40.85,160.78
				39.92,161.16 39.45,161.34 38.86,161.57 38.35,161.25 38.07,160.86 37.92,160.3 38.37,159.91 39.53,159.55 39.38,158.81
				38.91,158.47 37.92,158.25 37.98,157.67 38.3,157.15 38.52,156.59 39.15,156.27 39.79,155.88 40.46,155.49 41.17,155.28
				41.73,154.87 42.34,154.35 42.72,153.81 43.09,153.36 42.44,152.84 42.08,152.54 41.73,151.39 41.41,149.82 41.06,148.91
				40.74,147.92 40.46,147.51 40.53,147.04 41.11,146.84 41.75,146.5 42.47,146.09 42.55,145.03 41.09,145.16 40.61,145.25
				39.86,145.18 39.4,145.03 39.17,144.69 39.38,144.26 40.16,143.93 41.42,143.76 42.19,143.76 43.19,143.33 43.88,142.39
				44.28,141.74 45.2,141.09 46.13,140.63 46.36,140.27 45.53,140.16 44.54,140.27 43.86,140.16 43.42,139.18 42.7,138.52
				41.99,138.19 41.76,137.7 42.02,137.13 42.54,136.92 43.17,137.38 43.9,137.74 44.62,138.05 45.41,138.46 45.97,138.95
				46.2,137.87 48.12,137.46 48.5,136.64 48.81,136.39 49.99,135.96 49.45,135.62 49.01,135.05 49.47,133.93 49.12,133.46
				48.39,133.17 47.34,132.84 46.69,132.51 46.16,132.3 46.32,131.75 47.4,131.36 48.48,131.07 51.15,131.07 51.91,132.08
				52.37,132.47 52.86,131.36 53.21,130.71 53.51,130.1 53.74,128.57 53.74,124.68 53.49,123.71 53.21,122.99 52.93,122.3
				53.13,121.7 53.52,121 53.85,120.32 54.2,119.7 54.84,118.59 55.73,117.15 56.42,116.33 57.11,116.59 57.63,116.89 58.57,116.98
				58.57,117.49 58.29,117.97 58.22,118.59 57.88,118.97 57.53,119.28 56.84,119.59 56.25,120.05 56.33,120.64 56.7,121.17
				56.99,120.71 57.59,120.36 58.78,120.52 58.87,120.91 58.58,121.38 58.25,121.77 58.28,122.36 58.6,123.01 59.09,123.2
				59.5,122.58 59.37,121.63 59.2,121.13 59.3,120.65 59.88,119.99 60.19,119.6 60.61,118.94 61.28,118.8 61.93,118.98 62.28,120.1
				62.67,121.28 62.94,121.18 63.18,118.94 63.92,118.61 64.58,117.99 64.88,117.52 65.28,117.01 65.48,116.51 65.9,116.02
				66.27,115.62 66.6,114.97 66.95,112.94 67.14,111.49 67.54,111.12 67.54,110.87 67.25,110.64 66.83,110.31 66.2,109.65
				65.61,109.26 65.18,108.92 64.84,108.6 64.49,108.27 63.94,107.9 63.34,107.9 62.18,108.24 60.54,108.55 58.9,108.85
				58.01,108.76 57.1,108.34 56.48,108 55.92,107.52 55.55,103.93 55.19,101.27 54.48,99.46 54.18,97.17 53.82,95.52 53.87,94.54
				54.18,93.42 54.53,92.11 54.41,91.54 54.69,91.22 55.2,91.09 55.52,90.42 55.87,89.37 56.24,88.39 56.5,87.34 56.89,86.28
				57.19,85.01 57.89,84.36 58.51,83.67 59.19,82.93 59.34,82.5 59.2,80.6 58.96,79.53 59.09,78.76 58.87,77.78 59.13,76.76
				59.11,75.9 59.21,74.95 59.34,74.2 58.81,73.38 58.45,73.02 58.21,72.66 57.89,72.33 57.53,71.63 57.19,68.51 57.53,67.59
				58.25,66.93 58.86,66.26 59.5,65.57 59.83,65.2 60.55,64.27 59.85,64.15 59.2,64.29 58.5,64.93 57.91,65.59 56.93,66.26
				56.2,66.9 54.86,67.95 53.18,68.9 51.29,69.17 48.27,69.32 47.62,70.05 46.87,70.98 45.74,72.4 44.86,73.68 44.13,74.75
				43.48,76.09 42.79,77.43 42.1,78.76 41.09,80.4 39.79,82.45 39.1,83.47 38.07,84.13 36.95,84.8 36.1,85.17 34.16,85.82
				32.48,86.14 30.71,85.82 28.86,85.45 28.15,85.26 27.33,85.77 26.64,86.18 25.97,86.74 25.15,87.05 20.62,86.68 20.02,87.28
				19.63,88.04 19.11,88.92 18.66,89.44 18.16,90.15 17.9,90.88 17.39,91.25 17.17,91.88 16.44,92.29 16.05,93 15.6,93.78
				15.28,94.18 14.96,94.85 14.62,95.56 13.94,96.99 13.85,98.24 13.62,98.72 13.62,99.7 13.8,99.76 13.94,99.19 14.26,99.25
				14.63,99.81 14.93,100.51 15.27,101.2 15.61,101.84 15.92,102.21 16.7,102.5 17.48,102.51 17.63,102.25 18.07,102.34 18,102.72
				17.38,102.97 17.58,103.47 17.95,103.87 18.31,104.5 18.62,104.9 19,105.55 19.61,105.61 19.95,105.2 20.27,104.89 20.82,104.35
				20.64,103.84 20.53,102.96 20.14,102.73 19.58,103.19 19.11,103.38 18.73,103.21 18.64,102.78 18.73,102.37 19.27,102.19
				19.4,101.68 19.29,101.14 18.57,99.68 18.52,98.49 18.94,98.12 19.9,97.82 20.29,97.47 20.62,97.15 20.94,96.5 21.26,96.1
				21.51,95.87 21.67,96.18 21.82,96.67 21.66,97.25 21.32,98.49 20.57,98.85 20.05,99.05 19.98,99.45 20.3,100.55 20.65,100.86
				20.99,101.16 21.29,101.93 21.42,102.48 21.96,102.77 22.68,102.73 23.56,102.49 24,101.86 24.29,101.48 24.65,101.08
				25.02,100.52 25.55,100.03 25.85,99.1 25.85,98.32 25.63,96.75 25.71,96.17 26.14,95.79 26.63,95.12 26.95,94.72 27.18,94.04
				27.03,93.55 26.87,92.94 25.61,93.35 25.34,94.4 24.3,94.81 22.8,95.12 21.72,95.28 21.51,94.88 21.63,93.78 21.97,93.09
				22.67,92.78 23.65,92.44 24.97,92.11 25.61,91.78 25.81,91.21 26.34,91.08 26.62,90.97 26.78,91.7 27.08,91.42 27.34,90.75
				27.73,90.44 28.87,90.46 30.06,90.14 30.66,89.75 31.13,89.47 31.46,89.66 32.07,90.08 32.47,90.4 33.06,90.75 33.78,91.18
				34.33,90.98 35,90.46 35.98,90.01 37.06,89.7 38.33,89.4 39.39,89.02 40.73,88.72 41.49,88.32 43.76,88.45 44.03,87.74
				44.41,87.43 45.03,87.66 45.84,87.99 46.12,88.39 45.89,89.01 45.5,89.57 42.78,89.78 42.12,90.44 41.1,91.52 40.5,92.17
				40.18,92.29 40.03,92.02 39.45,91.41 39.08,90.81 38.67,90.53 36.53,90.64 36.1,90.78 35.37,91.13 34.48,91.44 33.74,92.19
				33.3,92.8 32.72,93.45 32.4,93.95 32.7,95.14 32.96,95.67 32.72,96.16 32.38,97.69 32.4,98.39 33.05,99.12 33.4,99.5 33.56,99.9
				33.37,100.51 33.42,101.15 34.03,101.5 34.77,102.13 35.09,102.51 35.34,103.22 35.09,103.93 34.76,104.64 33.33,104.9
				31.67,105.16 30.68,105.52 30.38,106.77 30.17,106.94 29.98,106.26 29.69,104.93 29.88,104.17 30.31,103.47 30.7,102.78
				31,102.43 31.35,101.83 31.68,101.46 31.85,101.03 31.69,100.42 31.37,99.46 31.03,99.04 30.91,98.35 30.3,98.8 29.56,98.94
				29.37,98.65 29.7,97.45 29.78,96.72 28.98,96.99 28.34,97.25 28.2,97.6 28.44,97.88 28.34,98.5 27.54,98.85 26.76,99.19
				26.34,99.59 26.07,100.21 25.69,101.18 25.78,101.62 27.02,101.67 27.1,102.08 26.86,102.27 25.47,102.35 24.98,102.83
				23.97,103.9 23.27,104.53 22.97,105.43 22.97,106.18 23.31,106.5 23.68,107.2 23.94,108.09 23.75,109.69 23.31,109.92
				22.3,110.24 21.76,110.42 21.3,110.21 20.93,108.59 20.63,107.52 20.2,106.62 19.78,107.53 19.46,107.74 19.18,107.6
				18.3,107.25 17.56,106.92 16.37,106.76 15.25,106.93 14.81,107.29 14.59,107.13 14.56,105.57 13.89,105.27 13.17,104.92
				12.42,104.5 11.95,104.91 11.6,107.86 11.32,112.14 12.01,111.38 12.24,111.61 12.6,112.96 12.94,113.93 13.3,114.26
				13.61,114.59 14.29,114.92 14.52,115.18 14.37,115.53 12.38,115.49 11.38,114.49 11.51,119.27 11.59,120.2 11.25,122.29
				11.08,126.78 11.36,127.07 11.55,125.55 11.56,124.68 11.69,123.57 12.12,123.33 12.6,123.68 13.54,124.02 14.36,124.26
				14.62,125.03 14.94,125.99 15.29,126.96 15.6,127.65 15.95,128.63 16.3,129.72 16.28,130.09 15.94,130.47 15.56,131.02
				15.22,131.43 14.95,131.76 14.54,132.04 14.15,131.77 13.91,131.36 13.42,130.92 13.05,131.2 12.92,131.68 12.61,131.73
				12.5,130.92 12.06,129.16 11.9,129.55 11.96,130.94 12.24,133.71 12.23,134.6 12.42,135.54 12.24,136.69 11.93,138.1
				11.64,139.3 11.27,140.18 10.94,140.81 10.58,141.46 10.45,142.17 10.56,142.49 11.33,142.8 12.21,143.12 12.9,143.5
				13.6,144.06 14.4,145.13 14.39,144.21 14.23,143.49 13.87,143.12 13.66,142.63 13.94,142.13 14.94,142.23 15.62,143.08
				16.3,143.84 16.65,144.5 17.29,145.16 17.62,145.8 18.01,146.19 18.43,146.31 19.21,146.11 20.07,146.17 20.56,146.52
				20.92,146.8 21.33,147.2 21.96,148.82 22.3,150.67 22.3,154.16 22.59,156.92 22.3,158.18 21.98,159.64 21.96,159.92
				21.63,160.85 21.66,161.54 21.99,162.3 22.28,163.04 22.3,163.71 21.97,164.15 			" />



<polygon class="st3" points="15.9,146.26 16.76,145.9 16.96,146.17 17.24,147.26 17.55,148.22 17.93,148.91 18.36,150.24
				17.64,150.07 17.25,149.19 16.89,148.3 16.34,147.39 15.9,146.69 			" />



<polygon class="st3" points="19.46,154.81 20.36,155.86 19.96,157.26 19.55,159.75 19.23,159.26 18.95,158.8 18.62,158.21
				18.31,157.28 18.66,155.62 18.94,155.19 			" />



		</g>
	</g>
<g>
<path class="st2" d="M300.45,72.74c0.32,0.32,0.54,0.75,0.54,1.08h1.61c0-0.86-0.43-1.72-1.08-2.37
			c-0.43-0.43-1.08-0.65-1.72-0.75v-1.83h-1.61v1.83c-0.65,0.11-1.29,0.43-1.72,0.75c-0.75,0.65-1.08,1.4-1.08,2.37
			c0,0.86,0.43,1.72,1.08,2.37c0.65,0.54,1.61,0.86,2.47,0.86c0.54,0,1.08,0.22,1.51,0.54c0.32,0.32,0.54,0.75,0.54,1.08
			c0,0.43-0.22,0.86-0.54,1.08c-0.75,0.65-2.15,0.65-2.9,0c-0.32-0.32-0.54-0.75-0.54-1.08h-1.61c0,0.86,0.43,1.72,1.08,2.37
			c0.43,0.43,1.08,0.65,1.72,0.86v1.83h1.61v-1.83c0.65-0.11,1.18-0.43,1.72-0.86c0.75-0.65,1.08-1.4,1.08-2.37
			c0-0.86-0.43-1.72-1.08-2.37c-0.65-0.54-1.61-0.86-2.47-0.86c-0.54,0-1.08-0.22-1.51-0.54c-0.32-0.32-0.54-0.75-0.54-1.08
			c0-0.32,0.22-0.86,0.54-1.08C298.3,72.09,299.7,72.09,300.45,72.74z" />



<path class="st2" d="M299.59,64.89l5.27-6.88c0.22-0.22,0.22-0.54,0.11-0.86c-0.11-0.32-0.43-0.43-0.75-0.43h-22.48
			c-0.43,0-0.86,0.32-0.86,0.86c0,0.43,0.32,0.86,0.86,0.86h20.86l-5.05,6.56c-5.59,0.75-9.89,5.48-9.89,11.29
			c0,0.54,0,1.08,0.11,1.51l-5.16,6.78c-0.86,1.08-1.29,2.47-1.29,3.87v15.92l-7.64,3.23V88.44c0-1.4-0.43-2.69-1.29-3.87
			l-20.11-26.24h9.25c0.43,0,0.86-0.32,0.86-0.86c0-0.43-0.32-0.86-0.86-0.86h-10.86c-0.32,0-0.54,0.21-0.75,0.43
			c-0.11,0.32-0.11,0.65,0.11,0.86l20.97,27.75c0.65,0.86,0.97,1.83,0.97,2.9v20.33c0,0.32,0.11,0.54,0.32,0.65
			c0.11,0.11,0.32,0.11,0.43,0.11s0.22,0,0.32-0.11l9.25-3.87c0.32-0.11,0.54-0.43,0.54-0.75V88.44c0-1.08,0.32-2.04,0.97-2.9
			l4.41-5.7c1.51,4.52,5.81,7.85,10.86,7.85c6.35,0,11.4-5.16,11.4-11.4C310.45,70.16,305.61,65.21,299.59,64.89z M299.05,86.07
			c-5.38,0-9.79-4.41-9.79-9.79c0-5.38,4.41-9.79,9.79-9.79s9.79,4.41,9.79,9.79C308.84,81.66,304.43,86.07,299.05,86.07z" />



<polygon class="st2" points="261.63,61.12 266.68,66.18 271.74,61.12 270.55,59.94 267.44,63.06 267.44,54.89 265.82,54.89
			265.82,63.06 262.7,59.94 		" />



<rect x="265.82" y="51.12" class="st2" width="1.61" height="1.61" />



<rect x="265.82" y="47.9" class="st2" width="1.61" height="1.61" />



<polygon class="st2" points="280.99,53.81 279.8,52.73 276.68,55.85 276.68,47.57 275.07,47.57 275.07,55.85 271.95,52.73
			270.88,53.81 275.93,58.86 		" />



<rect x="275.07" y="43.81" class="st2" width="1.61" height="1.61" />



<rect x="275.07" y="40.58" class="st2" width="1.61" height="1.61" />



	</g>
<path class="st4" d="M200.96,38.24c0,2.6-2.1,4.7-4.7,4.7c-2.6,0-4.7-2.1-4.7-4.7c0-2.6,2.11-4.7,4.7-4.7
		C198.85,33.54,200.96,35.64,200.96,38.24z" />



<path class="st5" d="M248.16,34.51c0,1.87-1.51,3.38-3.38,3.38s-3.38-1.51-3.38-3.38c0-1.87,1.51-3.38,3.38-3.38
		S248.16,32.64,248.16,34.51z" />



<path class="st3" d="M226.43,21.16c0,1.26-1.02,2.28-2.28,2.28c-1.26,0-2.28-1.02-2.28-2.28c0-1.26,1.02-2.28,2.28-2.28
		C225.41,18.88,226.43,19.9,226.43,21.16z" />



<g>
<path class="st3" d="M168.89,24.62c0-0.56-0.45-1.01-1.01-1.01c-0.56,0-1.01,0.45-1.01,1.01v3.19c0,0.56,0.45,1.01,1.01,1.01
			c0.56,0,1.01-0.45,1.01-1.01V24.62z" />



<path class="st3" d="M167.89,31.91c-0.56,0-1.01,0.45-1.01,1.01v3.19c0,0.56,0.45,1.01,1.01,1.01c0.56,0,1.01-0.45,1.01-1.01
			v-3.19C168.89,32.36,168.44,31.91,167.89,31.91z" />



<path class="st3" d="M173.63,29.36h-3.19c-0.56,0-1.01,0.45-1.01,1.01c0,0.56,0.45,1.01,1.01,1.01h3.19
			c0.56,0,1.01-0.45,1.01-1.01C174.64,29.81,174.19,29.36,173.63,29.36z" />



<path class="st3" d="M165.33,29.36h-3.19c-0.56,0-1.01,0.45-1.01,1.01c0,0.56,0.45,1.01,1.01,1.01h3.19
			c0.56,0,1.01-0.45,1.01-1.01C166.34,29.81,165.89,29.36,165.33,29.36z" />



	</g>
<g>
<path class="st0" d="M291.4,118.81H118.67c-5.16,0-9.34,4.18-9.34,9.34v42.02c0,5.16,4.18,9.34,9.34,9.34H291.4
			c5.16,0,9.34-4.18,9.34-9.34v-42.02C300.74,122.99,296.56,118.81,291.4,118.81z M296.07,170.16c0,2.58-2.09,4.67-4.67,4.67H118.67
			c-2.58,0-4.67-2.09-4.67-4.67v-42.02c0-2.58,2.09-4.67,4.67-4.67H291.4c2.58,0,4.67,2.09,4.67,4.67V170.16z" />



<path class="st1" d="M136.88,138.44h-5c-1.38,0-2.5-0.98-2.5-2.18c0-1.21,1.12-2.18,2.5-2.18h14.94c1.38,0,2.5,0.98,2.5,2.18
			c0,1.2-1.12,2.18-2.5,2.18h-4.94l-0.06,21.81h5c1.38,0,2.5,0.98,2.5,2.18c0,1.2-1.12,2.18-2.5,2.18h-14.94
			c-1.38,0-2.5-0.98-2.5-2.18c0-1.2,1.12-2.18,2.5-2.18h4.94L136.88,138.44z" />



	</g>
</g>
<rect y="205.86" class="st6" width="320" height="54" />



<text transform="matrix(1 0 0 1 11.0205 223.0234)"><tspan x="0" y="0" class="st7 st8 st9">Indtast attraktionens egne gæste- </tspan><tspan x="78.38" y="24" class="st7 st8 st9">og regnskabstal</tspan></text>
<rect x="480.1" y="205.86" class="st6" width="320" height="58" />



<text transform="matrix(1 0 0 1 562.8311 223.0229)"><tspan x="0" y="0" class="st7 st8 st9">Indsæt tallene fra </tspan><tspan x="-75.03" y="24" class="st7 st8 st9">gæsteundersøgelsens ABS-modul</tspan></text>
<rect x="959.15" y="205.86" class="st6" width="320" height="92.14" />



<text transform="matrix(1 0 0 1 964.0556 223.0229)"><tspan x="0" y="0" class="st7 st8 st9">Beregneren vil automatisk udregne </tspan><tspan x="0.01" y="24" class="st7 st8 st9">attraktionens økonomiske effekt og </tspan><tspan x="20.01" y="48" class="st7 st8 st9">grafisk rapport kan hentes ned</tspan></text>
<g>
<g>
<path class="st0" d="M535.02,46.71c-5.7,0-10.35,4.66-10.35,10.35v112.17c0,5.7,4.66,10.35,10.35,10.35h138.06
			c5.69,0,10.35-4.66,10.35-10.35V57.06c0-5.69-4.66-10.35-10.35-10.35H535.02z M535.02,50.16h138.06c3.8,0,6.9,3.11,6.9,6.9v9.84
			H528.11v-9.84C528.11,53.26,531.22,50.16,535.02,50.16z M536.05,56.2c-1.38,0-2.59,1.21-2.59,2.59c0,1.38,1.21,2.59,2.59,2.59
			s2.59-1.21,2.59-2.59C538.64,57.41,537.43,56.2,536.05,56.2z M545.37,56.2c-1.55,0-2.59,1.21-2.59,2.59
			c0,1.38,1.21,2.59,2.59,2.59c1.38,0,2.59-1.21,2.59-2.59C547.96,57.41,546.92,56.2,545.37,56.2z M554.69,56.2
			c-1.38,0-2.59,1.21-2.59,2.59c0,1.38,1.21,2.59,2.59,2.59s2.59-1.21,2.59-2.59C557.28,57.41,556.07,56.2,554.69,56.2z
			 M536.05,57.92c0.35,0,0.86,0.35,0.86,0.86c0,0.52-0.34,0.86-0.86,0.86c-0.52,0-0.86-0.35-0.86-0.86
			C535.19,58.27,535.53,57.92,536.05,57.92z M545.37,57.92c0.35,0,0.86,0.35,0.86,0.86c0,0.52-0.35,0.86-0.86,0.86
			c-0.52,0-0.86-0.35-0.86-0.86C544.51,58.27,544.85,57.92,545.37,57.92z M554.69,57.92c0.35,0,0.86,0.35,0.86,0.86
			c0,0.52-0.34,0.86-0.86,0.86c-0.52,0-0.86-0.35-0.86-0.86C553.83,58.27,554.17,57.92,554.69,57.92z M528.11,70.35h151.87v98.89
			c0,3.8-3.11,6.9-6.9,6.9H535.02c-3.8,0-6.9-3.11-6.9-6.9V70.35z" />



<path class="st1" d="M579.05,102.61c-0.86,0-1.57-0.7-1.57-1.57c0-0.86,0.7-1.57,1.57-1.57h84.08c0.86,0,1.57,0.7,1.57,1.57
			c0,0.86-0.7,1.57-1.57,1.57H579.05z M579.05,91.65c-0.86,0-1.57-0.7-1.57-1.57c0-0.86,0.7-1.57,1.57-1.57h84.08
			c0.86,0,1.57,0.7,1.57,1.57c0,0.86-0.7,1.57-1.57,1.57H579.05z M579.05,113.57c-0.86,0-1.57-0.7-1.57-1.57
			c0-0.86,0.7-1.57,1.57-1.57h65.29c0.86,0,1.57,0.7,1.57,1.57c0,0.86-0.7,1.57-1.57,1.57H579.05z" />



<path class="st1" d="M579.05,142.3c-0.86,0-1.57-0.7-1.57-1.57c0-0.86,0.7-1.57,1.57-1.57h84.08c0.86,0,1.57,0.7,1.57,1.57
			c0,0.86-0.7,1.57-1.57,1.57H579.05z M579.05,131.34c-0.86,0-1.57-0.7-1.57-1.57s0.7-1.57,1.57-1.57h84.08
			c0.86,0,1.57,0.7,1.57,1.57s-0.7,1.57-1.57,1.57H579.05z M579.05,153.26c-0.86,0-1.57-0.7-1.57-1.57c0-0.86,0.7-1.57,1.57-1.57
			h65.29c0.86,0,1.57,0.7,1.57,1.57c0,0.86-0.7,1.57-1.57,1.57H579.05z" />



<path class="st1" d="M566.48,156.71h-24.8c-0.86,0-1.55-0.69-1.55-1.55v-24.8c0-0.86,0.69-1.55,1.55-1.55h24.8
			c0.86,0,1.55,0.69,1.55,1.55v24.8C568.03,156.02,567.34,156.71,566.48,156.71z M564.93,131.91h-21.7v21.7h21.7V131.91z
			 M566.48,116.41h-24.8c-0.86,0-1.55-0.69-1.55-1.55v-24.8c0-0.86,0.69-1.55,1.55-1.55h24.8c0.86,0,1.55,0.69,1.55,1.55v24.8
			C568.03,115.72,567.34,116.41,566.48,116.41z M564.93,113.31v-21.7h-21.7v21.7H564.93z M550.53,101.37l2,2l5.1-5.1
			c0.61-0.61,1.59-0.61,2.19,0c0.61,0.61,0.61,1.59,0,2.19l-6.2,6.2c-0.61,0.61-1.59,0.61-2.19,0l-3.1-3.1
			c-0.61-0.61-0.61-1.59,0-2.19C548.94,100.76,549.92,100.76,550.53,101.37z" />



	</g>
<g>
<path class="st3" d="M717.41,90.69H696.7c-0.74,0-1.24,0.5-1.24,1.24v20.71c0,0.74,0.5,1.24,1.24,1.24h20.71
			c0.74,0,1.24-0.5,1.24-1.24V91.93C718.65,91.19,718.15,90.69,717.41,90.69z M716.17,111.4h-18.23V93.17h18.23V111.4z" />



<path class="st3" d="M717.41,146.87H696.7c-0.74,0-1.24,0.5-1.24,1.24v20.71c0,0.74,0.5,1.24,1.24,1.24h20.71
			c0.74,0,1.24-0.5,1.24-1.24v-20.71C718.65,147.49,718.15,146.87,717.41,146.87z M716.17,167.58h-18.23v-18.23h18.23V167.58z" />



<path class="st3" d="M717.41,118.84H696.7c-0.74,0-1.24,0.5-1.24,1.24v20.71c0,0.74,0.5,1.24,1.24,1.24h20.71
			c0.74,0,1.24-0.5,1.24-1.24v-20.71C718.65,119.34,718.15,118.84,717.41,118.84z M716.17,139.43h-18.23v-18.11h18.23V139.43z" />



<path class="st3" d="M704.88,162.37c0.25,0.25,0.62,0.37,0.87,0.37c0.25,0,0.62-0.12,0.87-0.37l5.95-5.95c0.5-0.5,0.5-1.24,0-1.74
			c-0.5-0.5-1.24-0.5-1.74,0l-5.08,4.96l-2.36-2.36c-0.5-0.5-1.24-0.5-1.74,0c-0.5,0.5-0.5,1.24,0,1.74L704.88,162.37z" />



<path class="st3" d="M704.88,106.07c0.25,0.25,0.62,0.37,0.87,0.37c0.25,0,0.62-0.12,0.87-0.37l5.95-5.95c0.5-0.5,0.5-1.24,0-1.74
			c-0.5-0.5-1.24-0.5-1.74,0l-5.08,5.08l-2.36-2.36c-0.5-0.5-1.24-0.5-1.74,0c-0.5,0.5-0.5,1.24,0,1.74L704.88,106.07z" />



<path class="st3" d="M702.65,134.84c0.5,0.5,1.24,0.5,1.74,0l2.73-2.73l2.73,2.73c0.5,0.5,1.24,0.5,1.74,0s0.5-1.24,0-1.74
			l-2.73-2.73l2.73-2.73c0.5-0.5,0.5-1.24,0-1.74s-1.24-0.5-1.74,0l-2.73,2.73l-2.73-2.73c-0.5-0.5-1.24-0.5-1.74,0
			c-0.5,0.5-0.5,1.24,0,1.74l2.73,2.73l-2.73,2.73C702.15,133.6,702.15,134.34,702.65,134.84z" />



<path class="st3" d="M727.08,106.07c0,24.93-0.12,42.78,0.12,40.92l6.82,13.27c0.25,0.37,0.62,0.62,1.12,0.62l0,0
			c0.5,0,0.87-0.25,1.12-0.62c3.35-6.45,7.56-14.39,6.94-13.89c0-38.82,0-30.26,0-40.3C743.2,100.86,727.08,100.99,727.08,106.07z
			 M738.61,150.34c-2.23-0.74-4.59-0.74-6.82,0l-2.11-3.97c1.61-1.49,9.42-1.49,11.04,0L738.61,150.34z M729.56,113.63
			c0-0.12,0.25-0.5,1.24-0.87c3.97-1.36,9.8-0.12,9.92,0.74v30.01c-2.85-1.12-8.18-1.24-11.16,0
			C729.56,143.52,729.56,113.76,729.56,113.63z M740.84,106.07v4.59c-2.98-1.24-8.31-1.24-11.16,0v-4.59
			C729.56,104.33,740.84,104.33,740.84,106.07z M735.14,157.04l-2.23-4.46c1.49-0.37,3.1-0.37,4.59,0L735.14,157.04z" />



	</g>
<g>
<rect x="699.84" y="33.74" class="st2" width="9.71" height="2.24" />



<rect x="699.84" y="24.15" class="st2" width="9.71" height="2.24" />



<rect x="699.84" y="43.92" class="st2" width="12.82" height="2.24" />



<rect x="699.84" y="52.98" class="st2" width="8.12" height="2.24" />



<rect x="699.84" y="62.86" class="st2" width="11.06" height="2.24" />



<rect x="699.84" y="72.21" class="st2" width="9.71" height="2.24" />



<path class="st2" d="M695.19,19.97v9.53v1.18v8.41v1.18v8.41v1.18v8.41v1.18v8.41v1.18v9.77h58.83V69.1v-1.18v-8.41v-1.18v-8.47
			v-1.18v-8.41v-1.18v-8.41V29.5v-9.53H695.19z M720.9,67.92v-8.41h15.59v8.41H720.9z M736.43,69.1v8.53H720.9V69.1H736.43z
			 M720.9,58.33v-8.47h15.59v8.41H720.9V58.33z M720.9,48.68v-8.41h15.59v8.41H720.9z M720.9,39.09v-8.41h15.59v8.41H720.9z
			 M720.9,29.5v-8.35h15.59v8.35H720.9z M696.37,21.15h23.3v8.35h-23.3V21.15z M696.37,30.68h23.3v8.41h-23.3V30.68z M696.37,40.27
			h23.3v8.41h-23.3V40.27z M696.37,49.86h23.3v8.41h-23.3V49.86z M696.37,59.51h23.3v8.41h-23.3V59.51z M696.37,69.1h23.3v8.53
			h-23.3V69.1z M752.84,77.63h-15.24V69.1h15.24V77.63z M752.84,67.92h-15.24v-8.41h15.24V67.92z M752.84,58.33h-15.24v-8.47h15.24
			V58.33z M752.84,48.68h-15.24v-8.41h15.24V48.68z M752.84,39.09h-15.24v-8.41h15.24V39.09z M737.61,29.5v-8.35h15.24v8.35H737.61z
			" />



<path class="st2" d="M730.67,32.56l0.82,0.65c0.06,0,0.06,0.06,0,0.12l-3.35,3.88h-0.06h-0.06l-2.24-1.82
			c-0.06,0-0.06-0.06,0-0.12l0.71-0.82c0-0.06,0.06-0.06,0.12,0l1.35,1.12l2.65-3C730.61,32.5,730.67,32.5,730.67,32.56" />



<path class="st2" d="M747.43,22.92l0.82,0.65c0.06,0,0.06,0.06,0,0.12l-3.35,3.94h-0.06h-0.06l-2.24-1.82
			c-0.06,0-0.06-0.06,0-0.12l0.71-0.82c0-0.06,0.06-0.06,0.12,0l1.35,1.12l2.65-3C747.37,22.92,747.37,22.92,747.43,22.92" />



<path class="st2" d="M747.43,42.15l0.82,0.65c0.06,0,0.06,0.06,0,0.12l-3.35,3.88h-0.06h-0.06l-2.24-1.82
			c-0.06,0-0.06-0.06,0-0.12l0.71-0.82c0-0.06,0.06-0.06,0.12,0l1.35,1.12l2.65-3C747.37,42.15,747.37,42.15,747.43,42.15" />



<path class="st2" d="M730.67,70.98l0.82,0.65c0.06,0,0.06,0.06,0,0.12l-3.35,3.88h-0.06h-0.06l-2.24-1.82
			c-0.06,0-0.06-0.06,0-0.12l0.71-0.82c0-0.06,0.06-0.06,0.12,0l1.35,1.12l2.65-3H730.67" />



<path class="st2" d="M747.37,51.74l0.82,0.65c0.06,0,0.06,0.06,0,0.12l-3.35,3.88h-0.06h-0.06l-2.24-1.82
			c-0.06,0-0.06-0.06,0-0.12l0.71-0.82c0-0.06,0.06-0.06,0.12,0l1.35,1.12l2.65-3C747.31,51.68,747.37,51.68,747.37,51.74" />



<path class="st2" d="M747.43,61.39l0.82,0.65c0.06,0,0.06,0.06,0,0.12l-3.35,3.88h-0.06h-0.06l-2.24-1.82
			c-0.06,0-0.06-0.06,0-0.12l0.71-0.82c0-0.06,0.06-0.06,0.12,0l1.35,1.12l2.65-3C747.37,61.33,747.37,61.33,747.43,61.39" />



	</g>
<path class="st4" d="M654.93,35.54c0,2.39-1.93,4.32-4.32,4.32c-2.39,0-4.32-1.93-4.32-4.32c0-2.39,1.94-4.32,4.32-4.32
		C652.99,31.21,654.93,33.15,654.93,35.54z" />



<path class="st3" d="M687.64,16.74c0,1.16-0.94,2.1-2.1,2.1c-1.16,0-2.1-0.94-2.1-2.1c0-1.16,0.94-2.1,2.1-2.1
		C686.71,14.64,687.64,15.58,687.64,16.74z" />



<path class="st3" d="M731.04,86.48c0,1.16-0.94,2.1-2.1,2.1c-1.16,0-2.1-0.94-2.1-2.1c0-1.16,0.94-2.1,2.1-2.1
		C730.1,84.38,731.04,85.32,731.04,86.48z" />



<g>
<path class="st3" d="M622.35,21.46c0-0.51-0.42-0.93-0.93-0.93c-0.51,0-0.93,0.42-0.93,0.93v2.94c0,0.51,0.41,0.93,0.93,0.93
			c0.51,0,0.93-0.41,0.93-0.93V21.46z" />



<path class="st3" d="M621.42,28.17c-0.51,0-0.93,0.41-0.93,0.93v2.94c0,0.51,0.41,0.93,0.93,0.93c0.51,0,0.93-0.42,0.93-0.93V29.1
			C622.35,28.58,621.93,28.17,621.42,28.17z" />



<path class="st3" d="M626.7,25.82h-2.94c-0.51,0-0.93,0.42-0.93,0.93c0,0.51,0.42,0.93,0.93,0.93h2.94c0.51,0,0.93-0.41,0.93-0.93
			C627.63,26.24,627.22,25.82,626.7,25.82z" />



<path class="st3" d="M619.07,25.82h-2.94c-0.51,0-0.93,0.42-0.93,0.93c0,0.51,0.41,0.93,0.93,0.93h2.94
			c0.51,0,0.93-0.41,0.93-0.93C620,26.24,619.59,25.82,619.07,25.82z" />



	</g>
<g>
<path class="st3" d="M668.75,10.61c0-0.51-0.37-0.93-0.83-0.93c-0.46,0-0.84,0.42-0.84,0.93v2.94c0,0.51,0.37,0.93,0.84,0.93
			c0.46,0,0.83-0.41,0.83-0.93V10.61z" />



<path class="st3" d="M667.92,17.32c-0.46,0-0.84,0.41-0.84,0.93v2.94c0,0.51,0.37,0.93,0.84,0.93c0.46,0,0.83-0.41,0.83-0.93
			v-2.94C668.75,17.73,668.38,17.32,667.92,17.32z" />



<path class="st3" d="M672.68,14.97h-2.65c-0.46,0-0.84,0.42-0.84,0.93c0,0.51,0.37,0.93,0.84,0.93h2.65
			c0.46,0,0.84-0.41,0.84-0.93C673.51,15.39,673.14,14.97,672.68,14.97z" />



<path class="st3" d="M665.8,14.97h-2.65c-0.46,0-0.84,0.42-0.84,0.93c0,0.51,0.37,0.93,0.84,0.93h2.65c0.46,0,0.84-0.41,0.84-0.93
			C666.64,15.39,666.26,14.97,665.8,14.97z" />



	</g>
<g>
<path class="st3" d="M750.9,89.66c0-0.51-0.37-0.93-0.83-0.93c-0.46,0-0.84,0.42-0.84,0.93v2.94c0,0.51,0.37,0.93,0.84,0.93
			c0.46,0,0.83-0.41,0.83-0.93V89.66z" />



<path class="st3" d="M750.06,96.36c-0.46,0-0.84,0.41-0.84,0.93v2.94c0,0.51,0.37,0.93,0.84,0.93c0.46,0,0.83-0.41,0.83-0.93
			v-2.94C750.9,96.78,750.52,96.36,750.06,96.36z" />



<path class="st3" d="M754.83,94.02h-2.65c-0.46,0-0.84,0.42-0.84,0.93c0,0.51,0.37,0.93,0.84,0.93h2.65
			c0.46,0,0.84-0.41,0.84-0.93C755.66,94.43,755.29,94.02,754.83,94.02z" />



<path class="st3" d="M747.95,94.02h-2.65c-0.46,0-0.84,0.42-0.84,0.93c0,0.51,0.37,0.93,0.84,0.93h2.65
			c0.46,0,0.84-0.41,0.84-0.93C748.78,94.43,748.41,94.02,747.95,94.02z" />



	</g>
<path class="st5" d="M753.85,118.26c0,1.21-0.98,2.19-2.19,2.19s-2.19-0.98-2.19-2.19c0-1.21,0.98-2.19,2.19-2.19
		S753.85,117.05,753.85,118.26z" />



</g>
<g>
<g>
<path class="st0" d="M1105.76,71.14h-71.93c-8.13,0-14.71,6.59-14.71,14.71v71.94c0,8.13,6.59,14.71,14.71,14.71h35.96h0h0h35.96
			c8.13,0,14.71-6.59,14.71-14.71v-35.97l0,0l0,0V85.85C1120.47,77.73,1113.89,71.14,1105.76,71.14z M1113.85,77.76
			c2.07,2.08,3.35,4.93,3.35,8.09v34.33h-45.78V74.41h34.33C1108.92,74.41,1111.78,75.69,1113.85,77.76z M1025.73,77.76
			c2.08-2.07,4.93-3.35,8.09-3.35h34.33v45.78h-45.78V85.85C1022.38,82.69,1023.66,79.84,1025.73,77.76z M1025.73,165.88
			c-2.07-2.08-3.35-4.93-3.35-8.09v-34.33h45.78v45.78h-34.33C1030.66,169.23,1027.81,167.95,1025.73,165.88z M1113.85,165.88
			c-2.08,2.07-4.93,3.35-8.09,3.35h-34.33v-45.78h45.78v34.33C1117.2,160.95,1115.92,163.8,1113.85,165.88z" />



<path class="st0" d="M1035.94,106.63c0.64,0.64,1.67,0.64,2.31,0l7.02-7.02l7.02,7.02c0.64,0.64,1.67,0.64,2.31,0
			c0.64-0.64,0.64-1.67,0-2.31l-7.02-7.02l7.02-7.02c0.64-0.64,0.64-1.67,0-2.31c-0.64-0.64-1.67-0.64-2.31,0l-7.02,7.02l-7.02-7.02
			c-0.64-0.64-1.67-0.64-2.31,0c-0.64,0.64-0.64,1.67,0,2.31l7.02,7.02l-7.02,7.02C1035.3,104.95,1035.3,105.99,1035.94,106.63z" />



<path class="st0" d="M1055.08,144.71h-8.17v-8.17c0-0.9-0.73-1.64-1.64-1.64c-0.9,0-1.64,0.73-1.64,1.64v8.17h-8.17
			c-0.9,0-1.64,0.73-1.64,1.64c0,0.9,0.73,1.64,1.64,1.64h8.17v8.17c0,0.9,0.73,1.64,1.64,1.64c0.9,0,1.64-0.73,1.64-1.64v-8.17
			h8.17c0.9,0,1.64-0.73,1.64-1.64C1056.71,145.44,1055.98,144.71,1055.08,144.71z" />



<path class="st0" d="M1086.14,98.93h16.35c0.9,0,1.64-0.73,1.64-1.64s-0.73-1.64-1.64-1.64h-16.35c-0.9,0-1.64,0.73-1.64,1.64
			S1085.24,98.93,1086.14,98.93z" />



<path class="st0" d="M1102.49,137.49h-16.35c-0.9,0-1.64,0.73-1.64,1.64s0.73,1.64,1.64,1.64h16.35c0.9,0,1.64-0.73,1.64-1.64
			S1103.39,137.49,1102.49,137.49z" />



<path class="st0" d="M1102.49,151.93h-16.35c-0.9,0-1.64,0.73-1.64,1.64c0,0.9,0.73,1.64,1.64,1.64h16.35
			c0.9,0,1.64-0.73,1.64-1.64C1104.12,152.66,1103.39,151.93,1102.49,151.93z" />



	</g>
<g transform="translate(0,-962.3622)">
<path class="st3" d="M1104.8,994.21c-3.93,0-7.1,3.17-7.1,7.1s3.17,7.1,7.1,7.1c3.93,0,7.1-3.17,7.1-7.1
			S1108.73,994.21,1104.8,994.21z M1104.8,994.69c3.67,0,6.62,2.95,6.62,6.62s-2.95,6.62-6.62,6.62c-3.67,0-6.62-2.95-6.62-6.62
			S1101.13,994.69,1104.8,994.69z" />



<path class="st10" d="M1101.37,995.13v4.97H1098v0.47h3.84v-5.44H1101.37z" />



<path class="st10" d="M1103.33,994.42v6.15h8.31v-0.47h-7.84v-5.68H1103.33z" />



<path class="st10" d="M1097.97,1002.05v0.47h3.4v4.94h0.47v-5.41H1097.97z" />



<path class="st10" d="M1103.33,1002.05v6.06h0.47v-5.59h7.87v-0.47H1103.33z" />



<path class="st3" d="M1104.8,990.28c-6.04,0-10.94,4.91-10.94,10.97c0,1.55,0.68,3.82,1.69,6.38c1.01,2.57,2.35,5.42,3.69,8.09
			c2.68,5.34,5.36,9.93,5.36,9.93c0.07,0.11,0.21,0.15,0.32,0.08c0.04-0.02,0.06-0.05,0.08-0.08c0,0,2.68-4.6,5.36-9.93
			c1.34-2.67,2.68-5.52,3.69-8.09c1.01-2.57,1.69-4.83,1.69-6.38C1115.75,995.19,1110.85,990.28,1104.8,990.28z M1104.8,990.75
			c5.78,0,10.47,4.69,10.47,10.49c0,1.41-0.66,3.66-1.66,6.21c-1,2.54-2.33,5.39-3.67,8.05c-2.51,5-4.84,9.03-5.14,9.54
			c-0.3-0.51-2.63-4.55-5.14-9.54c-1.34-2.66-2.67-5.51-3.67-8.05c-1-2.54-1.66-4.8-1.66-6.21
			C1094.34,995.45,1099.02,990.75,1104.8,990.75z" />



	</g>
<g>
<path class="st3" d="M1157.74,1c-0.21-0.01-0.4,0.06-0.55,0.2c-0.15,0.14-0.23,0.33-0.23,0.53v10.28c0,0.37,0.28,0.69,0.66,0.73
			c6.72,0.72,11.78,6.36,11.78,13.13c0,1.64-0.31,3.26-0.92,4.82c-0.12,0.31-0.02,0.66,0.24,0.85c0.13,0.1,0.29,0.15,0.44,0.15
			c0.16,0,0.31-0.05,0.44-0.15l11.01-8.29c0.21-0.16,0.32-0.42,0.29-0.68c-0.22-1.65-0.62-3.25-1.14-4.78
			c-0.01-0.06-0.03-0.12-0.07-0.18c-2.81-8-9.56-14.09-17.87-16.01c-0.09-0.04-0.19-0.06-0.29-0.06
			C1160.29,1.28,1159.03,1.08,1157.74,1z M1154.71,2.47c-7.52,0.47-14.4,4.57-18.42,10.98c-0.11,0.17-0.14,0.38-0.09,0.57
			c0.05,0.19,0.17,0.36,0.34,0.46l6.36,3.67c0.12,0.07,0.24,0.1,0.37,0.1c0.24,0,0.48-0.12,0.62-0.34c2.47-3.8,6.45-6.22,10.94-6.64
			c0.38-0.04,0.66-0.35,0.66-0.73V3.2c0-0.2-0.08-0.4-0.23-0.53C1155.11,2.53,1154.91,2.47,1154.71,2.47z M1158.42,2.53
			c0.54,0.05,1.07,0.13,1.6,0.22l-1.6,1.6V2.53z M1161.75,3.1c0.55,0.13,1.08,0.29,1.61,0.46l-4.94,4.94V6.43L1161.75,3.1z
			 M1154.02,4v5.89c-4.44,0.59-8.38,2.98-10.98,6.65l-5.09-2.94C1141.61,8.17,1147.53,4.64,1154.02,4z M1164.88,4.11
			c0.49,0.2,0.97,0.4,1.45,0.63l-6.84,6.84c-0.35-0.08-0.7-0.16-1.07-0.21v-0.8L1164.88,4.11z M1167.7,5.45
			c0.44,0.25,0.86,0.52,1.28,0.79l-6.42,6.42c-0.47-0.23-0.96-0.44-1.46-0.62L1167.7,5.45z M1170.2,7.1
			c0.39,0.29,0.77,0.59,1.13,0.9l-6.23,6.23c-0.39-0.29-0.79-0.57-1.2-0.83L1170.2,7.1z M1172.43,8.97
			c0.35,0.34,0.69,0.69,1.02,1.05l-6.2,6.2c-0.32-0.37-0.67-0.72-1.02-1.05L1172.43,8.97z M1174.41,11.14
			c0.32,0.39,0.62,0.79,0.91,1.21l-6.34,6.34c-0.25-0.45-0.52-0.89-0.81-1.3L1174.41,11.14z M1176.15,13.59
			c0.27,0.43,0.53,0.86,0.77,1.31l-6.7,6.7c-0.16-0.52-0.34-1.02-0.56-1.52L1176.15,13.59z M1135.61,15.7c-0.1-0.01-0.2,0-0.3,0.03
			c-0.2,0.06-0.36,0.2-0.44,0.39c-1.42,3.1-2.15,6.38-2.15,9.75c0,6.08,2.33,11.85,6.56,16.24c0.14,0.15,0.34,0.22,0.53,0.22
			c0.15,0,0.31-0.05,0.44-0.15l5.92-4.46c0.17-0.13,0.28-0.33,0.29-0.55c0.01-0.22-0.07-0.43-0.23-0.58
			c-3.03-2.82-4.71-6.63-4.71-10.74c0-1.88,0.36-3.73,1.07-5.49c0.14-0.34,0-0.73-0.32-0.91l-6.38-3.68
			C1135.81,15.74,1135.71,15.71,1135.61,15.7z M1177.59,16.3c0.22,0.49,0.41,0.98,0.6,1.48l-7.36,7.36
			c-0.03-0.64-0.09-1.26-0.2-1.88L1177.59,16.3z M1135.87,17.48l5.13,2.96c-0.63,1.75-0.95,3.58-0.95,5.44
			c0,4.17,1.65,8.21,4.55,11.21l-4.71,3.55c-3.68-4.05-5.71-9.27-5.71-14.75C1134.18,22.98,1134.75,20.16,1135.87,17.48z
			 M1178.7,19.35c0.28,0.98,0.52,1.97,0.68,3l-8.86,6.67c0.13-0.58,0.22-1.17,0.27-1.76L1178.7,19.35z M1185.11,19.49
			c-0.41-0.06-0.77,0.23-0.83,0.63c-0.05,0.4,0.23,0.77,0.63,0.82l2.41,0.32l-30.99,23.05l-5.3-6.39c-0.25-0.3-0.7-0.35-1.01-0.11
			l-25.8,19.59c-0.32,0.24-0.39,0.7-0.14,1.03c0.14,0.19,0.36,0.29,0.58,0.29c0.15,0,0.31-0.05,0.44-0.15l25.24-19.16l5.29,6.38
			c0.25,0.3,0.69,0.35,1,0.12l31.79-23.64l-0.37,2.8c-0.05,0.4,0.23,0.77,0.63,0.83c0.03,0,0.06,0.01,0.09,0.01
			c0.36,0,0.68-0.27,0.73-0.64l0.57-4.36c0.05-0.4-0.23-0.77-0.63-0.83L1185.11,19.49z M1184.77,28.18
			c-0.13,0.01-0.26,0.06-0.38,0.14l-8.8,6.54c-0.19,0.14-0.3,0.36-0.3,0.59V73.6c0,0.4,0.33,0.73,0.73,0.73h8.8
			c0.4,0,0.73-0.33,0.73-0.73V28.91c0-0.28-0.16-0.53-0.4-0.65C1185.04,28.2,1184.9,28.17,1184.77,28.18z M1184.1,30.37v42.49h-7.34
			V35.83L1184.1,30.37z M1168.63,40.18c-0.13,0.01-0.26,0.06-0.38,0.14l-8.8,6.55c-0.19,0.14-0.3,0.36-0.3,0.59V73.6
			c0,0.4,0.33,0.73,0.73,0.73h8.8c0.4,0,0.73-0.33,0.73-0.73V40.92c0-0.28-0.16-0.53-0.4-0.66
			C1168.9,40.2,1168.76,40.17,1168.63,40.18z M1167.96,42.37v30.49h-7.34V47.83L1167.96,42.37z M1150.21,42.79
			c-0.18-0.02-0.37,0.03-0.53,0.15l-6.37,4.85c-0.18,0.14-0.29,0.36-0.29,0.58V73.6c0,0.41,0.33,0.73,0.73,0.73h8.8
			c0.41,0,0.73-0.33,0.73-0.73V46.45c0-0.17-0.06-0.34-0.17-0.47l-2.43-2.93C1150.56,42.9,1150.39,42.81,1150.21,42.79z
			 M1150.01,44.53l1.81,2.19v26.15h-7.34V48.74L1150.01,44.53z M1136.35,53.21c-0.13,0.01-0.26,0.06-0.38,0.15l-8.8,6.69
			c-0.18,0.14-0.29,0.35-0.29,0.58V73.6c0,0.4,0.33,0.73,0.73,0.73h8.8c0.4,0,0.73-0.33,0.73-0.73V53.94c0-0.28-0.16-0.53-0.41-0.66
			C1136.62,53.23,1136.48,53.2,1136.35,53.21z M1135.68,55.42v17.44h-7.34V60.99L1135.68,55.42z" />



<path class="st3" d="M1157.17,32.32c-1.71,0.45-3.24-0.84-3.24-2.47h-1.45c0,1.96,1.42,3.6,3.28,3.94v2.9h1.45v-2.9
			c2.41-0.44,4.08-3.05,2.9-5.72c-0.63-1.44-2.16-2.17-3.73-2.23c-1.59-0.07-2.81-1.58-2.36-3.26c0.23-0.85,0.92-1.54,1.77-1.77
			c1.71-0.45,3.25,0.83,3.25,2.47h1.45c0-1.96-1.42-3.6-3.28-3.94v-2.86h-1.45v2.86c-2.41,0.44-4.08,3.04-2.9,5.72
			c0.63,1.44,2.16,2.17,3.73,2.23c1.59,0.07,2.81,1.59,2.36,3.26C1158.72,31.41,1158.02,32.1,1157.17,32.32z" />



	</g>
<g>
<path class="st3" d="M1209.93,57.63c0-3.56-2.9-6.46-6.46-6.46c-3.56,0-6.46,2.9-6.46,6.46c0,0.51,0.06,1.02,0.2,1.54
			c0.17,0.83,0.48,1.34,0.91,2.05c0.09,0.17,0.2,0.34,0.31,0.54c0.14,0.23,0.26,0.46,0.4,0.65c0.57,0.94,0.91,1.48,0.91,2.59v2.68
			c0,0.68,0.48,1.22,1.14,1.34c0.28,1.45,1.14,2.36,2.59,2.36c1.45,0,2.33-0.91,2.59-2.36c0.65-0.11,1.14-0.68,1.14-1.34V65
			c0-1.11,0.34-1.68,0.91-2.59c0.11-0.2,0.26-0.43,0.4-0.65c0.11-0.2,0.23-0.37,0.31-0.54c0.43-0.71,0.74-1.22,0.91-2.05
			C1209.87,58.65,1209.93,58.14,1209.93,57.63z M1206.09,65.68h-5.18v-0.65c0-0.14,0-0.26-0.03-0.37h5.21
			c0,0.11-0.03,0.23-0.03,0.37v0.65H1206.09z M1205.83,67.93h-4.72c-0.14,0-0.23-0.11-0.23-0.23v-0.88h5.18v0.88
			C1206.09,67.82,1205.97,67.93,1205.83,67.93z M1203.47,70.26c-0.31,0-1.11,0-1.42-1.2h2.87
			C1204.61,70.26,1203.78,70.26,1203.47,70.26z M1208.62,58.94c-0.14,0.63-0.37,1.05-0.77,1.71c-0.11,0.17-0.2,0.34-0.31,0.54
			c-0.14,0.23-0.26,0.46-0.37,0.63c-0.34,0.57-0.65,1.08-0.85,1.68h-5.64c-0.2-0.6-0.48-1.11-0.85-1.68
			c-0.11-0.2-0.26-0.4-0.37-0.63c-0.11-0.2-0.23-0.4-0.31-0.54c-0.4-0.68-0.63-1.08-0.77-1.74c-0.11-0.43-0.17-0.85-0.17-1.28
			c0-2.93,2.39-5.32,5.32-5.32c2.93,0,5.32,2.39,5.32,5.32C1208.79,58.05,1208.73,58.48,1208.62,58.94z" />



<path class="st3" d="M1215.2,57.06h-2.36c-0.31,0-0.57,0.26-0.57,0.57c0,0.31,0.26,0.57,0.57,0.57h2.36
			c0.31,0,0.57-0.26,0.57-0.57C1215.76,57.31,1215.51,57.06,1215.2,57.06z" />



<path class="st3" d="M1210.07,51.59c0.14,0,0.28-0.06,0.4-0.17l1.68-1.68c0.23-0.23,0.23-0.57,0-0.8c-0.23-0.23-0.57-0.23-0.8,0
			l-1.68,1.68c-0.23,0.23-0.23,0.57,0,0.8C1209.79,51.54,1209.93,51.59,1210.07,51.59z" />



<path class="st3" d="M1203.47,48.83c0.31,0,0.57-0.26,0.57-0.57V45.9c0-0.31-0.26-0.57-0.57-0.57c-0.31,0-0.57,0.26-0.57,0.57
			v2.36C1202.9,48.58,1203.16,48.83,1203.47,48.83z" />



<path class="st3" d="M1196.47,51.42c0.11,0.11,0.26,0.17,0.4,0.17c0.14,0,0.28-0.06,0.4-0.17c0.23-0.23,0.23-0.57,0-0.8
			l-1.68-1.68c-0.23-0.23-0.57-0.23-0.8,0c-0.23,0.23-0.23,0.57,0,0.8L1196.47,51.42z" />



<path class="st3" d="M1194.13,57.06h-2.36c-0.31,0-0.57,0.26-0.57,0.57c0,0.31,0.26,0.57,0.57,0.57h2.36
			c0.31,0,0.57-0.26,0.57-0.57C1194.7,57.31,1194.45,57.06,1194.13,57.06z" />



<path class="st3" d="M1196.47,63.83l-1.68,1.68c-0.23,0.23-0.23,0.57,0,0.8c0.11,0.11,0.26,0.17,0.4,0.17s0.28-0.06,0.4-0.17
			l1.68-1.68c0.23-0.23,0.23-0.57,0-0.8C1197.04,63.6,1196.67,63.6,1196.47,63.83z" />



<path class="st3" d="M1210.47,63.83c-0.23-0.23-0.57-0.23-0.8,0c-0.23,0.23-0.23,0.57,0,0.8l1.68,1.68
			c0.11,0.11,0.26,0.17,0.4,0.17c0.14,0,0.28-0.06,0.4-0.17c0.23-0.23,0.23-0.57,0-0.8L1210.47,63.83z" />



	</g>
<path class="st4" d="M1074.36,62.88c0,2.22-1.8,4.03-4.03,4.03c-2.22,0-4.03-1.8-4.03-4.03c0-2.23,1.8-4.03,4.03-4.03
		C1072.56,58.85,1074.36,60.65,1074.36,62.88z" />



<path class="st4" d="M1009.45,98.87c0,1.59-1.28,2.87-2.87,2.87c-1.59,0-2.87-1.28-2.87-2.87c0-1.59,1.29-2.87,2.87-2.87
		C1008.17,95.99,1009.45,97.28,1009.45,98.87z" />



<path class="st3" d="M1125.43,26.36c0,1.08-0.87,1.95-1.95,1.95c-1.08,0-1.95-0.87-1.95-1.95c0-1.08,0.87-1.95,1.95-1.95
		C1124.56,24.4,1125.43,25.28,1125.43,26.36z" />



<g>
<path class="st3" d="M1044,54.51c0-0.48-0.39-0.86-0.86-0.86c-0.48,0-0.86,0.39-0.86,0.86v2.74c0,0.48,0.39,0.86,0.86,0.86
			c0.48,0,0.86-0.39,0.86-0.86V54.51z" />



<path class="st3" d="M1043.14,60.76c-0.48,0-0.86,0.39-0.86,0.86v2.74c0,0.48,0.39,0.86,0.86,0.86c0.48,0,0.86-0.39,0.86-0.86
			v-2.74C1044,61.15,1043.62,60.76,1043.14,60.76z" />



<path class="st3" d="M1048.06,58.57h-2.74c-0.48,0-0.86,0.39-0.86,0.86c0,0.48,0.39,0.86,0.86,0.86h2.74
			c0.48,0,0.86-0.39,0.86-0.86C1048.93,58.96,1048.54,58.57,1048.06,58.57z" />



<path class="st3" d="M1040.95,58.57h-2.74c-0.48,0-0.86,0.39-0.86,0.86c0,0.48,0.39,0.86,0.86,0.86h2.74
			c0.48,0,0.86-0.39,0.86-0.86C1041.82,58.96,1041.43,58.57,1040.95,58.57z" />



	</g>
<g>
<path class="st3" d="M1219.74,90.93c0-0.48-0.39-0.86-0.86-0.86c-0.48,0-0.86,0.39-0.86,0.86v2.74c0,0.48,0.39,0.86,0.86,0.86
			c0.48,0,0.86-0.39,0.86-0.86V90.93z" />



<path class="st3" d="M1218.88,97.17c-0.48,0-0.86,0.39-0.86,0.86v2.74c0,0.48,0.39,0.86,0.86,0.86c0.48,0,0.86-0.39,0.86-0.86
			v-2.74C1219.74,97.56,1219.36,97.17,1218.88,97.17z" />



<path class="st3" d="M1223.8,94.99h-2.74c-0.48,0-0.86,0.39-0.86,0.86c0,0.48,0.39,0.86,0.86,0.86h2.74
			c0.48,0,0.86-0.39,0.86-0.86C1224.67,95.38,1224.28,94.99,1223.8,94.99z" />



<path class="st3" d="M1216.69,94.99h-2.74c-0.48,0-0.86,0.39-0.86,0.86c0,0.48,0.39,0.86,0.86,0.86h2.74
			c0.48,0,0.86-0.39,0.86-0.86C1217.56,95.38,1217.17,94.99,1216.69,94.99z" />



	</g>
<g>
<path class="st3" d="M999.67,117.84c0-0.48-0.39-0.86-0.86-0.86c-0.48,0-0.86,0.39-0.86,0.86v2.74c0,0.48,0.39,0.86,0.86,0.86
			c0.48,0,0.86-0.39,0.86-0.86V117.84z" />



<path class="st3" d="M998.81,124.09c-0.48,0-0.86,0.39-0.86,0.86v2.74c0,0.48,0.39,0.86,0.86,0.86c0.48,0,0.86-0.39,0.86-0.86
			v-2.74C999.67,124.48,999.29,124.09,998.81,124.09z" />



<path class="st3" d="M1003.73,121.9H1001c-0.48,0-0.86,0.39-0.86,0.86c0,0.48,0.39,0.86,0.86,0.86h2.74
			c0.48,0,0.86-0.39,0.86-0.86C1004.6,122.29,1004.21,121.9,1003.73,121.9z" />



<path class="st3" d="M996.62,121.9h-2.74c-0.48,0-0.86,0.39-0.86,0.86c0,0.48,0.39,0.86,0.86,0.86h2.74
			c0.48,0,0.86-0.39,0.86-0.86C997.49,122.29,997.1,121.9,996.62,121.9z" />



	</g>
<g>
<path class="st3" d="M1087.25,44.4c0-0.48-0.35-0.86-0.78-0.86c-0.43,0-0.78,0.39-0.78,0.86v2.74c0,0.48,0.35,0.86,0.78,0.86
			c0.43,0,0.78-0.39,0.78-0.86V44.4z" />



<path class="st3" d="M1086.47,50.65c-0.43,0-0.78,0.39-0.78,0.86v2.74c0,0.48,0.35,0.86,0.78,0.86c0.43,0,0.78-0.39,0.78-0.86
			v-2.74C1087.25,51.04,1086.9,50.65,1086.47,50.65z" />



<path class="st3" d="M1090.91,48.46h-2.47c-0.43,0-0.78,0.39-0.78,0.86c0,0.48,0.35,0.86,0.78,0.86h2.47
			c0.43,0,0.78-0.39,0.78-0.86C1091.68,48.85,1091.34,48.46,1090.91,48.46z" />



<path class="st3" d="M1084.5,48.46h-2.47c-0.43,0-0.78,0.39-0.78,0.86c0,0.48,0.35,0.86,0.78,0.86h2.47
			c0.43,0,0.78-0.39,0.78-0.86C1085.28,48.85,1084.93,48.46,1084.5,48.46z" />



	</g>
<path class="st3" d="M988.52,147.53c-0.7,0.18-1.35,0.49-1.93,0.92l-0.2,0.15c-0.71,0.52-1.3,1.21-1.71,2l-1.35,2.63
		c-0.24,0.47-0.6,0.89-1.03,1.2l-1.9,1.39l1.35,1.85l1.9-1.39c0.71-0.52,1.3-1.21,1.71-2l1.35-2.63c0.24-0.47,0.6-0.89,1.03-1.2
		l0.2-0.15c0.35-0.25,0.74-0.44,1.15-0.55l3.69-0.97c0.45-0.12,0.94,0.06,1.21,0.43l0.43,0.59l1.35,1.85l0.81,1.1
		c0.67,0.92,0.47,2.22-0.45,2.89c-0.77,0.56-1.81,0.53-2.54-0.08l-2.18-1.81l-4.05,1.3l0.7,2.18l2.85-0.91l1.22,1.01
		c0.56,0.47,1.22,0.77,1.9,0.91c-0.03,0.19-0.04,0.38-0.03,0.58l0.01,0.08c0.04,0.65,0.27,1.25,0.64,1.74
		c0.03,0.04,0.06,0.07,0.09,0.1c-0.51,0.5-0.87,1.15-0.99,1.91l-0.04,0.28c-0.14,0.93,0.1,1.84,0.62,2.55
		c0.52,0.71,1.31,1.22,2.24,1.37l6.02,0.93c-0.66,0.33-1.35,0.59-2.08,0.75l-4.26,0.97c-1.54,0.35-2.96,1-4.23,1.92l-0.12,0.09
		l1.35,1.85l0.12-0.09c1.02-0.75,2.15-1.26,3.38-1.54l4.26-0.96c1.54-0.35,2.96-1,4.23-1.93l1.85-1.36l0.19-0.14l0.07-0.05
		c1.49-1.09,1.81-3.19,0.72-4.67l-0.05-0.07l0.07-0.05c1.49-1.09,1.81-3.18,0.72-4.67l-0.73-1l0.07-0.05
		c1.49-1.09,1.81-3.19,0.73-4.67l-0.64-0.88c-0.27-0.37-0.62-0.65-1-0.87l4.39-3.21c1.78-1.3,2.17-3.82,0.87-5.6
		c-1.3-1.78-3.82-2.17-5.6-0.87l-10.62,7.77l-0.43-0.59c-0.84-1.15-2.27-1.65-3.64-1.3L988.52,147.53z M997.31,162.05l8.04,1.25
		c0.28,0.04,0.52,0.19,0.69,0.42l0.19,0.26c0.34,0.47,0.24,1.13-0.23,1.47l-0.07,0.05l-0.19,0.14c-0.23,0.17-0.51,0.23-0.79,0.19
		l-8.03-1.25c-0.62-0.1-1.05-0.68-0.95-1.31L996,163C996.1,162.38,996.68,161.95,997.31,162.05z M996.53,158
		c0.26-0.1,0.52-0.23,0.76-0.39l0.02,0c0,0,0,0,0,0c0.01,0.01,0.03,0,0.04,0l3.6,0.05l4.42,0.05c0.33,0,0.64,0.17,0.83,0.43
		l0.76,1.03c0.34,0.47,0.24,1.13-0.23,1.47l-0.26,0.19c-0.23,0.17-0.51,0.23-0.78,0.19l-8.03-1.25l-0.48-0.07
		c-0.49-0.08-0.87-0.49-0.89-0.99l0-0.03c-0.01-0.3,0.12-0.52,0.23-0.67C996.52,158.01,996.52,158.01,996.53,158z M999.39,153.26
		l6.14-0.95c0.38-0.05,0.64-0.05,0.86,0.26l0.64,0.88c0.34,0.47,0.24,1.13-0.23,1.47l-0.4,0.3c-0.19,0.14-0.43,0.22-0.66,0.22
		l-0.43,0.04l-2.35,0.04l-4.27,0.08l0,0C999.33,154.55,999.13,153.45,999.39,153.26L999.39,153.26z M1008.25,142.52
		c0.76-0.56,1.84-0.39,2.4,0.37c0.56,0.76,0.39,1.84-0.37,2.4l-6.5,4.76l-5.79,0.73l-0.35-0.48L1008.25,142.52z" />



<g>
<g>
<path class="st2" d="M1206.22,128.9c-1.7,0-3.4,0.15-5.1,0.46V83.73c0-2.48-2.01-4.49-4.49-4.49h-46.56l-19.49,19.49v69.92
				c0,2.48,2.01,4.49,4.49,4.49h53.83c4.64,4.33,10.67,6.96,17.48,6.96c14.08,0,25.53-11.45,25.53-25.53
				C1231.9,140.5,1220.29,128.9,1206.22,128.9z M1149.44,83.11V94.1c0,2.17-1.7,3.87-3.87,3.87h-11.14L1149.44,83.11z
				 M1132.89,168.66v-68.38h12.69c3.4,0,6.19-2.78,6.19-6.19V81.56h44.86c1.24,0,2.17,0.93,2.17,2.17v46.25
				c-10.52,3.25-18.25,12.99-18.25,24.44c0,6.19,2.17,11.91,5.88,16.4h-51.36C1133.82,170.98,1132.89,169.9,1132.89,168.66z
				 M1206.22,177.79c-12.84,0-23.2-10.36-23.2-23.2c0-12.84,10.36-23.2,23.2-23.2s23.2,10.36,23.2,23.2
				C1229.58,167.42,1219.06,177.79,1206.22,177.79z" />



		</g>
<g>
<path class="st2" d="M1217.01,162.76c0,1.11-0.79,2.05-1.9,2.05h-15.8c-1.11,0-2.05-0.95-2.05-2.05v-4.9h-2.53v5.06
				c0,2.53,2.05,4.42,4.42,4.42h15.8c2.53,0,4.42-2.05,4.42-4.42v-5.06h-2.37V162.76L1217.01,162.76z" />



<polygon class="st2" points="1214.16,155.01 1212.42,153.27 1208.31,157.54 1208.31,141.9 1205.94,141.9 1205.94,157.54
				1201.83,153.27 1200.1,155.01 1207.05,161.97 			" />



		</g>
<path class="st11" d="M1141.38,107.94h24.03c0.6,0,1.09,0.49,1.09,1.09v22.26c0,0.6-0.49,1.09-1.09,1.09h-24.03
			c-0.6,0-1.09-0.49-1.09-1.09v-22.26C1140.29,108.43,1140.78,107.94,1141.38,107.94z M1142.47,130.2h21.85v-20.07h-21.85V130.2z
			 M1141.38,150.96c-0.6,0-1.09-0.49-1.09-1.09c0-0.6,0.49-1.09,1.09-1.09h26.22c0.6,0,1.09,0.49,1.09,1.09
			c0,0.6-0.49,1.09-1.09,1.09H1141.38z M1141.38,143.31c-0.6,0-1.09-0.49-1.09-1.09c0-0.6,0.49-1.09,1.09-1.09h26.22
			c0.6,0,1.09,0.49,1.09,1.09c0,0.6-0.49,1.09-1.09,1.09H1141.38z M1141.38,158.61c-0.6,0-1.09-0.49-1.09-1.09
			c0-0.6,0.49-1.09,1.09-1.09h13.11c0.6,0,1.09,0.49,1.09,1.09c0,0.6-0.49,1.09-1.09,1.09H1141.38z" />



<path class="st11" d="M1173.04,119.29c-0.6,0-1.09-0.49-1.09-1.09c0-0.6,0.49-1.09,1.09-1.09h18.3c0.6,0,1.09,0.49,1.09,1.09
			c0,0.6-0.49,1.09-1.09,1.09H1173.04z M1173.04,111.65c-0.6,0-1.09-0.49-1.09-1.09c0-0.6,0.49-1.09,1.09-1.09h18.3
			c0.6,0,1.09,0.49,1.09,1.09c0,0.6-0.49,1.09-1.09,1.09H1173.04z M1173.04,126.94c-0.6,0-1.09-0.49-1.09-1.09
			c0-0.6,0.49-1.09,1.09-1.09h5.19c0.6,0,1.09,0.49,1.09,1.09c0,0.6-0.49,1.09-1.09,1.09H1173.04z" />



	</g>
<path class="st4" d="M1220.84,122c0,1.59-1.28,2.87-2.87,2.87c-1.59,0-2.87-1.28-2.87-2.87c0-1.59,1.29-2.87,2.87-2.87
		C1219.56,119.13,1220.84,120.42,1220.84,122z" />



<path class="st3" d="M1210.28,109.21c0,1.08-0.87,1.95-1.95,1.95c-1.08,0-1.95-0.87-1.95-1.95c0-1.08,0.87-1.95,1.95-1.95
		C1209.41,107.25,1210.28,108.13,1210.28,109.21z" />



<path class="st3" d="M1013.37,128.8c0,0.87-0.71,1.58-1.58,1.58c-0.87,0-1.58-0.71-1.58-1.58c0-0.88,0.71-1.58,1.58-1.58
		C1012.66,127.22,1013.37,127.93,1013.37,128.8z" />



</g>
<path class="st12" d="M343.35,102.38c0-0.19,0.07-0.36,0.2-0.5c0.52-0.58,1.08-1.12,1.63-1.69c0,0,0,0,0,0
	c0.29-0.28,0.75-0.28,1.03,0l0,0c0.28,0.28,0.28,0.74,0,1.02l0,0c-0.54,0.55-1.08,1.09-1.57,1.63c-0.27,0.3-0.73,0.33-1.03,0.07l0,0
	C343.46,102.79,343.36,102.59,343.35,102.38z M350.11,98.01c-0.39,0-0.7-0.32-0.7-0.7c0.01-0.21,0.1-0.4,0.25-0.54
	c1.28-1.12,2.61-2.23,3.96-3.28l0,0c0.31-0.25,0.76-0.2,1.01,0.1c0.25,0.31,0.2,0.76-0.1,1.01c-1.36,1.02-2.65,2.1-3.91,3.19
	C350.49,97.94,350.31,98.02,350.11,98.01z M449.44,79.71c-0.2-0.35-0.07-0.8,0.28-1.01c0.02-0.02,0.05-0.03,0.07-0.04
	c0.36-0.19,0.81-0.06,1.01,0.31l6.12,10.8c0.12,0.22,0.12,0.49,0,0.71c-0.12,0.22-0.35,0.36-0.6,0.38l-12.36,1.01
	c-0.13,0.03-0.26,0.03-0.39,0c-0.15-0.1-0.27-0.26-0.33-0.43c-0.14-0.43,0.1-0.89,0.53-1.03l0,0l9.91-0.83
	c-28.94-15.45-68.34-14.27-96.18,3.06c-0.01,0.01-0.02,0.01-0.03,0.02c-0.34,0.2-0.78,0.09-0.98-0.25l0,0
	c-0.07-0.12-0.11-0.25-0.12-0.38c0.01-0.25,0.14-0.49,0.35-0.63c28.27-17.56,68.08-18.8,97.63-3.18L449.44,79.71z" />



<path class="st12" d="M824.35,102.38c0-0.19,0.07-0.36,0.2-0.5c0.52-0.58,1.08-1.12,1.63-1.69c0,0,0,0,0,0
	c0.29-0.28,0.75-0.28,1.03,0l0,0c0.28,0.28,0.28,0.74,0,1.02l0,0c-0.54,0.55-1.08,1.09-1.57,1.63c-0.27,0.3-0.73,0.33-1.03,0.07l0,0
	C824.46,102.79,824.36,102.59,824.35,102.38z M831.11,98.01c-0.39,0-0.7-0.32-0.7-0.7c0.01-0.21,0.1-0.4,0.25-0.54
	c1.28-1.12,2.61-2.23,3.96-3.28l0,0c0.31-0.25,0.76-0.2,1.01,0.1c0.25,0.31,0.2,0.76-0.1,1.01c-1.36,1.02-2.65,2.1-3.91,3.19
	C831.49,97.94,831.31,98.02,831.11,98.01z M930.44,79.71c-0.2-0.35-0.07-0.8,0.28-1.01c0.02-0.02,0.05-0.03,0.07-0.04
	c0.36-0.19,0.81-0.06,1.01,0.31l6.12,10.8c0.12,0.22,0.12,0.49,0,0.71c-0.12,0.22-0.35,0.36-0.6,0.38l-12.36,1.01
	c-0.13,0.03-0.26,0.03-0.39,0c-0.15-0.1-0.27-0.26-0.33-0.43c-0.14-0.43,0.1-0.89,0.53-1.03l0,0l9.91-0.83
	c-28.94-15.45-68.34-14.27-96.18,3.06c-0.01,0.01-0.02,0.01-0.03,0.02c-0.34,0.2-0.78,0.09-0.98-0.25l0,0
	c-0.07-0.12-0.11-0.25-0.12-0.38c0.01-0.25,0.14-0.49,0.35-0.63c28.27-17.56,68.08-18.8,97.63-3.18L930.44,79.71z" />



</svg>
