<?xml version="1.0" encoding="utf-8"?>
<!-- Generator: Adobe Illustrator 23.0.6, SVG Export Plug-In . SVG Version: 6.00 Build 0)  -->
<svg version="1.1" id="Layer_1" xmlns="http://www.w3.org/2000/svg" xmlns:xlink="http://www.w3.org/1999/xlink" x="0px" y="0px"
	 viewBox="0 0 128 83" style="enable-background:new 0 0 128 83;" xml:space="preserve">
<style type="text/css">
	.st0{fill:#A7C7D7;}
</style>
<g>
	<g>
		<path class="st0" d="M22.59,45.79c-12.18,0-22.46,11.89-22.46,25.96v10.14c0,0.57,0.46,1.03,1.03,1.03h62.77
			c0.57,0,1.03-0.46,1.03-1.03V71.73c0-14.07-10.28-25.95-22.46-25.95h-0.54v-2.86c1.52,0.31,2.97,0.44,4.31,0.44
			c5.81,0,9.72-2.36,9.93-2.49c0.3-0.19,0.48-0.51,0.49-0.86c0.01-0.35-0.17-0.68-0.46-0.88c-5.4-3.63-5.59-13.66-5.59-13.76
			c0-0.02-0.01-0.04-0.01-0.07c0.16-0.71,0.3-1.43,0.39-2.16c0.01-0.03,0.02-0.05,0.03-0.08c0-0.03-0.01-0.05,0-0.08
			c0.1-0.84,0.17-1.69,0.17-2.55c0-11.05-8.37-20.04-18.67-20.04c-10.29,0-18.67,8.99-18.67,20.04c0,1.72,0.22,3.38,0.61,4.98
			c-0.01,0.46-0.29,10.16-5.59,13.72c-0.29,0.19-0.46,0.53-0.46,0.88c0.01,0.35,0.19,0.67,0.49,0.86c0.21,0.13,4.11,2.49,9.93,2.49
			c1.33,0,2.77-0.13,4.27-0.43v2.85L22.59,45.79L22.59,45.79z M62.9,71.73v9.11H51.21v-4.19c0-0.57-0.46-1.03-1.03-1.03
			s-1.03,0.46-1.03,1.03v4.19H15.94v-4.19c0-0.57-0.46-1.03-1.03-1.03c-0.57,0-1.03,0.46-1.03,1.03v4.19H2.2v-9.1
			c0-11.55,7.85-21.81,17.42-23.61l4.88,12.74h-1.34c-0.57,0-1.03,0.46-1.03,1.03v13.82c0,0.57,0.46,1.03,1.03,1.03h19.47
			c0.57,0,1.03-0.46,1.03-1.03V61.9c0-0.57-0.46-1.03-1.03-1.03h-1.31l4.83-12.59C55.42,50.42,62.9,60.46,62.9,71.73z M30.12,60.59
			V59.2h5.56v1.39H30.12z M41.61,62.93v11.76H24.19V62.93H41.61z M44.08,47.93l-4.96,12.94h-1.37v-2.7c0-0.57-0.46-1.03-1.03-1.03
			h-7.63c-0.57,0-1.03,0.46-1.03,1.03v2.7h-1.35l-4.98-12.99c0.29-0.02,0.58-0.03,0.87-0.03h1.42l0.49,0.3
			c2.48,1.54,5.27,2.31,8.05,2.31c2.81,0,5.61-0.78,8.11-2.35l0.42-0.26h1.42C43.03,47.85,43.56,47.88,44.08,47.93z M16.17,23.31
			c2.54-0.37,13.37-2.29,21.56-8.56c0.7,1.12,4.94,7.48,11.12,8.99c-1.43,8.35-8.2,14.69-16.31,14.69
			C24.29,38.42,17.45,31.86,16.17,23.31z M32.54,40.49c2.61,0,5.1-0.58,7.36-1.63v7.3l-0.34,0.21c-4.3,2.7-9.66,2.72-13.98,0.04
			l-0.4-0.25v-7.29C27.45,39.9,29.93,40.49,32.54,40.49z M53.75,39.79c-2.1,0.89-6.46,2.22-11.78,1.03v-3.1
			c2.99-1.89,5.45-4.64,7.08-7.94C49.62,32.93,50.9,37.09,53.75,39.79z M49.15,20.44c0,0.41-0.03,0.82-0.06,1.23
			c-5.65-1.54-9.64-8.08-9.68-8.15c-0.02-0.04-0.06-0.06-0.08-0.09c1.87-1.65,3.55-3.56,4.88-5.78
			C47.25,10.92,49.15,15.44,49.15,20.44z M32.54,2.46c3.81,0,7.31,1.41,10.12,3.76c-6.44,11.29-23.33,14.49-26.68,15.03
			c-0.01-0.27-0.04-0.53-0.04-0.8C15.94,10.53,23.39,2.46,32.54,2.46z M11.38,39.79c2.83-2.68,4.11-6.8,4.69-9.94
			c1.63,3.28,4.08,6,7.06,7.88v3.11C17.82,42,13.47,40.68,11.38,39.79z"/>
		<path class="st0" d="M32.9,73.59c2.52,0,4.57-2.05,4.57-4.57c0-2.52-2.05-4.57-4.57-4.57s-4.57,2.05-4.57,4.57
			C28.33,71.54,30.38,73.59,32.9,73.59z M32.9,66.52c1.38,0,2.51,1.12,2.51,2.51c0,1.38-1.12,2.51-2.51,2.51
			c-1.38,0-2.51-1.12-2.51-2.51C30.39,67.64,31.52,66.52,32.9,66.52z"/>
	</g>
	<g>
		<path class="st0" d="M85.77,45.79c-12.18,0-22.46,11.89-22.46,25.96v10.14c0,0.57,0.46,1.03,1.03,1.03h62.77
			c0.57,0,1.03-0.46,1.03-1.03V71.73c0-14.07-10.28-25.95-22.46-25.95h-0.54v-8.07c4.83-3.05,8.26-8.35,9.05-14.56
			c0.01-0.03,0.02-0.05,0.03-0.08c0-0.03-0.01-0.05,0-0.08c0.1-0.84,0.17-1.68,0.17-2.55c0-11.05-8.37-20.04-18.67-20.04
			S77.05,9.39,77.05,20.44c0,7.36,3.73,13.79,9.25,17.28v8.07L85.77,45.79L85.77,45.79z M126.07,71.73v9.11h-11.69v-4.19
			c0-0.57-0.46-1.03-1.03-1.03s-1.03,0.46-1.03,1.03v4.19H79.11v-4.19c0-0.57-0.46-1.03-1.03-1.03c-0.57,0-1.03,0.46-1.03,1.03v4.19
			H65.37v-9.1c0-11.55,7.85-21.81,17.42-23.61l4.88,12.74h-1.34c-0.57,0-1.03,0.46-1.03,1.03v13.82c0,0.57,0.46,1.03,1.03,1.03
			h19.47c0.57,0,1.03-0.46,1.03-1.03V61.9c0-0.57-0.46-1.03-1.03-1.03h-1.34l4.83-12.6C118.57,50.4,126.07,60.45,126.07,71.73z
			 M93.29,60.29V58.9h5.56v1.39H93.29z M104.78,62.93v11.76H87.37V62.93H104.78z M107.22,47.93l-4.96,12.94h-1.35v-3
			c0-0.57-0.46-1.03-1.03-1.03h-7.63c-0.57,0-1.03,0.46-1.03,1.03v3h-1.35L84.9,47.88c0.29-0.02,0.58-0.03,0.87-0.03h1.42l0.49,0.3
			c2.48,1.54,5.27,2.31,8.05,2.31c2.81,0,5.61-0.78,8.11-2.35l0.42-0.26h1.42C106.2,47.85,106.71,47.88,107.22,47.93z M112.32,20.44
			c0,0.41-0.03,0.82-0.06,1.23c-5.65-1.54-9.64-8.08-9.68-8.15c-0.02-0.04-0.06-0.06-0.08-0.09c1.87-1.65,3.55-3.56,4.88-5.78
			C110.42,10.92,112.32,15.45,112.32,20.44z M95.71,2.46c3.81,0,7.31,1.41,10.12,3.76C99.39,17.51,82.5,20.72,79.15,21.25
			c-0.01-0.27-0.04-0.53-0.04-0.8C79.11,10.53,86.56,2.46,95.71,2.46z M79.34,23.31c2.53-0.37,13.37-2.29,21.56-8.56
			c0.7,1.12,4.94,7.48,11.12,8.99c-1.43,8.35-8.19,14.69-16.31,14.69C87.46,38.42,80.62,31.86,79.34,23.31z M95.71,40.49
			c2.61,0,5.1-0.58,7.36-1.63v7.3l-0.34,0.21c-4.3,2.7-9.66,2.72-13.98,0.04l-0.4-0.25v-7.29C90.62,39.9,93.1,40.49,95.71,40.49z"/>
		<path class="st0" d="M96.07,73.59c2.52,0,4.57-2.05,4.57-4.57c0-2.52-2.05-4.57-4.57-4.57s-4.57,2.05-4.57,4.57
			C91.5,71.54,93.55,73.59,96.07,73.59z M96.07,66.52c1.38,0,2.51,1.12,2.51,2.51c0,1.38-1.12,2.51-2.51,2.51
			c-1.38,0-2.51-1.12-2.51-2.51C93.57,67.64,94.69,66.52,96.07,66.52z"/>
	</g>
</g>
</svg>
