<?xml version="1.0" encoding="utf-8"?>
<!-- Generator: Adobe Illustrator 23.0.6, SVG Export Plug-In . SVG Version: 6.00 Build 0)  -->
<svg version="1.1" id="Layer_1" xmlns="http://www.w3.org/2000/svg" xmlns:xlink="http://www.w3.org/1999/xlink" x="0px" y="0px"
	 viewBox="0 0 1280 300" style="enable-background:new 0 0 1280 300;" xml:space="preserve">
<style type="text/css">
	.st0{fill-rule:evenodd;clip-rule:evenodd;fill:#CBDEE7;}
</style>
<g>
	<path class="st0" d="M861.27,30.28c-6.15,5.33-10.32,15.46-10.32,27.01c0,14.11,7.7,27.72,13.05,35.53h-0.26
		c-8.06-7.23-21.18-21.2-21.18-35.53C842.56,44.92,850.35,34.37,861.27,30.28z M900.05,57.29c0,13.4-13.38,27.89-21.59,35.53h-0.15
		c5.48-8.17,13.33-22.24,13.33-35.53c0-11.57-4.15-21.68-10.3-27.01C892.26,34.37,900.05,44.92,900.05,57.29z M867.21,99.94v-4.88
		c0.19,0,8.45,0,8.19,0v4.88H867.21z M879.44,114.52c0,1.57-1.27,2.84-2.82,2.84h-10.67c-1.55,0-2.82-1.27-2.82-2.84v-12.32h16.3
		V114.52z M867.51,29.1c-3.1,5.23-4.73,16.75-4.73,28.22c0,14.15,3.03,27.83,5.1,35.53h-1.14c-5.2-7.31-13.55-21.23-13.55-35.53
		C853.16,43.46,859.31,31.89,867.51,29.1z M877.57,57.29c0,13.38-3.18,27.7-5.25,35.53h-2.15c-2.04-7.46-5.16-21.27-5.16-35.53
		c0-17.61,3.72-28.84,6.28-28.84C873.87,28.45,877.57,39.68,877.57,57.29z M874.63,92.82c2.11-8.06,5.18-22.22,5.18-35.53
		c0-11.44-1.59-22.97-4.71-28.22c8.17,2.8,14.32,14.39,14.32,28.22c0,13.42-8.52,27.83-13.83,35.53H874.63z M862.56,94.77l0.32,0.28
		h2.09v4.88h-4.04v14.58c0,2.8,2.26,5.08,5.03,5.08h10.67c2.8,0,5.05-2.28,5.05-5.08V99.94h-4.04v-4.88h1.7l0.32-0.3
		c8.43-7.81,22.62-23.03,22.62-37.46c0-5.27-1.31-10.26-3.63-14.6h6.6v-2.24h-7.91c-1.85-2.84-4.15-5.38-6.77-7.48
		c1.01-0.54,2.15-0.52,3.51-0.45c2.17,0.09,2.37-0.06,3.18-0.11l0.09-0.92c0.45-4.09,3.89-7.2,8-7.2c4.13,0,7.55,3.1,7.98,7.2
		l0.11,1.01h4.84c2.17,0,3.96,1.78,3.96,3.98c0,2.19-1.78,3.98-3.96,3.98h-9.4v2.24h9.4c3.42,0,6.19-2.8,6.19-6.22
		c0-3.42-2.77-6.21-6.19-6.21h-2.88c-0.99-4.75-5.14-8.22-10.04-8.22c-4.95,0-9.12,3.48-10.06,8.24c-0.39,0-0.75,0-1.12-0.02
		c-1.76-0.06-3.7-0.13-5.51,1.27c-4.95-3.38-10.92-5.35-17.35-5.35c-17.08,0-30.97,13.94-30.97,31.08
		C840.32,71.91,852.43,85.74,862.56,94.77z"/>
	<rect x="831.03" y="96.88" class="st0" width="4.65" height="2.06"/>
	<path class="st0" d="M822.93,98.95h5.59v-2.26h-5.59c-1.7,0-3.08-1.4-3.08-3.1c0-1.72,1.38-3.12,3.08-3.12h4.17
		c0.04-0.13,0.15-6.82,6.52-6.82c6.37,0,6.45,6.69,6.52,6.82h4.17c1.7,0,3.08,1.4,3.08,3.12c0,1.72-1.38,3.1-3.08,3.1h-6.9v2.26h6.9
		c2.92,0,5.31-2.41,5.31-5.35c0-2.97-2.39-5.38-5.31-5.38h-2.24c-0.88-3.96-4.34-6.82-8.45-6.82s-7.57,2.86-8.45,6.82h-2.24
		c-2.92,0-5.31,2.41-5.31,5.35C817.62,96.54,820,98.95,822.93,98.95z"/>
	<path class="st0" d="M908.95,88.97h-23.2v2.24h23.2c3.14,0,5.7-2.56,5.7-5.72c0-3.14-2.56-5.72-5.7-5.72h-2.47
		c-0.77-3.53-3.53-6.34-7.12-7.14l-0.49,2.19c5.7,1.27,5.57,7.03,5.66,7.2h4.43c1.91,0,3.46,1.55,3.46,3.44
		C912.41,87.35,910.86,88.97,908.95,88.97z"/>
	<path class="st0" d="M827.36,46.82h2.19c0.02-0.41,0.45-4.04,4.06-4.04v-2.15c-2.62,0-4.22,1.31-5.16,2.8
		c-0.95-1.48-2.54-2.8-5.16-2.8v2.15C826.91,42.77,827.34,46.41,827.36,46.82z"/>
	<path class="st0" d="M844.82,113.4c0.02-0.17,0.39-4.37,4.28-4.37v-2.34c-2.75,0-4.43,1.42-5.42,3.03
		c-0.99-1.61-2.67-3.03-5.42-3.03v2.34c3.78,0,4.24,3.91,4.28,4.37H844.82z"/>
	<path class="st0" d="M913.61,61.48c-0.95-1.48-2.54-2.8-5.16-2.8v2.15c3.61,0,4.04,3.63,4.06,4.04h2.19
		c0.02-0.41,0.45-4.04,4.06-4.04v-2.15C916.15,58.69,914.56,60,913.61,61.48z"/>
	<path class="st0" d="M907.36,110.3h2.19c0.02-0.45,0.45-4.37,4.06-4.37v-2.34c-2.62,0-4.22,1.42-5.16,3.03
		c-0.95-1.61-2.54-3.03-5.16-3.03v2.34C906.91,105.94,907.34,109.87,907.36,110.3z"/>
	<path class="st0" d="M834.5,23.08h2.37c0.04-0.39,0.34-2.37,2.43-2.37v-2.28c-1.72,0-2.86,0.69-3.61,1.59
		c-0.75-0.9-1.89-1.59-3.61-1.59v2.28C834.15,20.71,834.45,22.69,834.5,23.08z"/>
	<path class="st0" d="M836.48,273.68c0.88,0.47,1.83,0.73,2.84,0.73c1.85,0,3.57-0.86,4.73-2.34c0.77,0.22,1.57,0.37,2.43,0.43
		v15.89h-9.98v-14.71H836.48z M827.77,269.35c-0.13-0.43-0.54-0.73-0.97-0.73c-2.24-0.02-4.04-1.91-4.04-4.26
		c0-0.75,0.19-1.48,0.54-2.15c0.17-0.3,0.17-0.67,0-0.99c-0.34-0.67-0.54-1.4-0.54-2.15c0-2.34,1.81-4.26,4.04-4.26
		c0.45,0,0.84-0.28,0.97-0.71c0.56-1.76,2.11-2.95,3.87-2.95c1.16,0,2.28,0.54,3.03,1.46c0.19,0.24,0.49,0.37,0.8,0.37
		c0.3,0,0.58-0.13,0.77-0.37c0.26-0.3,0.56-0.56,0.86-0.77c0.06,1.03,0.28,2.04,0.69,3.01c-1.53,1.89-2.37,4.21-2.37,6.6
		c0,4.28,2.67,8,6.56,9.83c-0.73,0.69-1.68,1.08-2.69,1.08c-1.16,0-2.28-0.54-3.05-1.46c-0.39-0.47-1.18-0.47-1.57,0
		c-0.77,0.92-1.87,1.46-3.03,1.46C829.83,272.37,828.28,271.16,827.77,269.35z M847.51,236.73c3.78,0,6.86,2.75,6.86,6.15
		c0,0.86-0.22,1.72-0.62,2.54c-0.19,0.39-0.13,0.84,0.15,1.16c1.29,1.35,1.98,3.08,1.98,4.84c0,1.1-0.26,2.15-0.77,3.14
		c-0.19,0.39-0.13,0.86,0.15,1.18c1.48,1.61,2.28,3.63,2.28,5.72c0,4.99-4.49,9.03-10.02,9.03s-10.04-4.04-10.04-9.03
		c0-2.09,0.82-4.11,2.28-5.72c0.3-0.32,0.37-0.8,0.17-1.16c-0.54-1.01-0.8-2.06-0.8-3.16c0-1.76,0.71-3.48,1.98-4.84
		c0.3-0.3,0.37-0.77,0.17-1.16c-0.41-0.8-0.62-1.66-0.62-2.54C840.65,239.48,843.72,236.73,847.51,236.73z M879.16,273.68
		c0.88,0.47,1.83,0.73,2.84,0.73c1.85,0,3.57-0.86,4.73-2.34c0.77,0.22,1.59,0.37,2.43,0.43v15.89h-9.98v-14.71H879.16z
		 M870.45,269.35c-0.13-0.43-0.54-0.73-0.97-0.73c-2.24-0.02-4.04-1.91-4.04-4.26c0-0.75,0.19-1.48,0.56-2.15
		c0.17-0.3,0.17-0.67,0-0.99c-0.39-0.65-0.56-1.4-0.56-2.13c0-2.34,1.81-4.28,4.06-4.28c0.43,0,0.82-0.28,0.97-0.71
		c0.54-1.76,2.09-2.92,3.85-2.92c1.16,0,2.28,0.54,3.03,1.46c0.19,0.24,0.49,0.37,0.8,0.37c0.3,0,0.58-0.13,0.77-0.37
		c0.26-0.32,0.56-0.56,0.86-0.77c0.06,1.03,0.28,2.04,0.71,3.01c-1.55,1.89-2.39,4.22-2.39,6.58c0,4.3,2.67,8,6.56,9.85
		c-0.73,0.67-1.68,1.08-2.69,1.08c-1.16,0-2.28-0.54-3.05-1.46c-0.39-0.47-1.16-0.47-1.57,0c-0.77,0.92-1.87,1.46-3.03,1.46
		C872.54,272.37,870.97,271.16,870.45,269.35z M890.2,236.73c3.78,0,6.86,2.75,6.86,6.15c0,0.86-0.22,1.72-0.62,2.54
		c-0.19,0.39-0.13,0.84,0.15,1.16c1.29,1.35,1.98,3.08,1.98,4.84c0,1.1-0.26,2.15-0.8,3.14c-0.19,0.39-0.13,0.86,0.17,1.18
		c1.46,1.61,2.28,3.63,2.28,5.72c0,4.99-4.49,9.03-10.02,9.03s-10.04-4.04-10.04-9.03c0-2.09,0.82-4.11,2.3-5.72
		c0.28-0.32,0.34-0.8,0.15-1.18c-0.54-1.01-0.8-2.06-0.8-3.14c0-1.76,0.71-3.48,1.98-4.84c0.3-0.32,0.37-0.77,0.17-1.16
		c-0.41-0.82-0.62-1.68-0.62-2.54C883.34,239.48,886.41,236.73,890.2,236.73z M821.72,288.39c-0.56,0-1.01,0.45-1.01,1.03
		c0,0.56,0.45,1.01,1.01,1.01h79.53c0.56,0,1.01-0.45,1.01-1.01c0-0.58-0.45-1.03-1.01-1.03h-10.04v-15.89
		c6.17-0.47,11.05-5.25,11.05-11.03c0-2.37-0.84-4.69-2.37-6.58c0.45-1.12,0.71-2.28,0.71-3.46c0-2.06-0.73-4.09-2.06-5.72
		c0.37-0.9,0.54-1.85,0.54-2.82c0-4.52-3.98-8.19-8.9-8.19c-4.9,0-8.88,3.68-8.88,8.19c0,0.97,0.19,1.91,0.56,2.82
		c-0.92,1.12-1.55,2.43-1.85,3.78c-0.67,0.24-1.29,0.6-1.85,1.05c-1.08-0.9-2.43-1.42-3.83-1.42c-2.43,0-4.58,1.46-5.55,3.7
		c-3.01,0.37-5.38,3.03-5.38,6.26c0,0.9,0.19,1.83,0.56,2.65c-0.37,0.84-0.56,1.74-0.56,2.65c0,3.2,2.34,5.85,5.33,6.26
		c0.97,2.3,3.12,3.78,5.59,3.78c0.99,0,1.96-0.26,2.82-0.71v14.69H848.5v-15.89c6.19-0.47,11.05-5.25,11.05-11.03
		c0-2.37-0.82-4.69-2.37-6.58c0.47-1.12,0.71-2.28,0.71-3.46c0-2.06-0.73-4.09-2.06-5.72c0.37-0.9,0.56-1.85,0.56-2.82
		c0-4.52-3.98-8.19-8.9-8.19c-4.9,0-8.88,3.68-8.88,8.19c0,0.97,0.17,1.91,0.54,2.82c-0.9,1.12-1.53,2.43-1.83,3.78
		c-0.67,0.24-1.31,0.6-1.85,1.05c-1.08-0.9-2.43-1.42-3.83-1.42c-2.43,0-4.58,1.46-5.55,3.7c-3.03,0.37-5.38,3.03-5.38,6.26
		c0,0.9,0.19,1.83,0.56,2.65c-0.37,0.84-0.56,1.72-0.56,2.65c0,3.2,2.34,5.85,5.33,6.26c0.95,2.3,3.12,3.78,5.59,3.78
		c0.99,0,1.96-0.26,2.82-0.71v14.69H821.72z"/>
	<path class="st0" d="M1217.87,39.68c4.6,0,8.37,3.68,8.37,8.17c0,4.49-3.76,8.17-8.37,8.17c-4.6,0-8.37-3.68-8.37-8.17
		C1209.51,43.35,1213.27,39.68,1217.87,39.68z M1217.87,59.2c6.41,0,11.61-5.1,11.61-11.35c0-6.26-5.2-11.35-11.61-11.35
		c-6.41,0-11.61,5.1-11.61,11.35C1206.26,54.11,1211.46,59.2,1217.87,59.2z"/>
	<path class="st0" d="M1217.87,32.88c0.99,0,1.81-0.73,1.81-1.61v-4c0-0.88-0.82-1.61-1.81-1.61c-0.99,0-1.81,0.73-1.81,1.61v4
		C1216.07,32.15,1216.88,32.88,1217.87,32.88z"/>
	<path class="st0" d="M1204.97,37.08c0.32,0.32,0.75,0.45,1.18,0.45s0.84-0.15,1.16-0.45c0.67-0.58,0.67-1.55,0-2.13l-2.88-2.65
		c-0.65-0.6-1.68-0.6-2.32,0c-0.67,0.58-0.67,1.55,0,2.13L1204.97,37.08z"/>
	<path class="st0" d="M1197.03,49.4h4c0.88,0,1.61-0.69,1.61-1.55c0-0.86-0.73-1.55-1.61-1.55h-4c-0.88,0-1.61,0.69-1.61,1.55
		C1195.42,48.71,1196.15,49.4,1197.03,49.4z"/>
	<path class="st0" d="M1204.97,58.62l-2.88,2.65c-0.65,0.58-0.65,1.55,0,2.13c0.34,0.32,0.75,0.45,1.18,0.45
		c0.43,0,0.84-0.15,1.18-0.45l2.88-2.65c0.62-0.58,0.62-1.55,0-2.13C1206.69,58.02,1205.62,58.02,1204.97,58.62z"/>
	<path class="st0" d="M1216.07,64.43v4c0,0.88,0.82,1.61,1.81,1.61c0.99,0,1.81-0.73,1.81-1.61v-4c0-0.88-0.82-1.61-1.81-1.61
		C1216.88,62.82,1216.07,63.53,1216.07,64.43z"/>
	<path class="st0" d="M1228.41,58.62c-0.65,0.58-0.65,1.55,0,2.13l2.88,2.65c0.34,0.32,0.75,0.45,1.18,0.45
		c0.43,0,0.84-0.15,1.18-0.45c0.62-0.58,0.62-1.55,0-2.13l-2.9-2.65C1230.11,58.02,1229.06,58.02,1228.41,58.62z"/>
	<path class="st0" d="M1232.58,47.85c0,0.86,0.73,1.55,1.61,1.55h4c0.88,0,1.61-0.69,1.61-1.55c0-0.86-0.73-1.55-1.61-1.55h-4
		C1233.31,46.3,1232.58,46.99,1232.58,47.85z"/>
	<path class="st0" d="M1229.59,37.53c0.43,0,0.84-0.15,1.16-0.45l2.88-2.65c0.67-0.58,0.67-1.55,0-2.13c-0.65-0.6-1.68-0.6-2.32,0
		l-2.88,2.65c-0.67,0.58-0.67,1.55,0,2.13C1228.73,37.38,1229.16,37.53,1229.59,37.53z"/>
	<path class="st0" d="M631.51,256.37c0.32,0,0.62-0.13,0.86-0.34c0.56-0.54,1.33-0.86,2.13-0.86h0.71c0.69,0,1.25-0.54,1.25-1.2
		c0-0.67-0.56-1.2-1.25-1.2h-0.71c-1.44,0-2.84,0.56-3.87,1.55c-0.49,0.47-0.49,1.25,0,1.72
		C630.86,256.24,631.16,256.37,631.51,256.37z"/>
	<path class="st0" d="M700.02,248.09c-0.62-1.4-1.72-2.47-3.1-2.99c-0.62-0.26-1.33,0.11-1.57,0.8c-0.22,0.67,0.11,1.44,0.75,1.68
		c0.73,0.28,1.35,0.88,1.68,1.63l0.32,0.71c0.28,0.67,1.01,0.97,1.63,0.65c0.6-0.3,0.88-1.08,0.6-1.76c0,0,0,0-0.02,0L700.02,248.09
		z"/>
	<rect x="686.52" y="269.27" class="st0" width="2.58" height="2.06"/>
	<path class="st0" d="M443.94,48.11c0,0.99-0.69,1.81-1.55,1.81c-0.86,0-1.55-0.82-1.55-1.81c0-0.99,0.69-1.81,1.55-1.81
		C443.25,46.3,443.94,47.12,443.94,48.11z"/>
	<path class="st0" d="M1130.63,211.55c-1.51,0-2.99,0.6-4.19,1.96c-1.35,1.51-1.81,4.04-1.05,5.85c1.05,2.26,2.11,4.49,3.16,6.75
		c0.43,0.9,0.88,1.81,1.18,2.71c0.15,0.3,0.45,0.6,0.9,0.6c0.45,0,0.75-0.15,0.9-0.6c0,0,0-0.15,0.15-0.15
		c1.2-2.56,2.39-5.27,3.74-7.81c0.45-0.9,0.9-1.81,1.05-2.86C1136.78,214.56,1134.07,211.55,1130.63,211.55z M1143.96,222.82
		c1.96-1.96,4.04-4.06,6-6.02c1.96,1.96,4.04,4.06,6,6.02c1.78-1.81,3.59-3.61,5.4-5.42c-3.76-3.74-7.66-7.66-11.4-11.4
		c-3.74,3.74-7.63,7.66-11.4,11.4C1140.37,219.05,1142.17,220.86,1143.96,222.82z M1096,213.35c1.81,1.78,3.61,3.59,5.4,5.4
		c1.96-1.96,4.04-4.04,6-6c1.96,2.11,4.04,4.04,6,6c1.78-1.81,3.59-3.61,5.4-5.4c-3.76-3.76-7.66-7.66-11.4-11.42
		C1103.51,205.85,1099.77,209.59,1096,213.35z M1194.02,188.28c-5.4,5.4-10.65,10.65-16.04,16.06c2.56,2.54,5.1,5.1,7.66,7.66
		c2.84-2.86,5.53-5.55,8.39-8.41c2.84,2.86,5.55,5.55,8.39,8.41c2.54-2.56,5.1-5.12,7.63-7.66
		C1204.67,198.92,1199.27,193.53,1194.02,188.28z M1083.42,224c0.15-0.15,0.15-0.15,0.3-0.3c7.63-7.66,15.59-15.61,23.38-23.42
		c0.15-0.15,0.15-0.15,0.3-0.3c5.4,5.42,10.95,10.97,16.34,16.37c0.28-1.94,1.03-3.44,2.54-4.65c1.51-1.2,3.14-1.66,4.95-1.66
		c1.66,0.15,3.14,0.75,4.34,1.96c1.2,1.2,1.96,2.56,2.26,4.19c4.04-4.04,8.24-8.26,12.28-12.3c4.49,4.49,8.84,8.86,13.18,13.2
		c0.15-0.15,0.15-0.15,0.3-0.3c10.04-10.04,20.09-20.11,30.28-30.32c0.15-0.15,0.15-0.15,0.3-0.3c0.15,0.15,0.15,0.15,0.3,0.3
		c10.34,10.37,20.67,20.71,31.01,31.08c0.15,0.15,0.15,0.15,0.3,0.3c-0.3,0.3-0.6,0.6-0.9,0.9c-4.65-4.65-9.29-9.31-13.94-13.96
		c-2.84,2.84-5.55,5.55-8.24,8.26c-2.84-2.86-5.55-5.57-8.39-8.41c-2.86,2.84-5.7,5.7-8.41,8.41c-2.84-2.86-5.53-5.57-8.24-8.26
		c-4.49,4.49-8.84,8.86-13.33,13.35c0,0,0.15,0.15,0.3,0.15c5.4,5.4,10.65,10.67,16.04,16.06c0.15,0.15,0.3,0.3,0.58,0.15
		c1.66,0,3.31-0.15,4.8-0.15c8.56,0,16.65,1.96,24.28,5.55c5.85,2.86,11.1,6.47,15.74,11.12c0.15,0.15,0.15,0.15,0.3,0.15
		c-0.3,0.3-0.6,0.6-0.9,0.9c-11.38-10.67-24.58-16.37-40-16.37c-15.44,0-28.77,5.7-39.87,16.52c0,0,0,0-0.15-0.15
		c-0.3-0.3-0.45-0.45-0.75-0.75c6-6.3,17.68-14.71,34.17-16.52c0,0,0,0,0.15-0.15c-5.7-5.55-11.25-11.12-16.95-16.82
		c-1.94,1.96-4.04,4.06-5.98,6c-2.11-2.09-4.04-4.04-6-6c-1.96,2.11-4.04,4.06-6,6c-2.09-2.09-4.04-4.04-6.13-6.15
		c-0.15,0.15-0.3,0.45-0.3,0.6c-0.15,0.9-0.6,1.66-0.9,2.56c-1.35,2.69-2.56,5.55-3.89,8.26c-0.6,1.35-2.26,1.81-3.46,0.9
		c-0.3-0.3-0.6-0.6-0.73-0.9c-0.3-0.45-0.45-0.9-0.6-1.2c-2.41,2.41-4.95,4.95-7.35,7.35c1.51,1.05,2.86,2.11,4.19,3.46
		c-0.3,0.3-0.6,0.6-0.9,0.9c-5.38-5.27-11.98-8.11-19.76-8.11c-7.66,0-14.24,2.84-19.94,8.26c-0.3-0.3-0.6-0.6-0.9-0.9
		c0.15-0.15,0.15-0.15,0.3-0.3c2.39-2.26,5.1-4.22,8.09-5.57c5.25-2.39,10.8-3.29,16.49-2.39c3.89,0.6,7.48,1.78,10.92,3.89
		c0.15,0.15,0.3,0.15,0.45,0c2.56-2.56,5.1-5.1,7.51-7.51c0.15-0.15,0.15-0.3,0.15-0.45c-0.75-1.66-1.51-3.29-2.26-4.95
		c-0.45-1.05-1.05-1.96-1.18-3.01c0-0.15-0.15-0.15-0.15-0.3c-1.35-1.35-2.56-2.56-3.91-3.89c0,0-0.15-0.15-0.3-0.15
		c-1.94,1.94-4.04,4.04-5.98,6c-2.11-2.11-4.04-4.06-6-6c-2.11,2.09-4.04,4.04-6,6c-1.94-1.96-4.04-4.06-6-6
		c-3.89,3.44-7.63,7.05-11.23,10.65C1084.02,224.75,1083.72,224.45,1083.42,224C1083.42,224.15,1083.42,224.15,1083.42,224z"/>
	<path class="st0" d="M1085.29,272.9c1.78,0,3.42,0,5.23,0c0-3.16,0-6.3,0-9.44c-1.81,0-3.44,0-5.23,0
		C1085.29,266.6,1085.29,269.74,1085.29,272.9z M1152.05,284.43c-0.13-0.45-0.13-1.03-0.28-1.33c-1.2-2.56-4.49-3.31-6.73-1.66
		c-1.2,0.9-1.94,1.96-1.78,3.59c0.15,2.41,2.24,4.04,4.77,4.04C1150.11,288.77,1151.92,286.84,1152.05,284.43z M1097.53,280.39
		c-0.6,0.15-1.18,0.15-1.63,0.45c-1.51,0.6-2.54,1.66-2.69,3.14c-0.3,2.11,0.88,4.06,2.99,4.65c1.94,0.75,4.17-0.15,5.23-1.78
		c0.58-1.05,0.88-2.11,0.58-3.31C1101.12,281.74,1099.46,280.54,1097.53,280.39z M1156.09,263.46c0,4.49,0,8.99,0,13.48
		c2.39,0,4.92,0,7.31,0c0-4.49,0-8.99,0-13.48C1161.01,263.46,1158.48,263.46,1156.09,263.46z M1085.57,260.9c25.85,0,51.7,0,77.4,0
		v-0.15c0-0.15-0.15-0.15-0.15-0.3c-0.45-0.88-1.05-1.48-1.81-2.09c-1.63-1.35-3.72-1.96-5.83-1.96c-20.45,0-40.92,0-61.4,0
		c-0.88,0-1.78,0.15-2.69,0.3c-1.94,0.45-3.57,1.35-4.77,3.01C1086.02,260.02,1085.87,260.45,1085.57,260.9z M1153.4,284.43h0.15
		c1.94,0,3.89,0,5.98,0c0.75,0,1.48-0.15,2.09-0.45c1.2-0.45,1.79-1.33,1.79-2.69c0-1.05,0-1.96,0-2.99c0-0.15,0-0.3,0-0.6
		c-2.69,0-5.38,0-8.06,0c0-5.1,0-10.04,0-15.14c2.69,0,5.38,0,8.22,0c0-0.45-0.15-0.75-0.15-1.2c-0.15,0-0.3,0-0.43,0
		c-25.55,0-51.25,0-76.8,0c-0.15,0-0.3,0-0.3,0s-0.15,0-0.15,0.15c0,0.3-0.15,0.6-0.15,1.05c2.11,0,4.04,0,5.98,0
		c0,3.74,0,7.48,0,11.1c-1.94,0-4.02,0-5.98,0c0,0.15,0,0.15,0,0.3c0,2.54,0,5.08,0,7.63c0,0.3,0.15,0.6,0.15,0.9
		c0.45,1.03,1.35,1.48,2.39,1.79c1.2,0.3,2.41,0.15,3.59,0.15c0,0,0.15-0.15,0.15-0.3c-0.15-0.3,0-0.73,0.15-1.18
		c1.05-2.71,3.29-3.91,6.28-3.76c2.39,0.15,4.47,2.26,5.08,4.8c0,0.3,0,0.45,0.45,0.45c12.54,0,25.25,0,37.78,0
		c0.3,0,0.3,0,0.45-0.3c0.3-2.39,2.24-4.34,4.77-4.95c2.26-0.43,4.8,0.6,5.98,2.71C1153.1,282.65,1153.4,283.53,1153.4,284.43z
		 M1096.93,290.43c-0.58-0.15-1.33-0.3-1.94-0.6c-1.63-0.75-2.84-2.09-3.29-3.89c0-0.3-0.15-0.3-0.45-0.3c-1.18,0-2.24,0-3.42-0.15
		c-1.51-0.15-2.69-0.9-3.44-2.24c-0.3-0.45-0.45-1.05-0.45-1.66c0-6.3,0-12.58,0-18.88c0-1.96,0.75-3.44,2.09-4.8
		c1.81-1.66,3.89-2.54,6.13-2.84c0.45,0,1.05,0,1.51,0c12.99,0,25.98,0,39.12,0c0.15,0,0.3,0,0.45,0c-0.45-0.45-0.73-0.9-1.03-1.35
		c0.15-0.15,0.43-0.3,0.58-0.45c0.45,0.45,0.9,1.05,1.35,1.51c0.15,0.15,0.3,0.3,0.6,0.3c6.86,0,13.74,0,20.6,0
		c3.14,0,5.83,1.03,7.76,3.59c0.9,1.2,1.35,2.54,1.35,4.04c0,6.15,0,12.28,0,18.43c0,1.96-0.9,3.14-2.54,3.89
		c-0.9,0.45-1.79,0.6-2.69,0.6c-1.94,0-3.89,0-5.68,0c-0.15,0-0.3,0-0.3,0c-0.3,0.6-0.45,1.2-0.75,1.66
		c-1.03,1.63-2.54,2.69-4.47,2.84c-0.15,0-0.15,0-0.3,0c-0.3,0-0.6,0-0.9,0h-0.15c-2.54-0.45-4.17-1.81-5.08-4.34
		c-0.15-0.3-0.15-0.3-0.45-0.3c-12.54,0-25.1,0-37.63,0c-0.15,0-0.3,0-0.3,0s0,0,0,0.15v0.15c-0.75,2.26-2.09,3.59-4.32,4.19
		c-0.3,0-0.6,0.15-0.75,0.15C1097.68,290.43,1097.23,290.43,1096.93,290.43z"/>
	<path class="st0" d="M1176.05,249.35c1.23,0,2.15-0.86,2.15-2c0-1.14-0.92-2-2.15-2s-2.15,0.86-2.15,2
		C1173.89,248.49,1174.82,249.35,1176.05,249.35z M1178.67,246.06c0.45,1.85,0.15,2.99-1.08,3.72c-1.25,0.71-2.47,0.41-3.85-0.58
		c-0.32,0.28-0.62,0.58-0.92,0.86c-0.17-0.15-0.32-0.28-0.62-0.58c0.3-0.28,0.62-0.56,0.92-0.71c0.15-0.15,0.15-0.28,0.15-0.43
		c-0.3-1.14,0.15-2.43,1.23-3.14c1.08-0.71,2.47-0.56,3.55,0.15c0.15,0.13,0.3,0.13,0.45,0c0.77-0.28,1.4-0.58,2.17-0.86
		c0.15,0.28,0.15,0.43,0.3,0.71C1180.05,245.48,1179.27,245.78,1178.67,246.06z"/>
	<path class="st0" d="M1209.64,275.98c0-1.31-0.9-2.28-2.09-2.28c-1.05,0-2.09,0.97-2.09,2.28c0,1.29,0.88,2.28,2.09,2.28
		C1208.73,278.26,1209.64,277.27,1209.64,275.98z M1207.55,279.05c-1.66,0-2.84-1.29-2.84-3.08c0-1.78,1.18-3.1,2.84-3.1
		c1.63,0,2.82,1.46,2.82,3.1C1210.52,277.76,1209.18,279.23,1207.55,279.05z"/>
	<path class="st0" d="M1201.61,247.68c0.15-0.15,0.3-0.45,0.47-0.6c0.92,0.6,1.7,1.38,2.62,1.98c-0.15,0.3-0.3,0.45-0.62,0.6
		C1203.31,249.05,1202.54,248.45,1201.61,247.68z"/>
	<path class="st0" d="M1206.26,252.11c0.15-0.13,0.3-0.26,0.6-0.39c0.6,0.77,1.38,1.55,1.98,2.19c-0.3,0.13-0.45,0.26-0.6,0.39
		C1207.64,253.53,1207.01,252.88,1206.26,252.11z"/>
	<path class="st0" d="M1209.36,257.18c0.17-0.15,0.52-0.15,0.86-0.3c0.34,1.03,0.86,2.06,1.2,2.95c-0.34,0.15-0.69,0.15-0.86,0.15
		C1210.05,259.1,1209.7,258.22,1209.36,257.18z"/>
	<path class="st0" d="M1210.56,269.27c0.34,0,0.52,0.17,0.86,0.17c-0.34,1.14-0.69,2.3-1.2,3.44c-0.34-0.17-0.52-0.17-0.86-0.32
		C1209.7,271.4,1210.22,270.26,1210.56,269.27z"/>
	<path class="st0" d="M1195.94,244.71c0.15-0.28,0.15-0.43,0.28-0.73c0.99,0.45,1.83,0.88,2.82,1.33c-0.15,0.28-0.28,0.43-0.28,0.73
		C1197.77,245.46,1196.93,245.16,1195.94,244.71z"/>
	<path class="st0" d="M1210.91,263.08c0.41,0,0.62,0,1.03,0c0,1.14,0,2.3,0,3.61c-0.41,0-0.62,0-1.03,0
		C1210.91,265.38,1210.91,264.39,1210.91,263.08z"/>
	<path class="st0" d="M1193.36,243.33c0,0.26-0.17,0.52-0.17,0.65c-1.14-0.13-2.3-0.26-3.44-0.39c0-0.26,0-0.39,0-0.65
		C1191.06,243.08,1192.22,243.2,1193.36,243.33z"/>
	<path class="st0" d="M1183.7,243.98c0-0.26-0.15-0.39-0.15-0.65c0.99-0.13,1.98-0.26,2.95-0.39c0,0.26,0,0.52,0.15,0.65
		C1185.66,243.72,1184.67,243.85,1183.7,243.98z"/>
	<path class="st0" d="M1129.68,230.56c0.28,0.15,0.43,0.15,0.71,0.3c-0.28,0.88-0.56,1.76-0.84,2.8c-0.28,0-0.43-0.15-0.71-0.15
		C1128.99,232.47,1129.27,231.59,1129.68,230.56z"/>
	<path class="st0" d="M1129.36,248.41c0.3-0.15,0.45-0.15,0.73-0.3c0.45,0.88,0.88,1.76,1.33,2.65c-0.15,0.15-0.45,0.3-0.73,0.45
		C1130.24,250.32,1129.81,249.44,1129.36,248.41z"/>
	<path class="st0" d="M1164.95,258.43c-0.17-0.3-0.32-0.45-0.49-0.6c0.82-0.6,1.63-1.38,2.45-1.98c0.15,0.15,0.32,0.3,0.65,0.6
		C1166.73,257.05,1165.92,257.83,1164.95,258.43z"/>
	<path class="st0" d="M1127.81,242.58c0.34,0,0.69,0,0.86-0.15c0.17,1.08,0.52,2.02,0.69,2.95c-0.34,0-0.52,0.15-0.86,0.15
		C1128.15,244.6,1127.98,243.68,1127.81,242.58z"/>
	<path class="st0" d="M1127.98,236.75c0.34,0,0.69,0,0.86,0.15c0,1.03-0.17,1.91-0.17,2.95c-0.34,0-0.52,0-0.86,0
		C1127.81,238.67,1127.81,237.63,1127.98,236.75z"/>
	<path class="st0" d="M1170.65,252.17c-0.52,0.58-0.86,1.03-1.38,1.61c-0.17-0.15-0.52-0.3-0.69-0.45c0.52-0.58,0.86-1.03,1.38-1.61
		C1170.13,251.87,1170.48,252.02,1170.65,252.17z"/>
	<path class="st0" d="M1128.11,217.48c0,1.35,1.05,2.58,2.54,2.58c1.33,0,2.54-1.08,2.54-2.58c0-1.38-1.2-2.58-2.54-2.58
		C1129.31,214.9,1128.11,215.96,1128.11,217.48z M1130.65,221.27c-2.09,0-3.87-1.68-3.87-3.94c0-2.13,1.63-3.96,3.87-3.81
		c2.09,0,3.87,1.68,3.87,3.96C1134.52,219.59,1132.88,221.27,1130.65,221.27z"/>
	<path class="st0" d="M1128.75,272.11c0-2.92,0-5.85,0-8.77c-3.46,0-6.9,0-10.37,0c0,2.92,0,5.85,0,8.77
		C1121.85,272.11,1125.29,272.11,1128.75,272.11z M1117.49,262.56c4.06,0,7.96,0,11.87,0c0,3.4,0,6.92,0,10.32
		c-3.91,0-7.96,0-11.87,0C1117.49,269.33,1117.49,265.96,1117.49,262.56z"/>
	<path class="st0" d="M1115.7,272.11c0-2.92,0-5.85,0-8.77c-3.46,0-6.9,0-10.37,0c0,2.92,0,5.85,0,8.77
		C1108.8,272.11,1112.24,272.11,1115.7,272.11z M1116.45,272.88c-4.06,0-7.96,0-11.87,0c0-3.4,0-6.92,0-10.32c3.91,0,7.96,0,11.87,0
		C1116.45,265.96,1116.45,269.33,1116.45,272.88z"/>
	<path class="st0" d="M1092.95,263.33c0,2.92,0,5.85,0,8.77c3.46,0,6.9,0,10.37,0c0-2.92,0-5.85,0-8.77
		C1099.85,263.33,1096.41,263.33,1092.95,263.33z M1104.07,272.88c-3.91,0-7.96,0-11.87,0c0-3.4,0-6.92,0-10.32
		c3.91,0,7.96,0,11.87,0C1104.07,265.96,1104.07,269.33,1104.07,272.88z"/>
	<path class="st0" d="M1143.53,272.11c3.46,0,6.9,0,10.37,0c0-2.92,0-5.85,0-8.77c-3.46,0-6.9,0-10.37,0
		C1143.53,266.26,1143.53,269.18,1143.53,272.11z M1142.78,262.56c3.91,0,7.96,0,11.87,0c0,3.4,0,6.92,0,10.32
		c-3.91,0-7.96,0-11.87,0C1142.78,269.33,1142.78,265.96,1142.78,262.56z"/>
	<path class="st0" d="M1130.78,263.33c0,2.92,0,5.85,0,8.77c3.46,0,6.9,0,10.37,0c0-2.92,0-5.85,0-8.77
		C1137.68,263.33,1134.24,263.33,1130.78,263.33z M1129.87,272.88c0-3.4,0-6.92,0-10.32c3.91,0,7.96,0,11.87,0c0,3.4,0,6.92,0,10.32
		C1137.83,272.88,1133.94,272.88,1129.87,272.88z"/>
	<path class="st0" d="M518.48,71.61v-0.92c0-0.06,0-0.13-0.04-0.13c-0.06,0-0.13,0-0.19,0l-0.73,0.56l-0.84-0.3
		c-0.06,0-0.13,0-0.19,0.04c0.06,0,0.06,0.06,0.06,0.13l0.26,0.88l-0.56,0.73c-0.06,0.06-0.06,0.13,0,0.19
		c0,0.06,0.06,0.06,0.13,0.06h0.9l0.49,0.73c0,0.06,0.06,0.06,0.13,0.06c0.06,0,0.13-0.06,0.13-0.13l0.3-0.86l0.84-0.26
		c0.06,0,0.13-0.06,0.13-0.13c0-0.06,0-0.13-0.06-0.13L518.48,71.61z"/>
	<path class="st0" d="M515.68,56.56c0,0.06,0.06,0.06,0.15,0.06h0.71l0.39,0.45c0,0.06,0.09,0.06,0.15,0.06
		c0.09,0,0.17-0.06,0.17-0.13l0.22-0.52l0.65-0.13c0.06,0,0.15-0.06,0.15-0.13c0-0.06,0-0.13-0.06-0.13l-0.56-0.32V55.2
		c0-0.06,0-0.13-0.06-0.13c-0.09,0-0.17,0-0.24,0l-0.54,0.32l-0.65-0.19c-0.06,0-0.15,0-0.22,0.06c-0.09,0.06-0.09,0.13-0.09,0.19
		l0.24,0.52l-0.39,0.45C515.68,56.43,515.68,56.52,515.68,56.56z"/>
	<path class="st0" d="M511.4,67.18c0.06,0,0.15-0.06,0.15-0.13c0-0.06,0-0.13-0.06-0.13l-0.54-0.32v-0.56c0-0.06,0-0.13-0.09-0.13
		c-0.06,0-0.15,0-0.22,0l-0.54,0.32l-0.62-0.19c-0.09,0-0.15,0-0.24,0.06c-0.06,0.04-0.06,0.13-0.06,0.17l0.22,0.52l-0.37,0.43
		c-0.09,0.06-0.09,0.13,0,0.19c0,0.06,0.06,0.06,0.15,0.06h0.69l0.39,0.43c0,0.06,0.06,0.06,0.15,0.06c0.06,0,0.15-0.06,0.15-0.13
		l0.24-0.49L511.4,67.18z"/>
	<path class="st0" d="M520.54,57.96c0.15,0.15,0.37,0.22,0.49,0.22c0.15,0,0.37-0.06,0.52-0.22l1.66-1.66c0.28-0.3,0.28-0.73,0-1.01
		c-0.3-0.28-0.73-0.28-1.01,0l-1.66,1.66C520.26,57.16,520.26,57.68,520.54,57.96z"/>
	<path class="st0" d="M520.11,62.52c-0.26-0.28-0.69-0.28-0.95,0l-7.91,7.94c-0.28,0.26-0.28,0.67,0,0.95
		c0.13,0.13,0.32,0.19,0.47,0.19c0.13,0,0.34-0.06,0.47-0.19l7.91-7.87C520.39,63.25,520.39,62.77,520.11,62.52z"/>
	<path class="st0" d="M525.94,59.94l-7.98,7.91c-0.28,0.28-0.28,0.69,0,0.97c0.13,0.13,0.32,0.19,0.47,0.19
		c0.13,0,0.34-0.06,0.47-0.19l7.91-7.94c0.28-0.28,0.28-0.69,0-0.95C526.56,59.66,526.22,59.66,525.94,59.94z"/>
	<path class="st0" d="M513.79,65.91c0.19,0,0.32-0.06,0.47-0.19l5.85-5.87c0.28-0.28,0.28-0.69,0-0.95c-0.26-0.28-0.67-0.28-0.95,0
		l-5.85,5.85c-0.28,0.28-0.28,0.69,0,0.97C513.44,65.85,513.57,65.91,513.79,65.91z"/>
	<path class="st0" d="M557.12,34.88l-4.65-4.62l-3.25-3.25l-1.38-1.38l12.11-2.56L557.12,34.88z M548.95,39.35l0.13-10.56l5.27,5.25
		L548.95,39.35z M525.08,52.06l5.25-5.25l-0.06,10.37L525.08,52.06z M543.27,33.89l4.37-4.34l-0.06,11.18l-4.37,4.34L543.27,33.89z
		 M537.46,39.63l4.37-4.34l-0.15,11.16l-4.37,4.37L537.46,39.63z M531.7,45.44l4.37-4.37l-0.13,11.18l-4.37,4.34L531.7,45.44z
		 M560.78,21.55l-14.39,3.03c-0.28,0.06-0.41,0.22-0.56,0.49c-0.06,0.28,0,0.47,0.22,0.69l1.78,1.81l-5.74,5.59l-18.47,18.41
		c-0.28,0.28-0.28,0.71,0,0.97l2.77,2.77l-5.33,5.31c-0.28,0.28-0.28,0.69,0,0.97c0.13,0.13,0.34,0.19,0.47,0.19
		c0.15,0,0.34-0.06,0.49-0.19l5.31-5.33l2.77,2.77c0.15,0.13,0.28,0.19,0.49,0.19c0.19,0,0.34-0.06,0.47-0.19l24.15-24.09l1.81,1.78
		c0.13,0.15,0.28,0.22,0.47,0.22c0.06,0,0.15,0,0.22,0c0.19-0.06,0.41-0.28,0.47-0.49l3.4-14c0.06-0.22,0-0.49-0.22-0.62
		C561.18,21.55,560.99,21.48,560.78,21.55z"/>
	<path class="st0" d="M56.88,199.91c0.78,0.19,2.09,0.73,2.09,2c0,0.43,0.33,0.77,0.74,0.77c0.41,0,0.74-0.34,0.74-0.77
		c0-1.68-1.17-2.97-3.21-3.51c-3.52-0.9-4.65-2.97-4.69-3.05c-0.13-0.26-0.38-0.41-0.65-0.41c-0.41,0-0.74,0.34-0.74,0.77
		c0,0.13,0.04,0.26,0.1,0.39C51.44,196.43,52.86,198.86,56.88,199.91z"/>
	<path class="st0" d="M43.68,24.84c0,0-0.56,0-1.12,0.56C42,28.19,42,28.19,42,28.19c-0.56,1.12-1.12,1.68-2.24,2.24
		c-2.8,0.56-2.8,0.56-2.8,0.56c-0.56,0.56-0.56,1.12-0.56,1.12s0,0.56,0.56,1.12c2.8,0.56,2.8,0.56,2.8,0.56
		c1.12,0.56,1.68,1.12,2.24,2.24c0.56,2.8,0.56,2.8,0.56,2.8c0.56,0.56,1.12,0.56,1.12,0.56s0.56,0,1.12-0.56
		c0.56-2.8,0.56-2.8,0.56-2.8c0.56-1.12,1.12-1.68,2.24-2.24c2.8-0.56,2.8-0.56,2.8-0.56c0.56-0.56,0.56-1.12,0.56-1.12
		s0-0.56-0.56-1.12c-2.8-0.56-2.8-0.56-2.8-0.56c-1.12-0.56-1.68-1.12-2.24-2.24c-0.56-2.8-0.56-2.8-0.56-2.8
		C44.24,24.84,43.68,24.84,43.68,24.84z M43.68,42.17c-1.68,0-2.8-1.12-3.35-2.8c-0.56-2.24-0.56-2.24-0.56-2.24
		c0-0.56-0.56-1.12-1.12-1.12c-2.24-0.56-2.24-0.56-2.24-0.56c-1.68-0.56-2.8-1.68-2.8-3.35c0-1.68,1.12-2.8,2.8-3.35
		c2.24-0.56,2.24-0.56,2.24-0.56c0.56,0,1.12-0.56,1.12-1.12c0.56-2.24,0.56-2.24,0.56-2.24c0.56-1.68,1.68-2.8,3.35-2.8
		c1.68,0,2.8,1.12,3.35,2.8c0.56,2.24,0.56,2.24,0.56,2.24c0.56,0.56,0.56,1.12,1.12,1.12c2.24,0.56,2.24,0.56,2.24,0.56
		c1.68,0.56,2.8,1.68,2.8,3.35c0,1.68-1.12,2.8-2.8,3.35c-2.24,0.56-2.24,0.56-2.24,0.56c-0.56,0-0.56,0.56-1.12,1.12
		c-0.56,2.24-0.56,2.24-0.56,2.24C46.48,41.05,45.36,42.17,43.68,42.17z"/>
	<path class="st0" d="M614.8,111.08c0,0-0.45,0-0.45,0.47c-0.92,2.32-0.92,2.32-0.92,2.32c0,1.38-0.92,2.32-2.32,2.32
		c-2.32,0.92-2.32,0.92-2.32,0.92c-0.45,0-0.45,0.45-0.45,0.92c0,0,0,0.47,0.45,0.92c2.32,0.47,2.32,0.47,2.32,0.47
		c1.4,0.45,2.32,1.4,2.32,2.32c0.92,2.32,0.92,2.32,0.92,2.32c0,0.45,0.45,0.92,0.45,0.92c0.47,0,0.92-0.47,0.92-0.92
		c0.92-2.32,0.92-2.32,0.92-2.32c0-0.92,0.92-1.87,2.32-2.32c2.32-0.47,2.32-0.47,2.32-0.47c0.45-0.45,0.45-0.92,0.45-0.92
		c0-0.47,0-0.92-0.45-0.92c-2.32-0.92-2.32-0.92-2.32-0.92c-1.4,0-2.32-0.95-2.32-2.32c-0.92-2.32-0.92-2.32-0.92-2.32
		C615.72,111.08,615.27,111.08,614.8,111.08z M614.8,127.33c-1.38,0-2.3-1.4-2.77-2.8c-0.92-2.32-0.92-2.32-0.92-2.32
		s0-0.45-0.47-0.45c-2.3-0.92-2.3-0.92-2.3-0.92c-1.4,0-2.32-1.4-2.32-2.8c0-1.85,0.92-2.8,2.32-3.25c2.3-0.47,2.3-0.47,2.3-0.47
		c0.47-0.45,0.47-0.45,0.47-0.92c0.92-2.32,0.92-2.32,0.92-2.32c0.47-1.4,1.4-2.32,2.77-2.32c1.85,0,2.77,0.92,3.25,2.32
		c0.92,2.32,0.92,2.32,0.92,2.32c0,0.47,0,0.47,0.47,0.92c2.3,0.47,2.3,0.47,2.3,0.47c1.4,0.45,2.32,1.4,2.32,3.25
		c0,1.4-0.92,2.8-2.32,2.8c-2.3,0.92-2.3,0.92-2.3,0.92c-0.47,0-0.47,0.45-0.47,0.45c-0.92,2.32-0.92,2.32-0.92,2.32
		C617.57,125.94,616.65,127.33,614.8,127.33z"/>
	<path class="st0" d="M99.84,274.88c-1.31,0-2.28,0.99-2.28,2.3c0,0.97,0.98,1.96,2.28,1.96c0.98,0,1.95-0.99,1.95-1.96
		C101.8,275.87,100.82,274.88,99.84,274.88z M99.84,280.11c-1.63,0-3.26-1.31-3.26-2.92c0-1.96,1.63-3.27,3.26-3.27
		s2.93,1.31,2.93,3.27C102.78,278.8,101.47,280.11,99.84,280.11z"/>
	<path class="st0" d="M468.43,18c-1.61,0-3.25,1.63-3.25,3.81c0,1.61,1.63,3.25,3.25,3.25c2.17,0,3.81-1.63,3.81-3.25
		C472.24,19.63,470.6,18,468.43,18z M468.43,26.69c-2.71,0-4.88-2.17-4.88-4.88c0-3.27,2.17-5.44,4.88-5.44
		c3.27,0,5.44,2.17,5.44,5.44C473.87,24.52,471.7,26.69,468.43,26.69z"/>
	<path class="st0" d="M1023.53,150.13h-0.56c-0.56,2.15-0.56,2.15-0.56,2.15c0,0.54-0.56,1.08-1.68,1.61
		c-1.66,0.54-1.66,0.54-1.66,0.54c-0.56,0-0.56,0.52-0.56,0.52s0,0.54,0.56,0.54c1.66,0.54,1.66,0.54,1.66,0.54
		c1.12,0,1.68,1.08,1.68,1.61c0.56,1.61,0.56,1.61,0.56,1.61c0,0.54,0.56,0.54,0.56,0.54s0.56,0,0.56-0.54
		c0.56-1.61,0.56-1.61,0.56-1.61c0.56-0.54,1.12-1.61,1.68-1.61c2.22-0.54,2.22-0.54,2.22-0.54l0.56-0.54l-0.56-0.52
		c-2.22-0.54-2.22-0.54-2.22-0.54c-0.56-0.54-1.12-1.08-1.68-1.61c-0.56-2.15-0.56-2.15-0.56-2.15H1023.53z M1023.53,161.4
		c-1.12,0-1.68-0.54-2.24-1.61c-0.56-1.61-0.56-1.61-0.56-1.61c0-0.54,0-0.54-0.54-0.54c-1.68-0.54-1.68-0.54-1.68-0.54
		c-1.12,0-1.68-1.08-1.68-2.15c0-1.05,0.56-2.13,1.68-2.13c1.68-0.54,1.68-0.54,1.68-0.54c0.54,0,0.54-0.54,0.54-0.54
		c0.56-1.61,0.56-1.61,0.56-1.61c0.56-1.08,1.12-2.15,2.24-2.15s2.24,1.08,2.24,2.15c0.56,1.61,0.56,1.61,0.56,1.61l0.56,0.54
		c1.66,0.54,1.66,0.54,1.66,0.54c1.12,0,2.24,1.08,2.24,2.13c0,1.08-1.12,2.15-2.24,2.15c-1.66,0.54-1.66,0.54-1.66,0.54
		s-0.56,0-0.56,0.54c-0.56,1.61-0.56,1.61-0.56,1.61C1025.77,160.86,1024.65,161.4,1023.53,161.4z"/>
	<path class="st0" d="M129.41,37.46c-0.47,0.54-0.4,1.33,0.15,1.81c14.8,12.56,15.53,28.34,15.53,28.52
		c0.03,0.69,0.6,1.23,1.29,1.23c0.02,0,0.03,0,0.05,0c0.71-0.02,1.28-0.6,1.25-1.31c-0.02-0.69-0.73-17.05-16.43-30.37
		C130.69,36.86,129.87,36.9,129.41,37.46z"/>
	<path class="st0" d="M116.83,28.39c0.26-0.34,0.32-0.8,0.2-1.18l-1.55-4.45l4.57,1.51c0.41,0.13,0.85,0.06,1.19-0.19l3.87-2.82
		l-0.06,4.71c0,0.43,0.2,0.82,0.55,1.08l3.94,2.71l-4.6,1.4c-0.41,0.13-0.74,0.45-0.86,0.84l-1.44,4.52l-2.79-3.85
		c-0.23-0.34-0.64-0.54-1.06-0.54h-0.02l-4.82,0.04L116.83,28.39z M111.32,34.75l6.78-0.09l3.92,5.42c0.25,0.32,0.65,0.54,1.06,0.54
		c0.06,0,0.13,0,0.21-0.02c0.49-0.06,0.9-0.41,1.05-0.88l2.01-6.32l6.48-1.98c0.48-0.13,0.83-0.54,0.9-1.01
		c0.08-0.49-0.13-0.97-0.54-1.25l-5.54-3.83l0.08-6.65c0-0.47-0.28-0.92-0.72-1.14c-0.44-0.24-0.98-0.19-1.37,0.11l-5.42,3.96
		l-6.43-2.13c-0.46-0.15-0.98-0.04-1.34,0.32c-0.34,0.32-0.47,0.84-0.31,1.31l2.17,6.28l-4.05,5.29c-0.29,0.39-0.34,0.92-0.11,1.35
		C110.37,34.49,110.85,34.75,111.32,34.75z"/>
	<path class="st0" d="M954.67,117.87c0.37,0.43,0.3,1.03-0.13,1.4c-11.51,9.72-12.06,21.96-12.06,22.09
		c-0.02,0.52-0.47,0.95-1.01,0.95c-0.02,0-0.02,0-0.04,0c-0.56-0.02-0.99-0.47-0.97-1.01c0.02-0.54,0.56-13.2,12.77-23.53
		C953.66,117.42,954.3,117.44,954.67,117.87z"/>
	<path class="st0" d="M964.17,111.1c-0.22-0.26-0.26-0.6-0.15-0.92l1.18-3.46l-3.48,1.18c-0.32,0.11-0.65,0.04-0.9-0.15l-2.95-2.19
		l0.04,3.68c0,0.32-0.15,0.62-0.43,0.82l-2.99,2.13l3.51,1.08c0.3,0.11,0.56,0.34,0.67,0.67l1.08,3.51l2.13-3.01
		c0.17-0.26,0.49-0.41,0.82-0.41l0,0l3.68,0.04L964.17,111.1z M968.35,116.04l-5.14-0.06l-2.99,4.22c-0.19,0.26-0.49,0.43-0.82,0.43
		c-0.04,0-0.09,0-0.15-0.02c-0.39-0.04-0.69-0.32-0.8-0.67l-1.53-4.92l-4.95-1.55c-0.34-0.11-0.62-0.41-0.67-0.8
		c-0.06-0.37,0.09-0.73,0.41-0.97l4.22-2.97l-0.06-5.16c0-0.39,0.19-0.73,0.54-0.9c0.34-0.17,0.75-0.13,1.05,0.09l4.11,3.08
		l4.9-1.66c0.34-0.11,0.75-0.02,1.01,0.26c0.28,0.26,0.37,0.65,0.24,1.01l-1.63,4.88l3.08,4.13c0.22,0.3,0.26,0.71,0.09,1.05
		C969.08,115.85,968.71,116.06,968.35,116.04z"/>
	<path class="st0" d="M490.15,115.81c0.34,0.43,0.3,1.03-0.11,1.4c-11.1,9.72-11.66,21.96-11.66,22.09
		c-0.02,0.52-0.43,0.95-0.97,0.95h-0.02c-0.54-0.02-0.97-0.47-0.95-1.01c0.02-0.54,0.54-13.2,12.32-23.53
		C489.18,115.35,489.81,115.38,490.15,115.81z"/>
	<path class="st0" d="M499.81,109.03c-0.19-0.26-0.26-0.6-0.15-0.92l1.14-3.46l-3.38,1.18c-0.3,0.11-0.62,0.04-0.88-0.15l-2.86-2.19
		l0.04,3.68c0,0.32-0.15,0.62-0.41,0.82l-2.9,2.13l3.4,1.08c0.3,0.11,0.54,0.34,0.65,0.67l1.05,3.51l2.06-3.01
		c0.17-0.26,0.47-0.41,0.8-0.41l0,0l3.57,0.04L499.81,109.03z M503.87,113.98l-5.01-0.06l-2.9,4.22c-0.17,0.26-0.47,0.43-0.77,0.43
		c-0.06,0-0.11,0-0.17-0.02c-0.37-0.04-0.67-0.32-0.77-0.67l-1.48-4.92l-4.8-1.55c-0.34-0.11-0.6-0.41-0.65-0.8
		c-0.06-0.37,0.09-0.73,0.39-0.97l4.09-2.97l-0.04-5.16c0-0.39,0.19-0.73,0.52-0.9c0.32-0.17,0.73-0.13,1.01,0.09l4.02,3.08
		l4.75-1.66c0.34-0.11,0.73-0.02,0.99,0.26c0.26,0.26,0.34,0.65,0.24,1.01l-1.61,4.88l2.99,4.13c0.22,0.3,0.26,0.71,0.09,1.05
		C504.56,113.78,504.22,114,503.87,113.98z"/>
	<path class="st0" d="M601.36,265.14c0,0-0.52,0-1.03,0.52c-0.52,2.58-0.52,2.58-0.52,2.58c-0.52,1.03-1.03,1.55-2.06,2.06
		c-2.58,0.52-2.58,0.52-2.58,0.52c-0.52,0.52-0.52,1.03-0.52,1.03s0,0.52,0.52,1.03c2.58,0.52,2.58,0.52,2.58,0.52
		c1.03,0.52,1.55,1.03,2.06,2.06c0.52,2.58,0.52,2.58,0.52,2.58c0.52,0.52,1.03,0.52,1.03,0.52s0.52,0,1.03-0.52
		c0.52-2.58,0.52-2.58,0.52-2.58c0.52-1.03,1.03-1.55,2.06-2.06c2.58-0.52,2.58-0.52,2.58-0.52c0.52-0.52,0.52-1.03,0.52-1.03
		s0-0.52-0.52-1.03c-2.58-0.52-2.58-0.52-2.58-0.52c-1.03-0.52-1.55-1.03-2.06-2.06c-0.52-2.58-0.52-2.58-0.52-2.58
		C601.87,265.14,601.36,265.14,601.36,265.14z M601.36,281.14c-1.55,0-2.58-1.03-3.1-2.58c-0.52-2.06-0.52-2.06-0.52-2.06
		c0-0.52-0.52-1.03-1.03-1.03c-2.06-0.52-2.06-0.52-2.06-0.52c-1.55-0.52-2.58-1.55-2.58-3.1c0-1.55,1.03-2.58,2.58-3.1
		c2.06-0.52,2.06-0.52,2.06-0.52c0.52,0,1.03-0.52,1.03-1.03c0.52-2.06,0.52-2.06,0.52-2.06c0.52-1.55,1.55-2.58,3.1-2.58
		s2.58,1.03,3.1,2.58c0.52,2.06,0.52,2.06,0.52,2.06c0.52,0.52,0.52,1.03,1.03,1.03c2.06,0.52,2.06,0.52,2.06,0.52
		c1.55,0.52,2.58,1.55,2.58,3.1c0,1.55-1.03,2.58-2.58,3.1c-2.06,0.52-2.06,0.52-2.06,0.52c-0.52,0-0.52,0.52-1.03,1.03
		c-0.52,2.06-0.52,2.06-0.52,2.06C603.94,280.11,602.91,281.14,601.36,281.14z"/>
	<path class="st0" d="M29.74,222.15c-0.38,0.43-0.33,1.08,0.12,1.46c11.92,10.11,12.51,22.86,12.51,22.99
		c0.03,0.56,0.48,0.99,1.04,0.99c0.01,0,0.03,0,0.04,0c0.57-0.02,1.03-0.49,1.01-1.05c-0.02-0.56-0.59-13.76-13.24-24.49
		C30.77,221.66,30.1,221.7,29.74,222.15z"/>
	<path class="st0" d="M19.49,214.58c0.21-0.28,0.26-0.65,0.16-0.95l-1.25-3.57l3.68,1.2c0.33,0.11,0.68,0.04,0.96-0.15l3.11-2.26
		l-0.05,3.78c0,0.32,0.16,0.65,0.45,0.84l3.17,2.17L26,216.77c-0.33,0.11-0.59,0.37-0.69,0.69l-1.16,3.59l-2.25-3.08
		c-0.18-0.28-0.51-0.43-0.85-0.43h-0.01l-3.88,0.04L19.49,214.58z M15.06,219.66l5.45-0.06l3.15,4.34c0.2,0.26,0.52,0.43,0.85,0.43
		c0.05,0,0.11,0,0.17-0.02c0.39-0.06,0.72-0.32,0.84-0.69l1.62-5.08l5.22-1.57c0.38-0.11,0.67-0.43,0.72-0.82
		c0.06-0.39-0.11-0.77-0.43-1.01l-4.45-3.05l0.07-5.31c0-0.39-0.22-0.73-0.58-0.92c-0.35-0.17-0.79-0.13-1.1,0.09l-4.36,3.18
		l-5.17-1.72c-0.37-0.11-0.79-0.02-1.08,0.26c-0.28,0.28-0.38,0.69-0.25,1.05l1.75,5.03l-3.26,4.24c-0.24,0.3-0.28,0.73-0.09,1.08
		C14.3,219.46,14.68,219.68,15.06,219.66z"/>
	<rect x="437.23" y="261.01" class="st0" width="3.1" height="4.65"/>
	
		<rect x="432.06" y="262.85" transform="matrix(0.7071 -0.7071 0.7071 0.7071 -60.532 384.3174)" class="st0" width="3.16" height="4.74"/>
	<rect x="428.97" y="268.75" class="st0" width="5.16" height="3.1"/>
	<polygon class="st0" points="430.84,275.85 434.2,272.49 436.43,274.73 433.08,278.06 	"/>
	<rect x="437.23" y="274.95" class="st0" width="3.1" height="4.65"/>
	<polygon class="st0" points="440.91,274.71 443.14,272.49 446.5,275.85 444.26,278.06 	"/>
	<rect x="443.42" y="268.75" class="st0" width="4.65" height="3.1"/>
	<polygon class="st0" points="440.91,265.78 444.26,262.43 446.48,264.67 443.12,268.02 	"/>
	<path class="st0" d="M33.89,95.08c0,0-0.48,0-0.48,0.47c-0.95,2.32-0.95,2.32-0.95,2.32c0,1.38-0.95,2.32-2.38,2.32
		c-2.38,0.92-2.38,0.92-2.38,0.92c-0.48,0-0.48,0.45-0.48,0.92c0,0,0,0.47,0.48,0.92c2.38,0.47,2.38,0.47,2.38,0.47
		c1.43,0.45,2.38,1.4,2.38,2.32c0.95,2.32,0.95,2.32,0.95,2.32c0,0.45,0.48,0.92,0.48,0.92c0.48,0,0.95-0.47,0.95-0.92
		c0.95-2.32,0.95-2.32,0.95-2.32c0-0.92,0.95-1.87,2.38-2.32c2.38-0.47,2.38-0.47,2.38-0.47c0.48-0.45,0.48-0.92,0.48-0.92
		c0-0.47,0-0.92-0.48-0.92c-2.38-0.92-2.38-0.92-2.38-0.92c-1.43,0-2.38-0.95-2.38-2.32c-0.95-2.32-0.95-2.32-0.95-2.32
		C34.85,95.08,34.37,95.08,33.89,95.08z M33.89,111.33c-1.43,0-2.38-1.4-2.86-2.8c-0.95-2.32-0.95-2.32-0.95-2.32s0-0.45-0.48-0.45
		c-2.38-0.92-2.38-0.92-2.38-0.92c-1.43,0-2.38-1.4-2.38-2.8c0-1.85,0.95-2.8,2.38-3.25c2.38-0.47,2.38-0.47,2.38-0.47
		c0.48-0.45,0.48-0.45,0.48-0.92c0.95-2.32,0.95-2.32,0.95-2.32c0.48-1.4,1.43-2.32,2.86-2.32c1.91,0,2.86,0.92,3.34,2.32
		c0.95,2.32,0.95,2.32,0.95,2.32c0,0.47,0,0.47,0.48,0.92c2.38,0.47,2.38,0.47,2.38,0.47c1.43,0.45,2.38,1.4,2.38,3.25
		c0,1.4-0.95,2.8-2.38,2.8c-2.38,0.92-2.38,0.92-2.38,0.92c-0.48,0-0.48,0.45-0.48,0.45c-0.95,2.32-0.95,2.32-0.95,2.32
		C36.75,109.94,35.8,111.33,33.89,111.33z"/>
	<path class="st0" d="M10.98,258.06c-0.88,0.3-1.77,1.18-1.47,2.37c0.29,0.88,1.18,1.46,2.36,1.16c0.88,0,1.77-1.16,1.47-2.06
		C13.04,258.37,12.16,257.76,10.98,258.06z M12.16,262.77c-1.77,0.3-3.24-0.88-3.54-2.34c-0.29-1.48,0.59-2.97,2.06-3.25
		c1.77-0.3,3.24,0.58,3.54,2.06C14.52,260.71,13.63,262.19,12.16,262.77z"/>
	<path class="st0" d="M456.35,75.46c0,0-0.45,0-0.45,0.47c-0.92,2.32-0.92,2.32-0.92,2.32c0,1.38-0.92,2.32-2.32,2.32
		c-2.32,0.92-2.32,0.92-2.32,0.92c-0.45,0-0.45,0.45-0.45,0.92c0,0,0,0.47,0.45,0.92c2.32,0.47,2.32,0.47,2.32,0.47
		c1.4,0.45,2.32,1.4,2.32,2.32c0.92,2.32,0.92,2.32,0.92,2.32c0,0.45,0.45,0.92,0.45,0.92c0.47,0,0.92-0.47,0.92-0.92
		c0.92-2.32,0.92-2.32,0.92-2.32c0-0.92,0.92-1.87,2.32-2.32c2.32-0.47,2.32-0.47,2.32-0.47c0.45-0.45,0.45-0.92,0.45-0.92
		c0-0.47,0-0.92-0.45-0.92c-2.32-0.92-2.32-0.92-2.32-0.92c-1.4,0-2.32-0.95-2.32-2.32c-0.92-2.32-0.92-2.32-0.92-2.32
		C457.27,75.46,456.82,75.46,456.35,75.46z M456.35,91.72c-1.38,0-2.3-1.4-2.77-2.8c-0.92-2.32-0.92-2.32-0.92-2.32
		s0-0.45-0.47-0.45c-2.3-0.92-2.3-0.92-2.3-0.92c-1.4,0-2.32-1.4-2.32-2.8c0-1.85,0.92-2.8,2.32-3.25c2.3-0.47,2.3-0.47,2.3-0.47
		c0.47-0.45,0.47-0.45,0.47-0.92c0.92-2.32,0.92-2.32,0.92-2.32c0.47-1.4,1.4-2.32,2.77-2.32c1.85,0,2.77,0.92,3.25,2.32
		c0.92,2.32,0.92,2.32,0.92,2.32c0,0.47,0,0.47,0.47,0.92c2.3,0.47,2.3,0.47,2.3,0.47c1.4,0.45,2.32,1.4,2.32,3.25
		c0,1.4-0.92,2.8-2.32,2.8c-2.3,0.92-2.3,0.92-2.3,0.92c-0.47,0-0.47,0.45-0.47,0.45c-0.92,2.32-0.92,2.32-0.92,2.32
		C459.12,90.32,458.2,91.72,456.35,91.72z"/>
	<path class="st0" d="M925.7,254.92c-1.61,0.54-3.25,2.15-2.69,4.32c0.54,1.61,2.15,2.69,4.32,2.15c1.61,0,3.25-2.15,2.69-3.78
		C929.49,255.46,927.87,254.37,925.7,254.92z M927.87,263.57c-3.25,0.54-5.96-1.63-6.49-4.32c-0.54-2.71,1.08-5.42,3.78-5.96
		c3.25-0.54,5.96,1.08,6.49,3.78C932.2,259.78,930.58,262.49,927.87,263.57z"/>
	<path class="st0" d="M938.24,270.97c-0.82,0.3-1.61,1.18-1.35,2.37c0.28,0.88,1.1,1.46,2.17,1.16c0.82,0,1.61-1.16,1.35-2.06
		C940.13,271.27,939.31,270.67,938.24,270.97z M939.31,275.68c-1.61,0.3-2.97-0.88-3.23-2.34c-0.28-1.48,0.54-2.97,1.89-3.25
		c1.61-0.3,2.97,0.58,3.23,2.06C941.49,273.61,940.67,275.1,939.31,275.68z"/>
	<rect x="805.23" y="160.37" class="st0" width="2.06" height="3.1"/>
	<polygon class="st0" points="801.21,163.12 802.69,161.66 804.93,163.87 803.44,165.35 	"/>
	<rect x="800.07" y="166.04" class="st0" width="3.1" height="2.06"/>
	<polygon class="st0" points="801.21,170.56 803.44,168.32 804.93,169.81 802.69,172.02 	"/>
	<rect x="805.23" y="170.17" class="st0" width="2.06" height="3.1"/>
	<polygon class="st0" points="807.89,169.81 809.38,168.32 811.59,170.56 810.11,172.02 	"/>
	<rect x="809.36" y="166.04" class="st0" width="3.1" height="2.06"/>
	<polygon class="st0" points="807.89,163.87 810.11,161.66 811.59,163.12 809.38,165.35 	"/>
	<path class="st0" d="M183.06,25.14c-0.15,0.15-0.22,0.34-0.18,0.56l0.57,3.35l-2.98-1.59c-0.09-0.04-0.18-0.06-0.28-0.06
		c-0.1,0-0.19,0.02-0.28,0.06l-2.98,1.59l0.57-3.35c0.03-0.22-0.03-0.41-0.18-0.56l-2.4-2.37l3.32-0.49
		c0.2-0.02,0.38-0.15,0.46-0.34l1.49-3.05l1.49,3.05c0.09,0.19,0.26,0.32,0.46,0.34l3.32,0.49L183.06,25.14z M186.88,21.72
		l-4.25-0.62l-1.9-3.89c-0.21-0.43-0.89-0.43-1.1,0l-1.9,3.89l-4.25,0.62c-0.23,0.02-0.42,0.19-0.5,0.43
		c-0.07,0.22-0.01,0.47,0.15,0.65l3.07,3.01l-0.72,4.28c-0.04,0.24,0.05,0.47,0.25,0.6c0.11,0.09,0.24,0.13,0.36,0.13
		c0.1,0,0.19-0.02,0.28-0.06l3.8-2.02l3.8,2.02c0.21,0.11,0.46,0.09,0.65-0.06c0.19-0.13,0.28-0.37,0.25-0.6l-0.72-4.28l3.07-3.01
		c0.17-0.17,0.23-0.43,0.16-0.65C187.3,21.91,187.11,21.76,186.88,21.72z"/>
	<path class="st0" d="M548.32,107.72c-0.15,0.15-0.22,0.34-0.17,0.56l0.58,3.35l-3.1-1.59c-0.09-0.04-0.17-0.06-0.28-0.06
		c-0.11,0-0.19,0.02-0.3,0.06l-3.08,1.59l0.58-3.35c0.04-0.22-0.02-0.41-0.17-0.56l-2.49-2.37l3.44-0.49
		c0.22-0.02,0.39-0.15,0.47-0.34l1.55-3.05l1.55,3.05c0.09,0.19,0.26,0.32,0.47,0.34l3.44,0.49L548.32,107.72z M552.28,104.3
		l-4.41-0.62l-1.96-3.89c-0.22-0.43-0.92-0.43-1.14,0l-1.96,3.89l-4.41,0.62c-0.24,0.02-0.43,0.19-0.52,0.43
		c-0.06,0.22,0,0.47,0.17,0.65l3.18,3.01l-0.75,4.28c-0.04,0.24,0.04,0.47,0.26,0.6c0.11,0.09,0.24,0.13,0.37,0.13
		c0.11,0,0.19-0.02,0.3-0.06l3.94-2.02l3.94,2.02c0.22,0.11,0.47,0.09,0.67-0.06c0.19-0.13,0.3-0.37,0.26-0.6l-0.75-4.28l3.18-3.01
		c0.17-0.17,0.24-0.43,0.17-0.65C552.71,104.49,552.52,104.34,552.28,104.3z"/>
	<path class="st0" d="M1019.7,241.23c0.34,0.43,0.3,1.03-0.11,1.4c-11.1,9.72-11.66,21.96-11.66,22.09
		c-0.02,0.52-0.43,0.95-0.97,0.95h-0.02c-0.54-0.02-0.97-0.47-0.95-1.01c0.02-0.54,0.54-13.2,12.32-23.53
		C1018.73,240.77,1019.36,240.8,1019.7,241.23z"/>
	<path class="st0" d="M1029.21,234.21c-0.21-0.26-0.26-0.6-0.15-0.9l1.18-3.35l-3.48,1.14c-0.32,0.11-0.65,0.04-0.9-0.15l-2.95-2.13
		l0.04,3.57c0,0.32-0.15,0.62-0.43,0.8l-2.99,2.06l3.51,1.05c0.3,0.09,0.56,0.34,0.67,0.65l1.08,3.4l2.13-2.9
		c0.17-0.28,0.49-0.41,0.82-0.41l0,0l3.68,0.02L1029.21,234.21z M1033.38,239.01l-5.14-0.04l-2.99,4.09
		c-0.19,0.26-0.49,0.41-0.82,0.41c-0.04,0-0.09,0-0.15-0.02c-0.39-0.04-0.69-0.3-0.8-0.67l-1.53-4.77l-4.95-1.48
		c-0.34-0.11-0.62-0.41-0.67-0.77c-0.06-0.37,0.09-0.73,0.41-0.95l4.22-2.9l-0.06-5.01c0-0.34,0.19-0.69,0.54-0.86
		c0.34-0.17,0.75-0.13,1.05,0.09l4.11,2.99l4.9-1.61c0.34-0.11,0.75-0.02,1.01,0.24c0.28,0.26,0.37,0.65,0.24,0.99l-1.63,4.75
		l3.08,4c0.22,0.3,0.26,0.69,0.09,1.03C1034.11,238.82,1033.74,239.03,1033.38,239.01z"/>
	<rect x="972.45" y="266.69" class="st0" width="3.1" height="4.65"/>
	<polygon class="st0" points="966.07,270.62 968.3,268.41 971.66,271.76 969.42,273.98 	"/>
	<rect x="964.2" y="274.43" class="st0" width="5.16" height="3.61"/>
	
		<rect x="966.49" y="279.67" transform="matrix(0.7071 -0.7071 0.7071 0.7071 84.9014 767.4645)" class="st0" width="4.74" height="3.16"/>
	<rect x="972.45" y="281.14" class="st0" width="3.1" height="4.65"/>
	
		<rect x="977.35" y="278.88" transform="matrix(0.7071 -0.7071 0.7071 0.7071 87.842 774.5682)" class="st0" width="3.16" height="4.74"/>
	<rect x="978.65" y="274.43" class="st0" width="4.65" height="3.61"/>
	<polygon class="st0" points="976.13,271.76 979.49,268.41 981.7,270.62 978.37,273.98 	"/>
	<path class="st0" d="M722.86,242.02c-1.61,0.54-3.25,2.15-2.69,4.32c0.54,1.61,2.15,2.69,4.32,2.15c1.61,0,3.25-2.15,2.69-3.78
		C726.65,242.56,725.03,241.46,722.86,242.02z M725.03,250.67c-3.25,0.54-5.96-1.63-6.49-4.32c-0.54-2.71,1.08-5.42,3.78-5.96
		c3.25-0.54,5.96,1.08,6.49,3.78C729.36,246.88,727.74,249.59,725.03,250.67z"/>
	<path class="st0" d="M16.2,163.98c-0.15,0.15-0.22,0.34-0.18,0.56l0.59,3.35l-3.09-1.59c-0.1-0.04-0.19-0.06-0.29-0.06
		c-0.1,0-0.2,0.02-0.29,0.06l-3.09,1.59l0.59-3.35c0.03-0.22-0.03-0.41-0.18-0.56l-2.49-2.37l3.44-0.49
		c0.21-0.02,0.39-0.15,0.48-0.34l1.54-3.05l1.54,3.05c0.1,0.19,0.27,0.32,0.48,0.34l3.44,0.49L16.2,163.98z M20.15,160.56l-4.4-0.62
		l-1.96-3.89c-0.21-0.43-0.92-0.43-1.14,0l-1.96,3.89l-4.4,0.62c-0.24,0.02-0.44,0.19-0.52,0.43c-0.07,0.21-0.01,0.47,0.16,0.65
		l3.18,3.01l-0.75,4.28c-0.04,0.24,0.06,0.47,0.25,0.6c0.11,0.09,0.25,0.13,0.37,0.13c0.1,0,0.2-0.02,0.29-0.06l3.94-2.02l3.94,2.02
		c0.21,0.11,0.48,0.09,0.67-0.06c0.2-0.13,0.29-0.37,0.25-0.6l-0.75-4.28l3.18-3.01c0.18-0.17,0.24-0.43,0.17-0.65
		C20.59,160.75,20.39,160.6,20.15,160.56z"/>
	<path class="st0" d="M40.57,134.13c-1.63,0-3.26,1.63-3.26,3.81c0,1.61,1.63,3.25,3.26,3.25c2.17,0,3.8-1.63,3.8-3.25
		C44.37,135.76,42.74,134.13,40.57,134.13z M40.57,142.82c-2.72,0-4.89-2.17-4.89-4.88c0-3.27,2.17-5.44,4.89-5.44
		c3.26,0,5.43,2.17,5.43,5.44C46,140.65,43.83,142.82,40.57,142.82z"/>
	<path class="st0" d="M1074.86,64.99c-1.61,0.54-3.25,2.15-2.69,4.32c0.54,1.61,2.15,2.69,4.32,2.15c1.61,0,3.25-2.15,2.69-3.78
		C1078.65,65.53,1077.03,64.43,1074.86,64.99z M1077.03,73.63c-3.25,0.54-5.96-1.63-6.49-4.32c-0.54-2.71,1.08-5.42,3.79-5.96
		c3.25-0.54,5.96,1.08,6.49,3.78C1081.36,69.85,1079.74,72.56,1077.03,73.63z"/>
	<rect x="695.29" y="128.37" class="st0" width="3.1" height="4.65"/>
	<polygon class="st0" points="688.84,132.37 691.08,130.15 694.43,133.51 692.2,135.72 	"/>
	<rect x="687.03" y="136.62" class="st0" width="4.65" height="3.1"/>
	
		<rect x="689.26" y="141.41" transform="matrix(0.7071 -0.7071 0.7071 0.7071 101.467 530.9415)" class="st0" width="4.74" height="3.16"/>
	<rect x="695.29" y="142.82" class="st0" width="3.1" height="4.65"/>
	<polygon class="st0" points="698.91,142.43 701.12,140.19 704.48,143.55 702.26,145.78 	"/>
	<rect x="701.49" y="136.62" class="st0" width="4.65" height="3.1"/>
	
		<rect x="699.32" y="131.37" transform="matrix(0.7071 -0.7071 0.7071 0.7071 111.5208 535.1058)" class="st0" width="4.74" height="3.13"/>
	<path class="st0" d="M479.4,49.03c-0.82,0.3-1.61,1.18-1.35,2.37c0.28,0.88,1.1,1.46,2.17,1.16c0.82,0,1.61-1.16,1.35-2.06
		C481.29,49.33,480.48,48.73,479.4,49.03z M480.48,53.74c-1.61,0.3-2.97-0.88-3.23-2.34c-0.28-1.48,0.54-2.97,1.89-3.25
		c1.61-0.3,2.97,0.58,3.23,2.06C482.65,51.68,481.83,53.16,480.48,53.74z"/>
	<path class="st0" d="M234.24,273.55c-0.82,0.3-1.61,1.18-1.35,2.37c0.28,0.88,1.1,1.46,2.17,1.16c0.82,0,1.61-1.16,1.35-2.06
		C236.13,273.85,235.31,273.25,234.24,273.55z M235.31,278.26c-1.61,0.3-2.97-0.88-3.23-2.34c-0.28-1.48,0.54-2.97,1.89-3.25
		c1.61-0.3,2.97,0.58,3.23,2.06C237.49,276.19,236.67,277.68,235.31,278.26z"/>
	<path class="st0" d="M187.05,256.56c-1.77,0.56-3.54,2.26-2.95,4.52c0.59,1.7,2.36,2.84,4.72,2.28c1.77,0,3.54-2.28,2.95-3.96
		C191.18,257.12,189.41,256,187.05,256.56z M189.41,265.61c-3.54,0.56-6.49-1.7-7.08-4.54c-0.59-2.82,1.18-5.63,4.13-6.21
		c3.54-0.56,6.49,1.14,7.08,3.96C194.13,261.66,192.36,264.47,189.41,265.61z"/>
	<path class="st0" d="M552.39,278.19c-0.88,0.3-1.76,1.18-1.46,2.37c0.3,0.88,1.18,1.46,2.37,1.16c0.88,0,1.76-1.16,1.46-2.06
		C554.45,278.49,553.57,277.89,552.39,278.19z M553.57,282.9c-1.76,0.3-3.25-0.88-3.53-2.34c-0.3-1.48,0.58-2.97,2.06-3.25
		c1.76-0.3,3.25,0.58,3.53,2.06C555.94,280.84,555.06,282.32,553.57,282.9z"/>
	<path class="st0" d="M797.74,277.12c0,0-0.32,0-0.67,0.32c-0.32,1.66-0.32,1.66-0.32,1.66c-0.32,0.65-0.67,0.99-1.31,1.31
		c-1.66,0.32-1.66,0.32-1.66,0.32c-0.32,0.34-0.32,0.67-0.32,0.67s0,0.32,0.32,0.67c1.66,0.32,1.66,0.32,1.66,0.32
		c0.65,0.32,0.99,0.67,1.31,1.31c0.32,1.66,0.32,1.66,0.32,1.66c0.34,0.32,0.67,0.32,0.67,0.32s0.32,0,0.67-0.32
		c0.32-1.66,0.32-1.66,0.32-1.66c0.32-0.65,0.67-0.99,1.31-1.31c1.66-0.32,1.66-0.32,1.66-0.32c0.32-0.34,0.32-0.67,0.32-0.67
		s0-0.32-0.32-0.67c-1.66-0.32-1.66-0.32-1.66-0.32c-0.65-0.32-0.99-0.67-1.31-1.31c-0.32-1.66-0.32-1.66-0.32-1.66
		C798.07,277.12,797.74,277.12,797.74,277.12z M797.74,287.33c-0.99,0-1.66-0.67-1.98-1.66c-0.32-1.31-0.32-1.31-0.32-1.31
		c0-0.32-0.34-0.67-0.67-0.67c-1.31-0.32-1.31-0.32-1.31-0.32c-0.99-0.32-1.66-0.99-1.66-1.98c0-0.99,0.67-1.66,1.66-1.98
		c1.31-0.32,1.31-0.32,1.31-0.32c0.32,0,0.67-0.34,0.67-0.67c0.32-1.31,0.32-1.31,0.32-1.31c0.32-0.99,0.99-1.66,1.98-1.66
		s1.66,0.67,1.98,1.66c0.32,1.31,0.32,1.31,0.32,1.31c0.34,0.32,0.34,0.67,0.67,0.67c1.31,0.32,1.31,0.32,1.31,0.32
		c0.99,0.32,1.66,0.99,1.66,1.98c0,0.99-0.67,1.66-1.66,1.98c-1.31,0.32-1.31,0.32-1.31,0.32c-0.32,0-0.32,0.34-0.67,0.67
		c-0.32,1.31-0.32,1.31-0.32,1.31C799.4,286.67,798.73,287.33,797.74,287.33z"/>
	<path class="st0" d="M356.93,260.09c-1.61,0.54-3.25,2.15-2.69,4.32c0.54,1.61,2.15,2.69,4.32,2.15c1.61,0,3.25-2.15,2.69-3.78
		C360.71,260.62,359.1,259.53,356.93,260.09z M359.1,268.73c-3.25,0.54-5.96-1.63-6.49-4.32c-0.54-2.71,1.08-5.42,3.78-5.96
		c3.25-0.54,5.96,1.08,6.49,3.78C363.42,264.95,361.81,267.66,359.1,268.73z"/>
	<path class="st0" d="M643.74,126.97c-0.88,0.3-1.76,1.18-1.46,2.37c0.3,0.88,1.18,1.46,2.37,1.16c0.88,0,1.76-1.16,1.46-2.06
		C645.81,127.27,644.93,126.67,643.74,126.97z M644.93,131.68c-1.76,0.3-3.25-0.88-3.53-2.34c-0.3-1.48,0.58-2.97,2.06-3.25
		c1.76-0.3,3.25,0.58,3.53,2.06C647.29,129.61,646.41,131.1,644.93,131.68z"/>
	<path class="st0" d="M756.84,72.62c-0.15,0.15-0.22,0.34-0.17,0.56l0.58,3.35l-3.1-1.59c-0.09-0.04-0.17-0.06-0.28-0.06
		c-0.11,0-0.19,0.02-0.3,0.06l-3.08,1.59l0.58-3.35c0.04-0.22-0.02-0.41-0.17-0.56l-2.49-2.37l3.44-0.49
		c0.22-0.02,0.39-0.15,0.47-0.34l1.55-3.05l1.55,3.05c0.09,0.19,0.26,0.32,0.47,0.34l3.44,0.49L756.84,72.62z M760.8,69.2
		l-4.41-0.62l-1.96-3.89c-0.22-0.43-0.92-0.43-1.14,0l-1.96,3.89l-4.41,0.62c-0.24,0.02-0.43,0.19-0.52,0.43
		c-0.06,0.21,0,0.47,0.17,0.65l3.18,3.01l-0.75,4.28c-0.04,0.24,0.04,0.47,0.26,0.6c0.11,0.09,0.24,0.13,0.37,0.13
		c0.11,0,0.19-0.02,0.3-0.06l3.94-2.02l3.94,2.02c0.22,0.11,0.47,0.09,0.67-0.06c0.19-0.13,0.3-0.37,0.26-0.6l-0.75-4.28l3.18-3.01
		c0.17-0.17,0.24-0.43,0.17-0.65C761.23,69.4,761.03,69.25,760.8,69.2z"/>
	<path class="st0" d="M736.65,114.06c-0.88,0.3-1.76,1.18-1.46,2.37c0.3,0.88,1.18,1.46,2.37,1.16c0.88,0,1.76-1.16,1.46-2.06
		C738.71,114.37,737.83,113.76,736.65,114.06z M737.83,118.77c-1.76,0.3-3.25-0.88-3.53-2.34c-0.3-1.48,0.58-2.97,2.06-3.25
		c1.76-0.3,3.25,0.58,3.53,2.06C740.2,116.71,739.31,118.19,737.83,118.77z"/>
	<path class="st0" d="M782.78,97.51c0,0-0.32,0-0.67,0.32c-0.32,1.66-0.32,1.66-0.32,1.66c-0.32,0.65-0.67,0.99-1.31,1.31
		c-1.66,0.32-1.66,0.32-1.66,0.32c-0.32,0.34-0.32,0.67-0.32,0.67s0,0.32,0.32,0.67c1.66,0.32,1.66,0.32,1.66,0.32
		c0.65,0.32,0.99,0.67,1.31,1.31c0.32,1.66,0.32,1.66,0.32,1.66c0.34,0.32,0.67,0.32,0.67,0.32s0.32,0,0.67-0.32
		c0.32-1.66,0.32-1.66,0.32-1.66c0.32-0.65,0.67-0.99,1.31-1.31c1.66-0.32,1.66-0.32,1.66-0.32c0.32-0.34,0.32-0.67,0.32-0.67
		s0-0.32-0.32-0.67c-1.66-0.32-1.66-0.32-1.66-0.32c-0.65-0.32-0.99-0.67-1.31-1.31c-0.32-1.66-0.32-1.66-0.32-1.66
		C783.1,97.51,782.78,97.51,782.78,97.51z M782.78,107.72c-0.99,0-1.66-0.67-1.98-1.66c-0.32-1.31-0.32-1.31-0.32-1.31
		c0-0.32-0.34-0.67-0.67-0.67c-1.31-0.32-1.31-0.32-1.31-0.32c-0.99-0.32-1.66-0.99-1.66-1.98c0-0.99,0.67-1.66,1.66-1.98
		c1.31-0.32,1.31-0.32,1.31-0.32c0.32,0,0.67-0.34,0.67-0.67c0.32-1.31,0.32-1.31,0.32-1.31c0.32-0.99,0.99-1.66,1.98-1.66
		c0.99,0,1.66,0.67,1.98,1.66c0.32,1.31,0.32,1.31,0.32,1.31c0.34,0.32,0.34,0.67,0.67,0.67c1.31,0.32,1.31,0.32,1.31,0.32
		c0.99,0.32,1.66,0.99,1.66,1.98c0,0.99-0.67,1.66-1.66,1.98c-1.31,0.32-1.31,0.32-1.31,0.32c-0.32,0-0.32,0.34-0.67,0.67
		c-0.32,1.31-0.32,1.31-0.32,1.31C784.43,107.05,783.77,107.72,782.78,107.72z"/>
	<path class="st0" d="M923.42,150.21c0,0-0.34,0-0.69,0.34c-0.34,1.72-0.34,1.72-0.34,1.72c-0.34,0.69-0.69,1.03-1.38,1.38
		c-1.72,0.34-1.72,0.34-1.72,0.34c-0.34,0.34-0.34,0.69-0.34,0.69s0,0.34,0.34,0.69c1.72,0.34,1.72,0.34,1.72,0.34
		c0.69,0.34,1.03,0.69,1.38,1.38c0.34,1.72,0.34,1.72,0.34,1.72c0.34,0.34,0.69,0.34,0.69,0.34s0.34,0,0.69-0.34
		c0.34-1.72,0.34-1.72,0.34-1.72c0.34-0.69,0.69-1.03,1.38-1.38c1.72-0.34,1.72-0.34,1.72-0.34c0.34-0.34,0.34-0.69,0.34-0.69
		s0-0.34-0.34-0.69c-1.72-0.34-1.72-0.34-1.72-0.34c-0.69-0.34-1.03-0.69-1.38-1.38c-0.34-1.72-0.34-1.72-0.34-1.72
		C923.77,150.21,923.42,150.21,923.42,150.21z M923.42,160.88c-1.03,0-1.72-0.69-2.06-1.72c-0.34-1.38-0.34-1.38-0.34-1.38
		c0-0.34-0.34-0.69-0.69-0.69c-1.38-0.34-1.38-0.34-1.38-0.34c-1.03-0.34-1.72-1.03-1.72-2.06c0-1.03,0.69-1.72,1.72-2.06
		c1.38-0.34,1.38-0.34,1.38-0.34c0.34,0,0.69-0.34,0.69-0.69c0.34-1.38,0.34-1.38,0.34-1.38c0.34-1.03,1.03-1.72,2.06-1.72
		c1.03,0,1.72,0.69,2.06,1.72c0.34,1.38,0.34,1.38,0.34,1.38c0.34,0.34,0.34,0.69,0.69,0.69c1.38,0.34,1.38,0.34,1.38,0.34
		c1.03,0.34,1.72,1.03,1.72,2.06c0,1.03-0.69,1.72-1.72,2.06c-1.38,0.34-1.38,0.34-1.38,0.34c-0.34,0-0.34,0.34-0.69,0.69
		c-0.34,1.38-0.34,1.38-0.34,1.38C925.14,160.19,924.45,160.88,923.42,160.88z"/>
	<path class="st0" d="M19.52,58.49c0.82,0.19,2.21,0.73,2.21,2c0,0.43,0.35,0.77,0.78,0.77s0.78-0.34,0.78-0.77
		c0-1.68-1.23-2.97-3.39-3.51c-3.72-0.9-4.9-2.97-4.95-3.05c-0.14-0.26-0.4-0.41-0.68-0.41c-0.43,0-0.78,0.34-0.78,0.77
		c0,0.13,0.04,0.26,0.11,0.39C13.78,55.01,15.27,57.44,19.52,58.49z"/>
	<path class="st0" d="M294.91,266.99c-0.15,0.15-0.22,0.37-0.17,0.58l0.58,3.48l-3.1-1.66c-0.09-0.04-0.17-0.06-0.28-0.06
		s-0.19,0.02-0.3,0.06l-3.08,1.66l0.58-3.48c0.04-0.21-0.02-0.43-0.17-0.58l-2.49-2.45l3.44-0.49c0.22-0.04,0.39-0.17,0.47-0.37
		l1.55-3.18l1.55,3.18c0.09,0.19,0.26,0.32,0.47,0.37l3.44,0.49L294.91,266.99z M298.86,263.44l-4.41-0.65l-1.96-4.04
		c-0.22-0.43-0.92-0.43-1.14,0l-1.96,4.04l-4.41,0.65c-0.24,0.04-0.43,0.21-0.52,0.45c-0.06,0.24,0,0.49,0.17,0.67l3.18,3.14
		l-0.75,4.43c-0.04,0.24,0.04,0.47,0.26,0.62c0.11,0.09,0.24,0.13,0.37,0.13c0.11,0,0.19-0.02,0.3-0.06l3.94-2.11l3.94,2.11
		c0.22,0.11,0.47,0.09,0.67-0.06c0.19-0.15,0.3-0.39,0.26-0.62l-0.75-4.43l3.18-3.14c0.17-0.17,0.24-0.43,0.17-0.67
		C299.29,263.66,299.1,263.48,298.86,263.44z"/>
	<path class="st0" d="M738.67,69.94c-1.89,0.99-3.46,2.52-4.49,4.34l-0.17,0.3l-0.15-0.3c-1.05-1.83-2.6-3.35-4.49-4.34l-0.3-0.17
		l0.3-0.17c1.89-0.99,3.44-2.52,4.49-4.34l0.17-0.3l0.15,0.3c1.05,1.83,2.6,3.35,4.49,4.34l0.3,0.17L738.67,69.94z M741.27,68.99
		l-1.74-0.92c-1.59-0.84-2.9-2.11-3.78-3.66l-0.95-1.7c-0.32-0.54-1.27-0.54-1.59,0l-0.95,1.7c-0.88,1.55-2.19,2.82-3.78,3.66
		l-1.74,0.92c-0.3,0.17-0.47,0.45-0.47,0.77c0,0.32,0.17,0.62,0.47,0.77l1.74,0.92c1.59,0.84,2.9,2.11,3.78,3.66l0.95,1.7
		c0.17,0.28,0.47,0.45,0.8,0.45s0.62-0.17,0.8-0.45l0.95-1.7c0.88-1.55,2.19-2.82,3.78-3.66l1.74-0.92c0.3-0.15,0.47-0.45,0.47-0.77
		C741.74,69.44,741.57,69.16,741.27,68.99z"/>
	<path class="st0" d="M683.01,69.94c-1.83,0.99-3.33,2.52-4.34,4.34l-0.17,0.3l-0.15-0.3c-1.01-1.83-2.49-3.35-4.34-4.34l-0.3-0.17
		l0.3-0.17c1.83-0.99,3.33-2.52,4.34-4.34l0.15-0.3l0.17,0.3c1.01,1.85,2.49,3.35,4.34,4.37l0.3,0.17L683.01,69.94z M686,69.76
		c0-0.32-0.17-0.6-0.45-0.77l-1.7-0.92c-1.53-0.84-2.8-2.11-3.63-3.66l-0.92-1.7c-0.32-0.54-1.23-0.54-1.55,0l-0.92,1.7
		c-0.84,1.55-2.11,2.82-3.63,3.66l-1.7,0.92c-0.28,0.17-0.45,0.45-0.45,0.77c0,0.32,0.17,0.62,0.45,0.77l1.7,0.92
		c1.53,0.84,2.8,2.11,3.63,3.66l0.92,1.7c0.17,0.28,0.45,0.45,0.77,0.45c0.32,0,0.6-0.17,0.77-0.45l0.92-1.7
		c0.84-1.55,2.11-2.82,3.63-3.66l1.7-0.92C685.83,70.39,686,70.09,686,69.76z"/>
	<path class="st0" d="M725.51,75.29c-10.58,5.23-10.11,14.19-10.09,14.58c0.04,0.45,0.43,0.82,0.88,0.82c0.02,0,0.04,0,0.06,0
		c0.47-0.04,0.84-0.45,0.8-0.92c0-0.09-0.43-8.19,9.12-12.88c0.43-0.22,0.62-0.75,0.41-1.18C726.48,75.27,725.96,75.08,725.51,75.29
		z"/>
	<path class="st0" d="M686.75,75.29c-0.45-0.22-0.97-0.02-1.18,0.41c-0.22,0.43-0.02,0.97,0.41,1.18c9.48,4.67,9.12,12.54,9.1,12.88
		c-0.02,0.47,0.34,0.88,0.82,0.92c0.02,0,0.04,0,0.06,0c0.45,0,0.84-0.34,0.88-0.82C696.84,89.48,697.34,80.52,686.75,75.29z"/>
	<path class="st0" d="M706.13,76.24c-0.56,0-1.03,0.41-1.03,0.88v12.69c0,0.47,0.47,0.88,1.03,0.88c0.56,0,1.03-0.41,1.03-0.88
		V77.12C707.16,76.65,706.69,76.24,706.13,76.24z"/>
	<path class="st0" d="M705.87,35.98c-0.43,0-0.77,0.39-0.77,0.86v2.41c0,0.47,0.34,0.86,0.77,0.86c0.43,0,0.77-0.39,0.77-0.86v-2.41
		C706.65,36.37,706.3,35.98,705.87,35.98z"/>
	<path class="st0" d="M706.65,20.86c0-0.49-0.34-0.88-0.77-0.88c-0.43,0-0.77,0.39-0.77,0.88v11.66c0,0.49,0.34,0.88,0.77,0.88
		c0.43,0,0.77-0.39,0.77-0.88V20.86z"/>
	<path class="st0" d="M701.18,41.66c0.17,0,0.34-0.06,0.47-0.17c0.37-0.3,0.45-0.86,0.19-1.27l-1.48-2.3
		c-0.26-0.41-0.77-0.52-1.12-0.22c-0.37,0.3-0.45,0.86-0.19,1.27l1.48,2.32C700.69,41.53,700.95,41.66,701.18,41.66z"/>
	<path class="st0" d="M689.96,25.31c-0.37,0.28-0.45,0.8-0.17,1.18l6.56,9.14c0.15,0.24,0.41,0.34,0.69,0.34
		c0.15,0,0.34-0.04,0.49-0.15c0.37-0.28,0.45-0.82,0.17-1.2l-6.56-9.12C690.86,25.12,690.35,25.03,689.96,25.31z"/>
	<path class="st0" d="M700.07,29.78c0.09,0,0.19,0,0.28-0.04c0.47-0.15,0.73-0.62,0.58-1.05l-2.3-6.58
		c-0.17-0.45-0.69-0.69-1.16-0.54c-0.47,0.15-0.73,0.62-0.58,1.05l2.32,6.58C699.31,29.55,699.68,29.78,700.07,29.78z"/>
	<path class="st0" d="M683.59,31.18c-0.3,0.41-0.19,0.99,0.19,1.27l5.96,4.39c0.15,0.11,0.34,0.17,0.52,0.17
		c0.28,0,0.56-0.13,0.73-0.37c0.3-0.41,0.19-0.99-0.19-1.27l-5.96-4.39C684.43,30.69,683.87,30.8,683.59,31.18z"/>
	<path class="st0" d="M695.85,43.31c-0.15,0.47,0.11,0.97,0.56,1.12l2.37,0.8c0.09,0.02,0.19,0.04,0.28,0.04
		c0.37,0,0.71-0.24,0.84-0.62c0.15-0.47-0.11-0.97-0.56-1.12l-2.37-0.8C696.5,42.58,696,42.84,695.85,43.31z"/>
	<path class="st0" d="M680.37,38.17c-0.15,0.49,0.11,1.01,0.56,1.18l11.14,3.81c0.09,0.02,0.19,0.04,0.28,0.04
		c0.37,0,0.71-0.26,0.84-0.65c0.15-0.49-0.11-1.01-0.56-1.18l-11.14-3.81C681.01,37.42,680.52,37.68,680.37,38.17z"/>
	<path class="st0" d="M699.89,48.97c-0.17-0.45-0.69-0.71-1.18-0.56l-2.77,0.84c-0.49,0.15-0.75,0.65-0.6,1.1
		c0.13,0.37,0.49,0.6,0.9,0.6c0.09,0,0.19-0.02,0.28-0.04l2.77-0.84C699.79,49.91,700.05,49.42,699.89,48.97z"/>
	<path class="st0" d="M681.21,55.59c0.09,0,0.19,0,0.28-0.04l11.14-3.46c0.45-0.15,0.71-0.62,0.56-1.08
		c-0.15-0.45-0.67-0.69-1.12-0.54l-11.14,3.46c-0.45,0.15-0.71,0.62-0.56,1.08C680.5,55.38,680.84,55.59,681.21,55.59z"/>
	<path class="st0" d="M679.29,46.82c0,0.56,0.39,1.03,0.86,1.03h7.05c0.47,0,0.86-0.47,0.86-1.03c0-0.56-0.39-1.03-0.86-1.03h-7.05
		C679.68,45.78,679.29,46.26,679.29,46.82z"/>
	<path class="st0" d="M685.29,63.33c0.17,0,0.34-0.06,0.49-0.17l5.55-4.39c0.37-0.28,0.45-0.86,0.19-1.27
		c-0.28-0.39-0.8-0.49-1.18-0.19l-5.55,4.39c-0.37,0.28-0.45,0.86-0.19,1.27C684.78,63.2,685.03,63.33,685.29,63.33z"/>
	<path class="st0" d="M700.73,51.85l-1.63,2.22c-0.32,0.43-0.24,1.03,0.22,1.35c0.17,0.11,0.39,0.17,0.58,0.17
		c0.3,0,0.6-0.13,0.8-0.41l1.63-2.19c0.32-0.43,0.24-1.03-0.22-1.35C701.66,51.33,701.06,51.42,700.73,51.85z"/>
	<path class="st0" d="M690.52,68.49c0.28,0,0.56-0.13,0.73-0.37l6.97-9.57c0.3-0.39,0.19-0.97-0.19-1.25
		c-0.41-0.3-0.97-0.19-1.27,0.19l-6.97,9.57c-0.3,0.41-0.19,0.97,0.19,1.25C690.15,68.43,690.35,68.49,690.52,68.49z"/>
	<path class="st0" d="M706.13,53.01c-0.56,0-1.03,0.41-1.03,0.9v2.84c0,0.49,0.47,0.9,1.03,0.9c0.56,0,1.03-0.41,1.03-0.9v-2.84
		C707.16,53.42,706.69,53.01,706.13,53.01z"/>
	<path class="st0" d="M706.13,59.72c-0.56,0-1.03,0.39-1.03,0.88v11.66c0,0.49,0.47,0.88,1.03,0.88c0.56,0,1.03-0.39,1.03-0.88V60.6
		C707.16,60.11,706.69,59.72,706.13,59.72z"/>
	<path class="st0" d="M700.43,63.38c-0.43-0.15-0.88,0.11-1.01,0.58l-2.02,6.99c-0.15,0.45,0.09,0.97,0.49,1.12
		c0.09,0.02,0.17,0.04,0.26,0.04c0.34,0,0.65-0.24,0.75-0.62l2.02-6.99C701.08,64.02,700.84,63.53,700.43,63.38z"/>
	<path class="st0" d="M713.06,63.96c-0.15-0.47-0.67-0.73-1.14-0.58c-0.47,0.15-0.73,0.67-0.58,1.12l2.32,6.99
		c0.13,0.39,0.47,0.62,0.86,0.62c0.09,0,0.19-0.02,0.28-0.04c0.47-0.15,0.73-0.67,0.58-1.12L713.06,63.96z"/>
	<path class="st0" d="M711.98,55.42c0.37-0.32,0.45-0.92,0.17-1.35l-1.38-2.19c-0.28-0.45-0.82-0.54-1.2-0.22
		c-0.37,0.3-0.45,0.9-0.17,1.33l1.38,2.19c0.17,0.28,0.43,0.41,0.69,0.41C711.66,55.59,711.83,55.53,711.98,55.42z"/>
	<path class="st0" d="M720.09,68.13c0.15,0.24,0.41,0.37,0.69,0.37c0.15,0,0.34-0.06,0.49-0.17c0.37-0.28,0.45-0.84,0.17-1.25
		l-6.56-9.57c-0.26-0.39-0.8-0.49-1.18-0.19c-0.37,0.28-0.45,0.86-0.17,1.25L720.09,68.13z"/>
	<path class="st0" d="M712.45,49.38l2.77,1.01c0.09,0.02,0.19,0.04,0.3,0.04c0.39,0,0.75-0.28,0.88-0.71
		c0.15-0.56-0.11-1.14-0.6-1.33l-2.77-1.01c-0.49-0.17-1.01,0.13-1.18,0.67C711.7,48.6,711.96,49.18,712.45,49.38z"/>
	<path class="st0" d="M730.54,55.08c0.37,0,0.71-0.24,0.84-0.58c0.15-0.45-0.11-0.92-0.56-1.08l-11.14-3.46
		c-0.45-0.15-0.97,0.09-1.12,0.54s0.11,0.92,0.56,1.08l11.14,3.46C730.35,55.08,730.45,55.08,730.54,55.08z"/>
	<path class="st0" d="M726.91,62.3c0.28,0,0.56-0.13,0.73-0.37c0.3-0.41,0.19-0.99-0.19-1.27l-5.96-4.39
		c-0.41-0.3-0.97-0.19-1.25,0.19c-0.3,0.41-0.19,0.99,0.19,1.27l5.96,4.39C726.54,62.24,726.73,62.3,726.91,62.3z"/>
	<path class="st0" d="M732.45,46.04c0-0.43-0.39-0.77-0.86-0.77h-7.05c-0.47,0-0.86,0.34-0.86,0.77s0.39,0.77,0.86,0.77h7.05
		C732.07,46.82,732.45,46.47,732.45,46.04z"/>
	<path class="st0" d="M712.69,45.27c0.09,0,0.17-0.02,0.28-0.04l2.37-0.8c0.45-0.15,0.71-0.65,0.56-1.12
		c-0.15-0.47-0.65-0.73-1.12-0.58l-2.37,0.8c-0.45,0.15-0.71,0.65-0.56,1.12C711.96,45.03,712.32,45.27,712.69,45.27z"/>
	<path class="st0" d="M708.02,44.95l-1.25,0.39v-1.25c0-0.49-0.41-0.88-0.9-0.88c-0.49,0-0.9,0.39-0.9,0.88v1.25l-1.25-0.39
		c-0.49-0.15-0.99,0.09-1.16,0.56c-0.15,0.45,0.11,0.95,0.58,1.1l1.25,0.39L703.61,48c-0.3,0.41-0.22,0.95,0.22,1.23
		c0.15,0.11,0.34,0.17,0.52,0.17c0.3,0,0.56-0.13,0.75-0.37l0.77-1.01l0.77,1.01c0.19,0.24,0.45,0.37,0.75,0.37
		c0.17,0,0.37-0.06,0.52-0.17c0.43-0.28,0.52-0.82,0.22-1.23l-0.77-1.01l1.25-0.39c0.47-0.15,0.73-0.65,0.58-1.1
		C709.01,45.05,708.52,44.8,708.02,44.95z"/>
	<path class="st0" d="M719.4,43.2c0.09,0,0.19-0.02,0.28-0.04l11.14-3.81c0.45-0.17,0.71-0.69,0.56-1.18
		c-0.15-0.49-0.67-0.75-1.12-0.6l-11.14,3.81c-0.45,0.17-0.71,0.69-0.56,1.18C718.67,42.95,719.03,43.2,719.4,43.2z"/>
	<path class="st0" d="M709.66,41.14c0.3,0,0.58-0.11,0.75-0.32l1.74-2.02c0.3-0.37,0.19-0.86-0.22-1.12
		c-0.43-0.26-1.01-0.17-1.31,0.17l-1.74,2.02c-0.3,0.37-0.19,0.86,0.22,1.12C709.27,41.1,709.46,41.14,709.66,41.14z"/>
	<path class="st0" d="M713.74,35.46c0.28,0,0.56-0.11,0.73-0.34l6.97-9.14c0.3-0.39,0.19-0.9-0.19-1.18
		c-0.41-0.28-0.97-0.19-1.27,0.19l-6.97,9.12c-0.3,0.39-0.19,0.92,0.19,1.2C713.38,35.42,713.57,35.46,713.74,35.46z"/>
	<path class="st0" d="M719.72,36.13c0.17,0.24,0.45,0.37,0.73,0.37c0.17,0,0.37-0.06,0.52-0.17l5.96-4.39
		c0.39-0.28,0.49-0.86,0.19-1.27c-0.28-0.39-0.84-0.49-1.25-0.19l-5.96,4.39C719.53,35.14,719.42,35.72,719.72,36.13z"/>
	<path class="st0" d="M713.77,21.05c-0.47-0.15-0.99,0.11-1.14,0.58l-2.32,6.99c-0.15,0.45,0.11,0.97,0.58,1.12
		c0.09,0.02,0.19,0.04,0.28,0.04c0.39,0,0.73-0.24,0.86-0.62l2.32-6.99C714.5,21.72,714.24,21.2,713.77,21.05z"/>
	<path class="st0" d="M276.22,48.62c0,0-0.45,0-0.45,0.47c-0.92,2.32-0.92,2.32-0.92,2.32c0,1.38-0.92,2.32-2.32,2.32
		c-2.32,0.92-2.32,0.92-2.32,0.92c-0.45,0-0.45,0.45-0.45,0.92c0,0,0,0.47,0.45,0.92c2.32,0.47,2.32,0.47,2.32,0.47
		c1.4,0.45,2.32,1.4,2.32,2.32c0.92,2.32,0.92,2.32,0.92,2.32c0,0.45,0.45,0.92,0.45,0.92c0.47,0,0.92-0.47,0.92-0.92
		c0.92-2.32,0.92-2.32,0.92-2.32c0-0.92,0.92-1.87,2.32-2.32c2.32-0.47,2.32-0.47,2.32-0.47c0.45-0.45,0.45-0.92,0.45-0.92
		c0-0.47,0-0.92-0.45-0.92c-2.32-0.92-2.32-0.92-2.32-0.92c-1.4,0-2.32-0.95-2.32-2.32c-0.92-2.32-0.92-2.32-0.92-2.32
		C277.14,48.62,276.69,48.62,276.22,48.62z M276.22,64.88c-1.38,0-2.3-1.4-2.77-2.8c-0.92-2.32-0.92-2.32-0.92-2.32
		s0-0.45-0.47-0.45c-2.3-0.92-2.3-0.92-2.3-0.92c-1.4,0-2.32-1.4-2.32-2.8c0-1.85,0.92-2.8,2.32-3.25c2.3-0.47,2.3-0.47,2.3-0.47
		c0.47-0.45,0.47-0.45,0.47-0.92c0.92-2.32,0.92-2.32,0.92-2.32c0.47-1.4,1.4-2.32,2.77-2.32c1.85,0,2.77,0.92,3.25,2.32
		c0.92,2.32,0.92,2.32,0.92,2.32c0,0.47,0,0.47,0.47,0.92c2.3,0.47,2.3,0.47,2.3,0.47c1.4,0.45,2.32,1.4,2.32,3.25
		c0,1.4-0.92,2.8-2.32,2.8c-2.3,0.92-2.3,0.92-2.3,0.92c-0.47,0-0.47,0.45-0.47,0.45c-0.92,2.32-0.92,2.32-0.92,2.32
		C278.99,63.48,278.07,64.88,276.22,64.88z"/>
	<path class="st0" d="M343.06,30.65c0.34,0.43,0.3,1.03-0.11,1.4c-11.1,9.72-11.66,21.96-11.66,22.09
		c-0.02,0.52-0.43,0.95-0.97,0.95h-0.02c-0.54-0.02-0.97-0.47-0.95-1.01c0.02-0.54,0.54-13.2,12.32-23.53
		C342.09,30.19,342.71,30.22,343.06,30.65z"/>
	<path class="st0" d="M353.08,23.87c-0.22-0.26-0.26-0.6-0.15-0.92l1.18-3.46l-3.48,1.18c-0.32,0.11-0.65,0.04-0.9-0.15l-2.95-2.19
		l0.04,3.68c0,0.32-0.15,0.62-0.43,0.82l-2.99,2.13l3.51,1.08c0.3,0.11,0.56,0.34,0.67,0.67l1.08,3.51l2.13-3.01
		c0.17-0.26,0.49-0.41,0.82-0.41l0,0l3.68,0.04L353.08,23.87z M357.25,28.82l-5.14-0.06l-2.99,4.21c-0.19,0.26-0.49,0.43-0.82,0.43
		c-0.04,0-0.09,0-0.15-0.02c-0.39-0.04-0.69-0.32-0.8-0.67l-1.53-4.92l-4.95-1.55c-0.34-0.11-0.62-0.41-0.67-0.8
		c-0.06-0.37,0.09-0.73,0.41-0.97l4.22-2.97l-0.06-5.16c0-0.39,0.19-0.73,0.54-0.9s0.75-0.13,1.05,0.09l4.11,3.08l4.9-1.66
		c0.34-0.11,0.75-0.02,1.01,0.26c0.28,0.26,0.37,0.67,0.24,1.01l-1.63,4.88l3.08,4.13c0.22,0.3,0.26,0.71,0.09,1.05
		C357.98,28.62,357.62,28.84,357.25,28.82z"/>
	<path class="st0" d="M400.71,72.11c-0.15,0.15-0.22,0.34-0.17,0.56l0.58,3.35l-3.1-1.59c-0.09-0.04-0.17-0.06-0.28-0.06
		c-0.11,0-0.19,0.02-0.3,0.06l-3.08,1.59l0.58-3.35c0.04-0.21-0.02-0.41-0.17-0.56l-2.49-2.37l3.44-0.49
		c0.22-0.02,0.39-0.15,0.47-0.34l1.55-3.05l1.55,3.05c0.09,0.19,0.26,0.32,0.47,0.34l3.44,0.49L400.71,72.11z M404.67,68.69
		l-4.41-0.62l-1.96-3.89c-0.22-0.43-0.92-0.43-1.14,0l-1.96,3.89l-4.41,0.62c-0.24,0.02-0.43,0.19-0.52,0.43
		c-0.06,0.22,0,0.47,0.17,0.65l3.18,3.01l-0.75,4.28c-0.04,0.24,0.04,0.47,0.26,0.6c0.11,0.09,0.24,0.13,0.37,0.13
		c0.11,0,0.19-0.02,0.3-0.06l3.94-2.02l3.94,2.02c0.22,0.11,0.47,0.09,0.67-0.06c0.19-0.13,0.3-0.37,0.26-0.6l-0.75-4.28l3.18-3.01
		c0.17-0.17,0.24-0.43,0.17-0.65C405.1,68.88,404.91,68.73,404.67,68.69z"/>
	<rect x="617.87" y="21.53" class="st0" width="2.06" height="3.1"/>
	<polygon class="st0" points="613.87,24.22 615.34,22.73 617.57,24.95 616.09,26.43 	"/>
	<rect x="612.71" y="26.69" class="st0" width="3.1" height="2.06"/>
	<polygon class="st0" points="613.87,31.63 616.09,29.4 617.57,30.88 615.36,33.12 	"/>
	<rect x="617.87" y="30.82" class="st0" width="2.06" height="3.61"/>
	<polygon class="st0" points="620.54,30.88 622.02,29.4 624.24,31.63 622.78,33.1 	"/>
	<rect x="622" y="26.69" class="st0" width="3.1" height="2.06"/>
	<polygon class="st0" points="620.54,24.95 622.78,22.73 624.24,24.22 622.02,26.43 	"/>
</g>
</svg>
