<?xml version="1.0" encoding="utf-8"?>
<!-- Generator: Adobe Illustrator 23.0.6, SVG Export Plug-In . SVG Version: 6.00 Build 0)  -->
<svg version="1.1" id="Layer_1" xmlns="http://www.w3.org/2000/svg" xmlns:xlink="http://www.w3.org/1999/xlink" x="0px" y="0px"
	 viewBox="0 0 20 20" style="enable-background:new 0 0 20 20;" xml:space="preserve">
<style type="text/css">
	.st0{fill:#999999;}
</style>
<g>
	<path class="st0" d="M10,14.48c-0.46,0-0.83,0.37-0.83,0.83c0,0.46,0.37,0.83,0.83,0.83c0.46,0,0.83-0.37,0.83-0.83
		C10.83,14.85,10.46,14.48,10,14.48z"/>
	<path class="st0" d="M10,0C4.49,0,0,4.49,0,10s4.49,10,10,10s10-4.49,10-10C20,4.49,15.51,0,10,0z M10,18.91
		c-4.91,0-8.91-4-8.91-8.91s4-8.91,8.91-8.91s8.91,4,8.91,8.91S14.91,18.91,10,18.91z"/>
	<path class="st0" d="M10,4.2c-1.77,0-3.24,1.33-3.42,3.09C6.56,7.43,6.61,7.57,6.7,7.67c0.1,0.11,0.24,0.17,0.39,0.17h0.03
		c0.28,0,0.51-0.22,0.55-0.5C7.82,6.17,8.82,5.29,10,5.29c1.29,0,2.35,1.05,2.35,2.35c0,0.63-0.24,1.22-0.69,1.66
		c-0.07,0.07-0.18,0.16-0.31,0.27c-0.66,0.53-1.76,1.42-1.88,3.24c-0.01,0.14,0.04,0.27,0.13,0.38c0.1,0.11,0.24,0.17,0.38,0.17
		h0.03c0.28,0,0.52-0.23,0.54-0.51c0.11-1.31,0.9-1.95,1.49-2.43c0.15-0.12,0.28-0.22,0.39-0.33c0.65-0.65,1.01-1.51,1.01-2.43
		C13.44,5.75,11.9,4.2,10,4.2z"/>
</g>
</svg>
